<svg width="87" height="104" viewBox="0 0 87 104" fill="none" xmlns="http://www.w3.org/2000/svg">
<path d="M59.1765 31.426C59.1765 34.0829 58.8784 37.7037 59.982 41.8982C67.232 63.6482 80.8615 99.0926 47.8987 99.0926C40.5225 99.0926 35.0098 99.0926 32.5931 98.2871C23.732 58.8149 33.4627 58.386 38.2321 41.8982C39.4454 37.7037 39.0376 34.0829 39.0376 31.426C39.0376 25.428 36.8532 19.6532 36.859 14.7669C36.8688 6.52817 40.1082 0.814941 48.7043 0.814941C57.3004 0.814941 61.347 6.27068 61.5931 14.5094C61.7391 19.3957 59.1765 25.428 59.1765 31.426Z" fill="white"/>
<path fill-rule="evenodd" clip-rule="evenodd" d="M58.4372 42.3584L58.4239 42.3082C57.4414 38.5739 57.503 35.2238 57.5485 32.7517C57.5572 32.2762 57.5654 31.8331 57.5654 31.426C57.5654 28.2271 58.2479 25.0536 58.8651 22.2092L58.8707 22.1834C59.5041 19.264 60.0484 16.7554 59.9827 14.5575C59.8665 10.667 58.8576 7.65784 57.0731 5.63995C55.323 3.66104 52.6417 2.42605 48.7043 2.42605C44.7961 2.42605 42.359 3.70188 40.8401 5.68197C39.2608 7.74079 38.4748 10.8173 38.4701 14.7688C38.4675 16.929 38.931 19.3088 39.4599 22.024C39.4823 22.1394 39.5049 22.2554 39.5276 22.372C40.0709 25.1658 40.6487 28.2515 40.6487 31.426C40.6487 31.8733 40.6628 32.37 40.678 32.9102C40.747 35.3501 40.841 38.6771 39.7797 42.3459C38.5458 46.6116 36.9889 49.8374 35.5421 52.8176L35.5017 52.9009C34.0667 55.8568 32.7632 58.5417 31.8564 61.8942C30.0665 68.5109 29.7653 77.9746 33.9512 96.9724C34.9765 97.1716 36.4677 97.3054 38.4484 97.382C41.0126 97.4813 44.1996 97.4815 47.8987 97.4815C55.8627 97.4815 60.6719 95.3464 63.5064 92.1464C66.3704 88.913 67.5027 84.2772 67.4093 78.6786C67.2392 68.4891 63.0519 56.0638 59.5397 45.6422C59.1683 44.5399 58.8044 43.4601 58.4536 42.4077L58.4372 42.3584ZM32.5931 98.2871C25.9793 68.8254 29.7229 61.1147 34.0303 52.2427C35.4938 49.2282 37.0225 46.0797 38.2321 41.8982C39.216 38.4968 39.1339 35.4726 39.0676 33.0338C39.0522 32.4652 39.0376 31.9284 39.0376 31.426C39.0376 28.278 38.4359 25.1915 37.8649 22.2626C37.348 19.611 36.8562 17.0887 36.859 14.7669C36.8688 6.52817 40.1082 0.814941 48.7043 0.814941C57.3004 0.814941 61.347 6.27068 61.5931 14.5094C61.6647 16.9061 61.0847 19.5785 60.475 22.3874C59.8417 25.3051 59.1765 28.37 59.1765 31.426C59.1765 31.8672 59.1683 32.335 59.1596 32.8276C59.1161 35.3013 59.0617 38.4003 59.982 41.8982C60.3328 42.9505 60.6985 44.0349 61.0731 45.1457C68.4418 66.995 79.2667 99.0926 47.8987 99.0926C40.5225 99.0926 35.0098 99.0926 32.5931 98.2871Z" fill="black"/>
<path d="M40.6488 33.0371H58.371V42.7038H39.8433L40.6488 33.0371Z" fill="#FF4D4E"/>
<path fill-rule="evenodd" clip-rule="evenodd" d="M42.1313 34.6482L41.5942 41.0927H56.7599V34.6482H42.1313ZM39.8433 42.7038L40.6488 33.0371H58.371V42.7038H39.8433Z" fill="black"/>
<path d="M31.5398 87.8149H66.4265C66.4265 87.8149 66.4266 91.8427 59.9821 95.8705C53.5376 99.8983 33.3987 97.4816 33.3987 97.4816L31.5398 87.8149Z" fill="#FF4D4E"/>
<path fill-rule="evenodd" clip-rule="evenodd" d="M31.5398 87.8149L33.3987 97.4816C33.3987 97.4816 53.5376 99.8983 59.9821 95.8705C63.9029 93.42 65.4383 90.9695 66.0395 89.4261C66.4265 88.4326 66.4265 87.8149 66.4265 87.8149C66.3842 87.8149 66.3431 87.8149 66.3031 87.8149H31.5398ZM33.4902 89.4261L34.7557 96.0069C35.282 96.0595 35.9685 96.124 36.7782 96.1906C38.7438 96.3523 41.4261 96.526 44.3015 96.5756C47.1833 96.6253 50.2233 96.5495 52.9151 96.2221C55.66 95.8883 57.8306 95.3153 59.1282 94.5043C62.1382 92.6231 63.5408 90.8091 64.1994 89.5741C64.2262 89.5239 64.2518 89.4746 64.2763 89.4261H33.4902Z" fill="black"/>
<path fill-rule="evenodd" clip-rule="evenodd" d="M56.8923 42.8186L56.8659 42.7181C55.8207 38.7457 55.89 35.1421 55.9374 32.6774C55.9462 32.2193 55.9543 31.8005 55.9543 31.426C55.9543 28.0271 56.6787 24.6878 57.2906 21.8676C57.9398 18.8753 58.4311 16.5712 58.3724 14.6056C58.263 10.9439 57.3183 8.34927 55.8662 6.70725C54.483 5.1432 52.2811 4.03716 48.7043 4.03716C45.186 4.03716 43.2706 5.16052 42.1184 6.66255C40.8455 8.32204 40.0857 10.9871 40.0812 14.7707C40.0788 16.7705 40.5148 19.0109 41.059 21.8073C41.0756 21.8925 41.0923 21.9782 41.1091 22.0644C41.6504 24.8477 42.2598 28.0761 42.2598 31.426C42.2598 31.8217 42.2733 32.2791 42.2883 32.7897C42.3599 35.219 42.467 38.854 41.3274 42.7936C40.0519 47.203 38.4405 50.5363 36.9915 53.5212L36.9762 53.5527C35.5253 56.5414 34.2787 59.1093 33.4116 62.3149C31.7539 68.4431 31.3748 77.375 35.2894 95.5464C36.1014 95.642 37.1635 95.72 38.5107 95.7721C41.0369 95.8699 44.1885 95.8704 47.8987 95.8704C55.586 95.8704 59.8757 93.8155 62.3004 91.0781C64.7841 88.2741 65.8886 84.1127 65.7984 78.7055C65.6328 68.7853 61.533 56.6108 58.0049 46.1341C57.6371 45.0419 57.2754 43.9681 56.9252 42.9172L56.8923 42.8186ZM32.5931 98.2871C25.9793 68.8254 29.7229 61.1147 34.0303 52.2427C35.4938 49.2282 37.0225 46.0797 38.2321 41.8982C39.216 38.4968 39.1339 35.4726 39.0676 33.0338C39.0522 32.4652 39.0376 31.9284 39.0376 31.426C39.0376 28.278 38.4359 25.1915 37.8649 22.2626C37.348 19.611 36.8562 17.0887 36.859 14.7669C36.8688 6.52817 40.1082 0.814941 48.7043 0.814941C57.3004 0.814941 61.347 6.27068 61.5931 14.5094C61.6647 16.9061 61.0847 19.5785 60.475 22.3874C59.8417 25.3051 59.1765 28.37 59.1765 31.426C59.1765 31.8672 59.1683 32.335 59.1596 32.8276C59.1161 35.3013 59.0617 38.4003 59.982 41.8982C60.3328 42.9505 60.6985 44.0349 61.0731 45.1457C68.4418 66.995 79.2667 99.0926 47.8987 99.0926C40.5225 99.0926 35.0098 99.0926 32.5931 98.2871Z" fill="black"/>
<path d="M30.1765 31.426C30.1765 34.0829 29.8784 37.7037 30.982 41.8982C38.232 63.6482 51.8615 99.0926 18.8987 99.0926C11.5225 99.0926 6.00976 99.0926 3.59313 98.2871C-5.268 58.8149 4.46267 58.386 9.23207 41.8982C10.4454 37.7037 10.0376 34.0829 10.0376 31.426C10.0376 25.428 7.85319 19.6532 7.85899 14.7669C7.86877 6.52817 11.1082 0.814941 19.7043 0.814941C28.3004 0.814941 32.347 6.27068 32.5931 14.5094C32.7391 19.3957 30.1765 25.428 30.1765 31.426Z" fill="white"/>
<path fill-rule="evenodd" clip-rule="evenodd" d="M29.4372 42.3584L29.4239 42.3082C28.4414 38.5739 28.503 35.2238 28.5485 32.7517C28.5572 32.2762 28.5654 31.8331 28.5654 31.426C28.5654 28.2271 29.2479 25.0536 29.8651 22.2092L29.8707 22.1834C30.5041 19.264 31.0484 16.7554 30.9827 14.5575C30.8665 10.667 29.8576 7.65784 28.0731 5.63995C26.323 3.66104 23.6417 2.42605 19.7043 2.42605C15.7961 2.42605 13.359 3.70188 11.8401 5.68197C10.2608 7.74079 9.47479 10.8173 9.4701 14.7688C9.46754 16.929 9.93105 19.3088 10.4599 22.024C10.4823 22.1394 10.5049 22.2554 10.5276 22.372C11.0709 25.1658 11.6487 28.2515 11.6487 31.426C11.6487 31.8733 11.6628 32.37 11.678 32.9102C11.747 35.3501 11.841 38.6771 10.7797 42.3459C9.54581 46.6116 7.98889 49.8374 6.54215 52.8176L6.50167 52.9009C5.06667 55.8568 3.76324 58.5417 2.85636 61.8942C1.06648 68.5109 0.765321 77.9746 4.95119 96.9724C5.9765 97.1716 7.46769 97.3054 9.44839 97.382C12.0126 97.4813 15.1996 97.4815 18.8987 97.4815C26.8627 97.4815 31.6719 95.3464 34.5064 92.1464C37.3704 88.913 38.5027 84.2772 38.4093 78.6786C38.2392 68.4891 34.0519 56.0638 30.5397 45.6422C30.1683 44.5399 29.8044 43.4601 29.4536 42.4077L29.4372 42.3584ZM3.59313 98.2871C-3.02074 68.8254 0.722876 61.1147 5.03028 52.2427C6.49385 49.2282 8.0225 46.0797 9.23207 41.8982C10.216 38.4968 10.1339 35.4726 10.0676 33.0338C10.0522 32.4652 10.0376 31.9284 10.0376 31.426C10.0376 28.278 9.43588 25.1915 8.8649 22.2626C8.34797 19.611 7.85624 17.0887 7.85899 14.7669C7.86877 6.52817 11.1082 0.814941 19.7043 0.814941C28.3004 0.814941 32.347 6.27068 32.5931 14.5094C32.6647 16.9061 32.0847 19.5785 31.475 22.3874C30.8417 25.3051 30.1765 28.37 30.1765 31.426C30.1765 31.8672 30.1683 32.335 30.1596 32.8276C30.1161 35.3013 30.0617 38.4003 30.982 41.8982C31.3328 42.9505 31.6985 44.0349 32.0731 45.1457C39.4418 66.995 50.2667 99.0926 18.8987 99.0926C11.5225 99.0926 6.00976 99.0926 3.59313 98.2871Z" fill="black"/>
<path d="M11.6486 33.0371H29.3708V42.7038H10.843L11.6486 33.0371Z" fill="#FF4D4E"/>
<path fill-rule="evenodd" clip-rule="evenodd" d="M13.131 34.6482L12.594 41.0927H27.7597V34.6482H13.131ZM10.843 42.7038L11.6486 33.0371H29.3708V42.7038H10.843Z" fill="black"/>
<path d="M2.53979 87.8149H37.4265C37.4265 87.8149 37.4266 91.8427 30.9821 95.8705C24.5376 99.8983 4.39871 97.4816 4.39871 97.4816L2.53979 87.8149Z" fill="#FF4D4E"/>
<path fill-rule="evenodd" clip-rule="evenodd" d="M2.53979 87.8149L4.39871 97.4816C4.39871 97.4816 24.5376 99.8983 30.9821 95.8705C34.9029 93.42 36.4383 90.9695 37.0395 89.4261C37.4265 88.4326 37.4265 87.8149 37.4265 87.8149C37.3842 87.8149 37.3431 87.8149 37.3031 87.8149H2.53979ZM4.49024 89.4261L5.75574 96.0069C6.28203 96.0595 6.96849 96.124 7.77821 96.1906C9.74381 96.3523 12.4261 96.526 15.3015 96.5756C18.1833 96.6253 21.2233 96.5495 23.9151 96.2221C26.66 95.8883 28.8306 95.3153 30.1282 94.5043C33.1382 92.6231 34.5408 90.8091 35.1994 89.5741C35.2262 89.5239 35.2518 89.4746 35.2763 89.4261H4.49024Z" fill="black"/>
<path fill-rule="evenodd" clip-rule="evenodd" d="M27.8923 42.8186L27.8659 42.7181C26.8207 38.7457 26.89 35.1421 26.9374 32.6774C26.9462 32.2193 26.9543 31.8005 26.9543 31.426C26.9543 28.0271 27.6787 24.6878 28.2906 21.8676C28.9398 18.8753 29.4311 16.5712 29.3724 14.6056C29.263 10.9439 28.3183 8.34927 26.8662 6.70725C25.483 5.1432 23.2811 4.03716 19.7043 4.03716C16.186 4.03716 14.2706 5.16052 13.1184 6.66255C11.8455 8.32204 11.0857 10.9871 11.0812 14.7707C11.0788 16.7705 11.5148 19.0109 12.059 21.8073C12.0756 21.8925 12.0923 21.9782 12.1091 22.0644C12.6504 24.8477 13.2598 28.0761 13.2598 31.426C13.2598 31.8217 13.2733 32.2791 13.2883 32.7897C13.3599 35.219 13.467 38.854 12.3274 42.7936C11.0519 47.203 9.4405 50.5363 7.99151 53.5212L7.97618 53.5527C6.52532 56.5414 5.27871 59.1093 4.41158 62.3149C2.75385 68.4431 2.37481 77.375 6.28937 95.5464C7.10145 95.642 8.16353 95.72 9.51068 95.7721C12.0369 95.8699 15.1885 95.8704 18.8987 95.8704C26.586 95.8704 30.8757 93.8155 33.3004 91.0781C35.7841 88.2741 36.8886 84.1127 36.7984 78.7055C36.6328 68.7853 32.533 56.6108 29.0049 46.1341C28.6371 45.0419 28.2754 43.9681 27.9252 42.9172L27.8923 42.8186ZM3.59313 98.2871C-3.02074 68.8254 0.722876 61.1147 5.03028 52.2427C6.49385 49.2282 8.0225 46.0797 9.23207 41.8982C10.216 38.4968 10.1339 35.4726 10.0676 33.0338C10.0522 32.4652 10.0376 31.9284 10.0376 31.426C10.0376 28.278 9.43588 25.1915 8.8649 22.2626C8.34797 19.611 7.85624 17.0887 7.85899 14.7669C7.86877 6.52817 11.1082 0.814941 19.7043 0.814941C28.3004 0.814941 32.347 6.27068 32.5931 14.5094C32.6647 16.9061 32.0847 19.5785 31.475 22.3874C30.8417 25.3051 30.1765 28.37 30.1765 31.426C30.1765 31.8672 30.1683 32.335 30.1596 32.8276C30.1161 35.3013 30.0617 38.4003 30.982 41.8982C31.3328 42.9505 31.6985 44.0349 32.0731 45.1457C39.4418 66.995 50.2667 99.0926 18.8987 99.0926C11.5225 99.0926 6.00976 99.0926 3.59313 98.2871Z" fill="black"/>
<path d="M44.6765 34.6482C44.6765 37.3051 44.3784 40.9259 45.482 45.1204C52.732 66.8704 66.3615 102.315 33.3987 102.315C26.0225 102.315 20.5098 102.315 18.0931 101.509C9.232 62.0371 18.9627 61.6081 23.7321 45.1204C24.9454 40.9259 24.5376 37.3051 24.5376 34.6482C24.5376 28.6501 22.3532 22.8754 22.359 17.989C22.3688 9.75034 25.6082 4.03711 34.2043 4.03711C42.8004 4.03711 46.847 9.49285 47.0931 17.7315C47.2391 22.6179 44.6765 28.6501 44.6765 34.6482Z" fill="white"/>
<path fill-rule="evenodd" clip-rule="evenodd" d="M43.9372 45.5806L43.9239 45.5303C42.9414 41.7961 43.003 38.446 43.0485 35.9739C43.0572 35.4983 43.0654 35.0553 43.0654 34.6482C43.0654 31.4492 43.7479 28.2758 44.3651 25.4314L44.3707 25.4056C45.0041 22.4861 45.5484 19.9776 45.4827 17.7796C45.3665 13.8891 44.3576 10.88 42.5731 8.86212C40.823 6.88321 38.1417 5.64822 34.2043 5.64822C30.2961 5.64822 27.859 6.92405 26.3401 8.90414C24.7608 10.963 23.9748 14.0395 23.9701 17.9909C23.9675 20.1511 24.431 22.531 24.9599 25.2462C24.9823 25.3616 25.0049 25.4776 25.0276 25.5942C25.5709 28.3879 26.1487 31.4737 26.1487 34.6482C26.1487 35.0955 26.1628 35.5922 26.178 36.1324C26.247 38.5723 26.341 41.8993 25.2797 45.5681C24.0458 49.8337 22.4889 53.0595 21.0421 56.0397L21.0017 56.1231C19.5667 59.079 18.2632 61.7639 17.3564 65.1164C15.5665 71.7331 15.2653 81.1968 19.4512 100.195C20.4765 100.394 21.9677 100.528 23.9484 100.604C26.5126 100.703 29.6996 100.704 33.3987 100.704C41.3627 100.704 46.1719 98.5686 49.0064 95.3685C51.8704 92.1351 53.0027 87.4993 52.9093 81.9007C52.7392 71.7113 48.5519 59.286 45.0397 48.8643C44.6683 47.7621 44.3044 46.6823 43.9536 45.6299L43.9372 45.5806ZM18.0931 101.509C11.4793 72.0476 15.2229 64.3369 19.5303 55.4649C20.9938 52.4504 22.5225 49.3018 23.7321 45.1204C24.716 41.719 24.6339 38.6948 24.5676 36.256C24.5522 35.6874 24.5376 35.1505 24.5376 34.6482C24.5376 31.5002 23.9359 28.4136 23.3649 25.4848C22.848 22.8332 22.3562 20.3108 22.359 17.989C22.3688 9.75034 25.6082 4.03711 34.2043 4.03711C42.8004 4.03711 46.847 9.49285 47.0931 17.7315C47.1647 20.1283 46.5847 22.8007 45.975 25.6096C45.3417 28.5273 44.6765 31.5922 44.6765 34.6482C44.6765 35.0894 44.6683 35.5572 44.6596 36.0498C44.6161 38.5234 44.5617 41.6224 45.482 45.1204C45.8328 46.1727 46.1985 47.2571 46.5731 48.3679C53.9418 70.2171 64.7667 102.315 33.3987 102.315C26.0225 102.315 20.5098 102.315 18.0931 101.509Z" fill="black"/>
<path d="M26.1486 36.2593H43.8708V45.9259H25.343L26.1486 36.2593Z" fill="#FF4D4E"/>
<path fill-rule="evenodd" clip-rule="evenodd" d="M27.631 37.8704L27.094 44.3148H42.2597V37.8704H27.631ZM25.343 45.9259L26.1486 36.2593H43.8708V45.9259H25.343Z" fill="black"/>
<path d="M17.0398 91.0371H51.9265C51.9265 91.0371 51.9266 95.0649 45.4821 99.0927C39.0376 103.12 18.8987 100.704 18.8987 100.704L17.0398 91.0371Z" fill="#FF4D4E"/>
<path fill-rule="evenodd" clip-rule="evenodd" d="M17.0398 91.0371L18.8987 100.704C18.8987 100.704 39.0376 103.12 45.4821 99.0927C49.4029 96.6422 50.9383 94.1917 51.5395 92.6482C51.9265 91.6548 51.9265 91.0371 51.9265 91.0371C51.8842 91.0371 51.8431 91.0371 51.8031 91.0371H17.0398ZM18.9902 92.6482L20.2557 99.229C20.782 99.2817 21.4685 99.3461 22.2782 99.4128C24.2438 99.5745 26.9261 99.7482 29.8015 99.7978C32.6833 99.8474 35.7233 99.7717 38.4151 99.4443C41.16 99.1105 43.3306 98.5374 44.6282 97.7264C47.6382 95.8452 49.0408 94.0312 49.6994 92.7963C49.7262 92.7461 49.7518 92.6967 49.7763 92.6482H18.9902Z" fill="black"/>
<path fill-rule="evenodd" clip-rule="evenodd" d="M42.3924 46.0408L42.366 45.9403C41.3208 41.9678 41.3901 38.3643 41.4375 35.8996C41.4463 35.4414 41.4544 35.0227 41.4544 34.6482C41.4544 31.2493 42.1788 27.91 42.7907 25.0898C43.44 22.0975 43.9312 19.7934 43.8725 17.8278C43.7631 14.1661 42.8185 11.5714 41.3663 9.92942C39.9832 8.36537 37.7812 7.25933 34.2044 7.25933C30.6861 7.25933 28.7708 8.38269 27.6186 9.88472C26.3456 11.5442 25.5858 14.2093 25.5814 17.9929C25.579 19.9927 26.015 22.2331 26.5592 25.0294C26.5758 25.1146 26.5924 25.2004 26.6092 25.2866C27.1505 28.0699 27.76 31.2982 27.76 34.6482C27.76 35.0439 27.7734 35.5013 27.7885 36.0118C27.8601 38.4412 27.9671 42.0762 26.8275 46.0158C25.552 50.4251 23.9406 53.7585 22.4916 56.7433L22.4763 56.7749C21.0255 59.7636 19.7788 62.3315 18.9117 65.5371C17.2505 71.6782 16.8734 80.6348 20.8143 98.8834C24.1677 98.937 28.3304 99.0056 33.4539 99.0931C45.0175 99.2906 51.0432 97.1644 54.0099 94.4138C56.7683 91.8562 57.5679 88.0678 56.6656 82.7112C55.7584 77.3256 53.2417 71.1234 50.3442 64.665C49.7217 63.2773 49.0794 61.8737 48.4362 60.4681C46.1686 55.513 43.89 50.5336 42.4253 46.1394L42.3924 46.0408ZM17.5077 98.8312C11.7121 71.5684 15.3566 64.0618 19.5304 55.4649C20.994 52.4504 22.5226 49.3018 23.7322 45.1204C24.7161 41.719 24.634 38.6948 24.5678 36.256C24.5523 35.6874 24.5377 35.1505 24.5377 34.6482C24.5377 31.5002 23.936 28.4136 23.365 25.4848C22.8481 22.8332 22.3564 20.3108 22.3591 17.989C22.3689 9.75034 25.6083 4.03711 34.2044 4.03711C42.8005 4.03711 46.8472 9.49285 47.0933 17.7315C47.1649 20.1283 46.5848 22.8007 45.9752 25.6096C45.3419 28.5273 44.6766 31.5922 44.6766 34.6482C44.6766 35.0894 44.6684 35.5572 44.6597 36.0498C44.6163 38.5234 44.5618 41.6224 45.4822 45.1204C46.8865 49.3333 49.0627 54.0903 51.3164 59.0166C60.6977 79.5232 71.4215 102.964 33.3989 102.315C28.5945 102.233 24.6353 102.167 21.3963 102.115C20.1258 102.095 18.9661 102.077 17.9097 102.06C17.1492 102.048 16.4423 102.037 15.7861 102.027C15.524 102.023 15.2699 102.019 15.0238 102.016C14.9837 102.015 14.9438 102.014 14.9042 102.014C13.138 101.987 11.7864 101.967 10.781 101.953C9.01472 101.927 8.31686 101.918 8.31689 101.914C8.31693 101.91 9.36241 101.914 10.7739 101.909C12.0107 101.905 13.5285 101.893 14.8702 101.862C14.9159 101.861 14.9613 101.86 15.0065 101.858C15.6904 101.842 16.3235 101.819 16.8437 101.79C17.3923 101.759 17.8152 101.72 18.0393 101.671C18.2464 101.626 18.2836 101.573 18.0933 101.509C17.8882 100.596 17.6931 99.7034 17.5077 98.8312Z" fill="black"/>
<path d="M87 74.9263C87 90.9425 74.0162 103.926 58 103.926C41.9837 103.926 29 90.9425 29 74.9263C29 58.91 41.9837 45.9263 58 45.9263C74.0162 45.9263 87 58.91 87 74.9263Z" fill="#7E84B8"/>
<path fill-rule="evenodd" clip-rule="evenodd" d="M58 100.704C72.2366 100.704 83.7777 89.1629 83.7777 74.9263C83.7777 60.6896 72.2366 49.1485 58 49.1485C43.7633 49.1485 32.2222 60.6896 32.2222 74.9263C32.2222 89.1629 43.7633 100.704 58 100.704ZM58 103.926C74.0162 103.926 87 90.9425 87 74.9263C87 58.91 74.0162 45.9263 58 45.9263C41.9837 45.9263 29 58.91 29 74.9263C29 90.9425 41.9837 103.926 58 103.926Z" fill="#4A4E70"/>
<path d="M53.1666 59.6201C53.1666 61.8445 51.3633 63.6478 49.1389 63.6478C46.9144 63.6478 45.1111 61.8445 45.1111 59.6201C45.1111 57.3956 46.9144 55.5923 49.1389 55.5923C51.3633 55.5923 53.1666 57.3956 53.1666 59.6201Z" fill="#5B5B5B"/>
<path d="M64.4445 62.8427C64.4445 65.0672 62.6412 66.8705 60.4167 66.8705C58.1922 66.8705 56.3889 65.0672 56.3889 62.8427C56.3889 60.6182 58.1922 58.8149 60.4167 58.8149C62.6412 58.8149 64.4445 60.6182 64.4445 62.8427Z" fill="#5B5B5B"/>
<path d="M46.7221 75.7319C46.7221 77.9564 44.9188 79.7597 42.6943 79.7597C40.4698 79.7597 38.6665 77.9564 38.6665 75.7319C38.6665 73.5074 40.4698 71.7041 42.6943 71.7041C44.9188 71.7041 46.7221 73.5074 46.7221 75.7319Z" fill="#5B5B5B"/>
</svg>
