<svg width="522" height="552" viewBox="0 0 522 552" fill="none" xmlns="http://www.w3.org/2000/svg">
<path d="M246 478V497L241.752 527.162C241.252 530.711 240.372 534.195 239.128 537.555L236 546" stroke="white" stroke-width="5" stroke-linecap="round"/>
<path d="M243.5 475L247.681 459.036C248.558 455.688 249.78 452.439 251.328 449.344L255.515 440.971C258.146 435.708 261.788 431.017 266.234 427.164V427.164C271.665 422.457 278.149 419.127 285.138 417.456L287.999 416.772C294.259 415.275 300.768 415.154 307.079 416.416L308.423 416.685C319.044 418.809 330.074 416.662 339.123 410.709V410.709C342.358 408.58 345.277 406.006 347.793 403.062L363.747 384.392C366.241 381.474 368.39 378.278 370.153 374.867L388.864 338.666C389.953 336.558 390.891 334.375 391.671 332.134L400.987 305.35C401.993 302.456 402.732 299.476 403.193 296.446L404.949 284.906C405.646 280.324 405.703 275.668 405.118 271.071L402.5 250.5L400.765 243.561C399.268 237.572 398.893 231.358 399.658 225.232L402.5 202.5V180.88C402.5 174.681 401.347 168.536 399.1 162.758L387.863 133.863C385.966 128.984 383.315 124.434 380.006 120.379L359.127 94.7841C355.731 90.6219 351.687 87.034 347.15 84.1585L323.355 69.0774C320.129 67.0325 316.679 65.3641 313.073 64.1048L292.479 56.9132C288.838 55.642 285.063 54.7961 281.229 54.3925L256.34 51.7726C251.473 51.2603 246.557 51.4653 241.75 52.381L213.302 57.7996C209.118 58.5966 205.053 59.925 201.205 61.7526L172.746 75.2708C168.931 77.083 165.361 79.3712 162.121 82.0809L145.604 95.8945C141.56 99.2769 138.077 103.278 135.282 107.748L121.966 129.054C120.326 131.679 118.932 134.451 117.804 137.334L106 167.5L97.5668 200.389C96.5264 204.447 96 208.619 96 212.808V241.353C96 244.444 96.2867 247.529 96.8564 250.567L101.124 273.33C101.707 276.436 102.582 279.48 103.74 282.422L111.988 303.387C113.325 306.785 115.031 310.027 117.074 313.054L124.811 324.517C126.6 327.166 128.638 329.638 130.898 331.898L148.5 349.5" stroke="white" stroke-width="5" stroke-linecap="round"/>
<path d="M135 336L141.503 368.083C142.166 371.353 142.5 374.681 142.5 378.017V399.5L139.927 422.293C139.313 427.727 137.812 433.025 135.483 437.973L131 447.5" stroke="white" stroke-width="5" stroke-linecap="round"/>
<path d="M131 447.5L137.997 457.359C140.653 461.102 143.812 464.461 147.384 467.342L148.523 468.26C154.43 473.024 161.344 476.381 168.741 478.076L181.5 481L200.147 482.942C203.705 483.313 207.293 483.301 210.849 482.906L222.252 481.639C226.071 481.214 229.829 480.351 233.451 479.066L243.5 475.5" stroke="white" stroke-width="5" stroke-linecap="round"/>
<path d="M131 447L111.309 461.467C108.114 463.814 104.652 465.773 100.995 467.302L79 476.5L52.4801 490.412C49.8321 491.801 47.3139 493.425 44.956 495.264L26.8483 509.388C24.6201 511.126 22.5433 513.05 20.6401 515.139L3 534.5" stroke="white" stroke-width="5" stroke-linecap="round"/>
<path d="M246 477L307.5 510.5L334.861 525.202C338.934 527.39 342.684 530.133 346.003 533.351L357.5 544.5" stroke="white" stroke-width="5" stroke-linecap="round"/>
<path d="M127.5 452.5V479L130.5 504.5L136.5 543" stroke="white" stroke-width="5" stroke-linecap="round"/>
<path d="M128 487L160.5 528" stroke="white" stroke-width="5" stroke-linecap="round"/>
<path d="M188 483L174.971 496.029C171.345 499.655 168.299 503.817 165.939 508.369L165.842 508.555C163.626 512.829 162.038 517.401 161.129 522.129L160 528" stroke="white" stroke-width="5" stroke-linecap="round"/>
<path d="M204 485L211.699 493.982C214.55 497.309 216.888 501.043 218.635 505.061V505.061C220.205 508.671 221.282 512.475 221.839 516.371L223.5 528" stroke="white" stroke-width="5" stroke-linecap="round"/>
<path d="M245.5 505.5L224.5 527" stroke="white" stroke-width="5" stroke-linecap="round"/>
<path d="M154.5 215.5L148.702 212.09C146.933 211.049 144.918 210.5 142.865 210.5V210.5C139.464 210.5 136.237 212.004 134.049 214.608L130.394 218.959C128.159 221.62 126.536 224.741 125.64 228.099L122.688 239.169C121.568 243.372 121 247.703 121 252.052V256.253C121 261.053 121.774 265.821 123.292 270.375L125.185 276.055C126.375 279.624 128.469 282.829 131.259 285.354V285.354C135.273 288.985 140.497 291 145.91 291V291C148.937 291 151.931 290.37 154.701 289.151L163 285.5" stroke="white" stroke-width="5" stroke-linecap="round"/>
<path d="M163 286L174 327.5" stroke="white" stroke-width="5" stroke-linecap="round"/>
<path d="M174 327.5L240 393.5" stroke="white" stroke-width="5" stroke-linecap="round"/>
<path d="M304 326.5L321.512 324.356C326.133 323.79 330.819 324.056 335.346 325.143V325.143C339.095 326.043 342.689 327.494 346.012 329.448L358 336.5" stroke="white" stroke-width="5" stroke-linecap="round"/>
<path d="M322.5 341.5H328.5L334.5 342" stroke="white" stroke-width="5" stroke-linecap="round"/>
<path d="M345 229.5L346.237 240.636C346.743 245.19 347.873 249.653 349.595 253.9L354.5 266" stroke="white" stroke-width="5" stroke-linecap="round"/>
<path d="M336 274L354 266.5" stroke="white" stroke-width="5" stroke-linecap="round"/>
<path d="M236.5 180.5L244.145 178.971C247.374 178.325 250.658 178 253.951 178H268.5L313 183.5" stroke="white" stroke-width="5" stroke-linecap="round"/>
<path d="M275.192 209.081C274.741 209.025 274.961 208.874 275.192 208.758" stroke="white" stroke-width="15" stroke-linecap="round"/>
<path d="M379.327 215.226V214.902" stroke="white" stroke-width="15" stroke-linecap="round"/>
<path d="M101.5 105L63 72.5L100.5 67.5V34L129 44L142.5 6L168 51L101.5 105Z" fill="#F3E496" stroke="white" stroke-width="5" stroke-linecap="round"/>
<path d="M425.5 260L442 284M451 260L435 304.5M489.5 266V286.5V290.807C489.5 294.037 491.164 297.04 493.904 298.752V298.752C496.19 300.181 498.98 300.556 501.562 299.781L502.688 299.444C505.766 298.52 508.343 296.398 509.84 293.555L511.246 290.882C512.078 289.302 512.685 287.613 513.049 285.865L513.571 283.359C514.515 278.826 514.609 274.156 513.848 269.589L513.5 267.5M422 328L420.909 326.546C418.978 323.97 415.402 323.291 412.661 324.978V324.978C411.579 325.643 410.727 326.623 410.218 327.787L408.902 330.795C407.977 332.909 407.5 335.191 407.5 337.498V340.892C407.5 342.6 407.953 344.277 408.814 345.753L409.315 346.611C410.387 348.448 412.194 349.739 414.28 350.156V350.156C416.89 350.678 419.581 349.765 421.334 347.761L421.534 347.532C421.844 347.178 422.185 346.852 422.552 346.558L424.5 345" stroke="white" stroke-width="5" stroke-linecap="round"/>
<path d="M434 324V348.5" stroke="white" stroke-width="5" stroke-linecap="round"/>
<path d="M451 349H434.5" stroke="white" stroke-width="5" stroke-linecap="round"/>
<path d="M461 325V351" stroke="white" stroke-width="5" stroke-linecap="round"/>
<path d="M487.5 329L485.74 327.68C483.191 325.768 479.722 325.643 477.041 327.366V327.366C475.409 328.416 474.238 330.048 473.767 331.931L472.389 337.443C471.809 339.763 471.924 342.202 472.72 344.458L473.443 346.504C474.117 348.414 475.559 349.954 477.42 350.751V350.751C479.924 351.824 482.818 351.402 484.91 349.658L487.5 347.5M499 324.5V339.5M499 354.5V339.5M518 324.5L499 339.5" stroke="white" stroke-width="5" stroke-linecap="round"/>
<path d="M503.5 336.5L519 356.5" stroke="white" stroke-width="5" stroke-linecap="round"/>
<path d="M433 407.5L439 377.5" stroke="white" stroke-width="5" stroke-linecap="round"/>
<path d="M447 394L439 378" stroke="white" stroke-width="5" stroke-linecap="round"/>
<path d="M447 394L455 378" stroke="white" stroke-width="5" stroke-linecap="round"/>
<path d="M455 378.5L460 409" stroke="white" stroke-width="5" stroke-linecap="round"/>
<path d="M470 379.5L470.934 387.91C471.311 391.295 471.34 394.708 471.022 398.099L470 409" stroke="white" stroke-width="5" stroke-linecap="round"/>
<path d="M470 379.5L487.5 378" stroke="white" stroke-width="5" stroke-linecap="round"/>
<path d="M471.5 392.5H487.5" stroke="white" stroke-width="5" stroke-linecap="round"/>
<path d="M471 410L489.5 408.5" stroke="white" stroke-width="5" stroke-linecap="round"/>
<path d="M172 500L174.622 507.867C176.199 512.596 178.473 517.062 181.37 521.118L187 529" stroke="white" stroke-width="5" stroke-linecap="round"/>
<path d="M187 529.5L180 544" stroke="white" stroke-width="5" stroke-linecap="round"/>
<path d="M217.5 506L216.415 509.409C214.815 514.438 212.429 519.182 209.346 523.464L205 529.5" stroke="white" stroke-width="5" stroke-linecap="round"/>
<path d="M204 530.5L213 545" stroke="white" stroke-width="5" stroke-linecap="round"/>
<path d="M180 544L183.437 545.719C187.753 547.877 192.512 549 197.338 549V549C200.1 549 202.85 548.632 205.516 547.905L212.5 546" stroke="white" stroke-width="5" stroke-linecap="round"/>
<path d="M191.87 505.141C191.177 505.757 189.196 505.75 188.308 505.75C187.426 505.75 186.585 505.262 185.797 504.907C185.33 504.697 185.315 504.118 184.676 504.047C184.001 503.972 183.715 503.383 183.572 502.882C183.418 502.344 182.894 502.483 182.408 502.483C181.882 502.483 181.854 501.477 182.208 501.232C182.558 500.989 182.977 500.968 183.338 500.762C183.365 500.747 182.761 501.161 182.478 501.232C182.25 501.288 180.621 501.859 181.096 501.475C181.971 500.767 183.163 500.261 184.207 499.859C185.224 499.466 186.148 498.597 187.23 498.573C188.261 498.55 189.417 497.596 189.767 496.696C189.871 496.431 189.948 495.928 190.184 495.758C190.591 495.465 190.792 495.276 190.966 494.819C191.344 493.827 190.958 492.655 191.253 491.622C191.468 490.871 193.029 491.066 193.503 491.066C194.389 491.066 195.222 491.347 196.093 491.5C196.823 491.629 197.133 492.536 197.839 492.96C198.629 493.434 199.764 493.835 200.402 494.507C200.525 494.636 200.347 494.83 200.246 494.628C200.085 494.306 200.128 493.945 199.933 493.62C199.24 492.466 198.192 491.51 197.161 490.666C196.619 490.222 195.795 489.814 195.38 489.224C195.132 488.872 195.833 489.454 195.902 489.502C196.637 490.011 198.213 490.429 198.291 491.327C198.418 492.792 198.722 494.262 198.908 495.723C199.054 496.879 198.999 498.373 199.533 499.442C199.633 499.64 201.309 498.535 201.497 498.347C202.035 497.809 203.307 498.35 203.808 498.651C205.144 499.453 205.571 501.204 207.04 501.857C207.871 502.226 208.061 503.068 208.413 503.89C208.48 504.046 208.309 504.207 208.309 504.368C208.309 504.517 208.52 504.865 208.378 504.985C208.062 505.254 207.574 504.915 207.31 505.35C206.984 505.886 207.026 506.524 206.623 507.053C205.602 508.393 204.219 509.418 203.296 510.85C202.369 512.287 201.302 513.656 200.576 515.212C200.261 515.887 200.037 516.593 199.751 517.279C199.714 517.367 199.019 518.911 199.134 518.922C199.558 518.962 200.675 518.147 201.08 517.966C202.083 517.516 202.958 516.855 203.912 516.315C204.816 515.803 205.768 515.378 206.554 514.682C207.143 514.159 207.532 513.569 208.196 513.126C208.531 512.903 208.835 512.678 209.16 512.492C209.825 512.112 209.153 512.673 208.795 512.822C207.939 513.181 206.991 513.466 206.206 513.969C205.276 514.566 204.662 515.578 203.921 516.376C203.176 517.179 200.864 519.691 199.533 519.061C197.498 518.096 195.736 516.794 193.443 516.706C191.848 516.645 190.431 515.732 188.951 515.22C187.752 514.806 186.577 514.455 185.475 513.813C185.228 513.668 183.967 512.565 184.676 513.274" stroke="white" stroke-width="15" stroke-linecap="round"/>
<path d="M186.865 511.085C186.676 510.705 185.417 510.795 184.989 510.772C184.718 510.758 184.245 510.424 183.972 510.303C183.068 509.901 181.614 509.301 181.548 508.114C181.489 507.053 181.735 505.877 181.861 504.829C182.241 501.675 182.758 498.776 184.172 495.897C184.581 495.065 184.629 494.622 185.223 493.89C185.697 493.307 186.404 493.252 187.022 492.943" stroke="white" stroke-width="15" stroke-linecap="round"/>
<path d="M187.491 515.463C187.491 516.223 187.537 516.931 187.804 517.652C188.003 518.189 188.273 518.644 188.273 519.225C188.273 519.774 188.148 520.326 188.551 520.746C189.406 521.635 191.123 521.659 191.575 522.9C192.023 524.132 195.407 524.553 196.692 524.682C197.139 524.726 197.51 525.003 197.97 525.003C198.397 525.003 199.692 525.469 199.846 525.159" stroke="white" stroke-width="15" stroke-linecap="round"/>
<path d="M196.561 525.16C195.996 526.08 196.575 527.679 196.162 528.731C195.892 529.418 195.473 529.817 195.084 530.356C194.676 530.923 194.148 531.248 194.068 532.05C193.992 532.809 193.906 533.442 193.59 534.153C193.315 534.771 192.649 535.462 192.182 535.951C191.922 536.225 191.638 536.47 191.479 536.82C191.347 537.109 191.445 537.368 191.166 537.585C190.718 537.933 190.723 537.969 190.427 538.454C190.158 538.894 189.367 538.747 189.367 539.392" stroke="white" stroke-width="15" stroke-linecap="round"/>
<path d="M189.367 541.582C190.214 541.632 190.861 542.578 191.722 542.685C193.348 542.889 194.922 542.677 196.561 542.677C197.872 542.677 199.203 542.99 200.541 542.99C200.943 542.99 202.431 542.529 202.661 542.99" stroke="white" stroke-width="15" stroke-linecap="round"/>
<path d="M199.064 537.827C199.101 537.535 199.874 537.303 200.003 537.045" stroke="white" stroke-width="15" stroke-linecap="round"/>
<path d="M188 69.5H213.5" stroke="white" stroke-width="3" stroke-linecap="round"/>
<path d="M168 78.5H204.5" stroke="white" stroke-width="3" stroke-linecap="round"/>
<path d="M159 85H192.5M147 93.5H200.5M140 101.5H181M134 109H197M129.5 117H171.5M124 125.5H181M119 134H175.5M116 143H164.5M111.5 152.5H171.5M107 162H159M103.5 175H147M100 187H152.5M97 200H171.5M97 211H159M97 221H140M97 230H134" stroke="white" stroke-width="3" stroke-linecap="round"/>
<path d="M96 239.5H142M96 250H153.5M98.5 260.5H145M101 271.5H139M103.5 280H135M105.5 287H147M108 293.5H156M111.5 302.5H151.5M115.5 310.5H158.5M120.5 318.5H145M124.5 325H163.5M135 335.5H172M137 346.5H179.5M139 360.5H191.5M142 370.5H169M142 383.5H181.5M142 394H188.5M142 404H196.5M142 414H177M139 425H184.5" stroke="white" stroke-width="3" stroke-linecap="round"/>
<path d="M137.5 434.5H170M133 443.5H162.5M126 451.5H173M112 461.5H167M98.5 468.5H162.5M83.5 475H137.5M64 485H112M48.5 494H118M38 501.5H64M27.5 508.5H51.5M18.5 517.5H78.5M12.5 525H68.5M6.5 533H87" stroke="white" stroke-width="3" stroke-linecap="round"/>
</svg>
