<svg width="104" height="93" viewBox="0 0 104 93" fill="none" xmlns="http://www.w3.org/2000/svg">
<path d="M93.9716 46.382C93.9716 70.0692 74.7694 89.2714 51.0822 89.2714C27.3951 89.2714 8.19287 70.0692 8.19287 46.382C8.19287 22.6949 27.3951 3.49268 51.0822 3.49268C74.7694 3.49268 93.9716 22.6949 93.9716 46.382Z" fill="#D9D9D9"/>
<path d="M33.9264 6.13184H54.3814L70.2174 7.45151L79.4552 13.39L82.7543 25.2671L89.3527 28.5663L94.6314 35.8245L93.3117 48.3614L84.7338 51.6605H70.2174L64.9388 46.3818L64.2789 38.4638L59.0002 33.845H49.1027L43.824 35.8245L37.2256 47.0417H17.4305L10.1723 42.4228L8.85266 34.5048L11.492 27.2466L21.3896 19.9884L26.0084 12.0704L33.9264 6.13184Z" fill="#5B5B5B"/>
<path d="M41.6579 62.3175C41.5033 64.4985 39.6099 66.1413 37.4289 65.9867C35.2479 65.8321 33.6051 63.9387 33.7597 61.7577C33.9142 59.5767 35.8076 57.9339 37.9887 58.0885C40.1697 58.243 41.8125 60.1364 41.6579 62.3175Z" fill="black"/>
<path d="M69.3017 64.2774C69.1471 66.4585 67.2537 68.1012 65.0727 67.9467C62.8917 67.7921 61.2489 65.8987 61.4035 63.7177C61.558 61.5366 63.4514 59.8939 65.6325 60.0484C67.8135 60.203 69.4563 62.0964 69.3017 64.2774Z" fill="black"/>
<path fill-rule="evenodd" clip-rule="evenodd" d="M36.9298 74.0402C37.1955 72.9797 38.2705 72.3354 39.331 72.601C48.9471 75.0099 54.5607 75.2205 65.2586 73.9277C66.344 73.7965 67.3302 74.5701 67.4613 75.6554C67.5925 76.7408 66.819 77.727 65.7336 77.8581C54.6321 79.1997 48.5242 78.9854 38.369 76.4414C37.3085 76.1757 36.6641 75.1007 36.9298 74.0402Z" fill="black"/>
<path fill-rule="evenodd" clip-rule="evenodd" d="M55.5271 10.7588C56.6161 10.6626 57.5768 11.4675 57.673 12.5565L55.7013 12.7306C57.673 12.5565 57.673 12.5562 57.673 12.5565L57.6799 12.6362L57.6993 12.8635C57.7161 13.0628 57.7404 13.3563 57.7707 13.7356C57.8313 14.4942 57.9158 15.596 58.0119 16.9736C58.2042 19.7282 58.4432 23.5883 58.6301 28.0132C59.0031 36.8413 59.1731 48.0009 58.3321 57.1214C57.774 63.1743 56.7766 70.1512 55.9228 75.5956C55.4952 78.3219 55.1024 80.6723 54.8163 82.3417C54.6732 83.1765 54.5568 83.8413 54.476 84.298C54.4357 84.5264 54.4042 84.7028 54.3828 84.8224L54.3499 85.0052C54.3498 85.0053 54.3497 85.0061 52.402 84.6528L50.4543 84.2993L50.4858 84.124C50.5067 84.0072 50.5377 83.8339 50.5775 83.6087C50.6571 83.1582 50.7724 82.5003 50.9141 81.673C51.1978 80.0181 51.5875 77.6865 52.0116 74.9822C52.8611 69.5651 53.8433 62.6854 54.3898 56.7579C55.2057 47.9095 55.0458 36.9646 54.6747 28.1804C54.4895 23.7991 54.2529 19.9761 54.0625 17.2492C53.9674 15.886 53.8839 14.7975 53.8242 14.0508C53.7944 13.6775 53.7706 13.3897 53.7542 13.1959L53.7356 12.9767L53.7294 12.9054C53.6332 11.8164 54.438 10.8549 55.5271 10.7588ZM52.0486 86.6005C50.9729 86.4053 50.2591 85.375 50.4543 84.2993L52.402 84.6528L54.3499 85.0052C54.1547 86.0809 53.1243 86.7956 52.0486 86.6005Z" fill="black" fill-opacity="0.5"/>
<path fill-rule="evenodd" clip-rule="evenodd" d="M16.3775 49.9112C16.3775 49.9113 16.3774 49.9112 16.3775 49.9112L16.3902 49.9179L16.4347 49.9413C16.4748 49.9624 16.5357 49.9942 16.6164 50.0361C16.778 50.12 17.019 50.2443 17.3327 50.4037C17.9601 50.7224 18.8777 51.1812 20.0303 51.7371C22.3366 52.8494 25.5778 54.3475 29.3139 55.8893C36.8366 58.9938 46.1742 62.1939 53.898 62.8856C63.2576 63.7238 70.8232 62.9153 76.0267 61.9069C78.6285 61.4026 80.639 60.8486 81.9864 60.4258C82.66 60.2144 83.1677 60.036 83.5003 59.9131C83.6667 59.8517 83.7892 59.8042 83.8669 59.7735C83.8889 59.7647 83.9073 59.7574 83.9221 59.7514C83.9334 59.7469 83.9425 59.7431 83.9496 59.7402L83.964 59.7343C84.9713 59.3092 86.1324 59.7811 86.5575 60.7883C86.9826 61.7955 86.5107 62.9567 85.5035 63.3818L84.7338 61.558C85.5035 63.3818 85.5028 63.3821 85.5021 63.3824L85.5004 63.3831L85.4963 63.3848L85.4848 63.3896L85.4486 63.4045C85.4187 63.4167 85.3773 63.4335 85.3245 63.4544C85.2188 63.4962 85.0675 63.5547 84.8717 63.627C84.4801 63.7716 83.9104 63.9714 83.1716 64.2032C81.6941 64.6668 79.5393 65.2588 76.7799 65.7936C71.2611 66.8631 63.3206 67.7043 53.5449 66.8288C45.1955 66.0811 35.3979 62.6829 27.8036 59.5489C23.9812 57.9715 20.6685 56.4403 18.3105 55.3031C17.1309 54.7342 16.1888 54.2632 15.5395 53.9333C15.2149 53.7684 14.9633 53.6387 14.7919 53.5496C14.7061 53.5051 14.6404 53.4708 14.5955 53.4472L14.544 53.4201L14.5251 53.4101C14.5247 53.4099 14.5244 53.4098 15.4509 51.6605L14.5251 53.4101C13.559 52.8984 13.19 51.7 13.7017 50.7339C14.2134 49.7679 15.4114 49.3996 16.3775 49.9112Z" fill="black" fill-opacity="0.5"/>
<path fill-rule="evenodd" clip-rule="evenodd" d="M45.9945 6.49248C41.7967 6.3085 36.7705 6.74861 32.8147 8.99912C29.0487 11.1417 26.7424 13.9857 25.3752 16.2958C24.6913 17.4513 24.2456 18.4682 23.9736 19.1861C23.8378 19.5445 23.7458 19.827 23.6894 20.013C23.6612 20.1059 23.642 20.1746 23.6307 20.2165C23.625 20.2375 23.6214 20.2517 23.6195 20.2589L23.6185 20.263L23.6182 20.2643L23.3526 21.369L22.229 21.5121C22.2304 21.5119 22.2305 21.5119 22.229 21.5121L22.2017 21.5163C22.1722 21.5211 22.12 21.5301 22.0476 21.5447C21.9024 21.5739 21.6766 21.6252 21.3874 21.7093C20.8082 21.8777 19.9819 22.1756 19.0442 22.6862C17.1811 23.7006 14.854 25.5653 13.1314 28.9941C11.4743 32.2927 11.4057 35.343 11.7477 37.5769C11.9192 38.6973 12.1938 39.6078 12.4214 40.2297C12.535 40.54 12.636 40.7762 12.7052 40.9283C12.7397 41.0043 12.7662 41.0591 12.7822 41.0913C12.7902 41.1074 12.7956 41.1179 12.798 41.1226L12.7973 41.1213L12.7967 41.1202C12.7975 41.1217 12.7983 41.1233 12.7991 41.1248C13.2251 41.9295 12.9205 42.928 12.1167 43.3575C11.3109 43.7881 10.3087 43.484 9.87811 42.6782L11.3371 41.8986C9.87811 42.6782 9.87774 42.6775 9.87736 42.6768L9.87653 42.6752L9.87464 42.6717L9.86995 42.6628L9.85705 42.638C9.84692 42.6183 9.83379 42.5925 9.81799 42.5606C9.7864 42.4968 9.74408 42.4089 9.69366 42.2981C9.5929 42.0765 9.45941 41.7626 9.31456 41.3668C9.02537 40.5766 8.68771 39.4515 8.47739 38.0775C8.0557 35.3227 8.14529 31.5494 10.1752 27.5089C12.2419 23.395 15.0937 21.0701 17.4622 19.7806C18.6402 19.1392 19.6929 18.7566 20.4637 18.5325C20.5517 18.5069 20.6361 18.4833 20.7168 18.4617C20.7648 18.3241 20.819 18.1744 20.8799 18.0137C21.2084 17.1468 21.733 15.9542 22.5281 14.6108C24.1188 11.9231 26.8054 8.61161 31.1787 6.12353C35.9395 3.41507 41.7148 2.99335 46.1394 3.18728C48.3774 3.28537 50.3295 3.54403 51.7241 3.77829C52.4224 3.8956 52.9836 4.00724 53.374 4.09052C53.5693 4.13217 53.7221 4.16677 53.8282 4.19149C53.8813 4.20385 53.9227 4.21375 53.9519 4.22082L53.9866 4.22928L53.9969 4.23185L54.0016 4.23302C54.0021 4.23314 54.0025 4.23326 53.5997 5.83766L54.0016 4.23302C54.8877 4.45548 55.4266 5.35437 55.2041 6.24046C54.9818 7.12622 54.0837 7.66412 53.1979 7.44231C53.1978 7.44228 53.198 7.44233 53.1979 7.44231L53.1942 7.44138L53.1731 7.43623C53.153 7.43137 53.121 7.4237 53.0776 7.41358C52.9906 7.39333 52.8581 7.36326 52.684 7.32613C52.3357 7.25185 51.822 7.14948 51.176 7.04096C49.8819 6.82357 48.0677 6.58335 45.9945 6.49248Z" fill="black"/>
<path fill-rule="evenodd" clip-rule="evenodd" d="M57.9672 7.69629C57.9655 7.69681 57.9638 7.69732 57.9621 7.69783C57.9629 7.6976 57.9642 7.69723 57.966 7.69671L57.9635 7.69741L57.9621 7.69783C57.9613 7.69805 57.9619 7.6979 57.9621 7.69783C57.0903 7.96012 56.1697 7.46845 55.9035 6.59695C55.6367 5.72321 56.1286 4.79857 57.0024 4.53171L57.4856 6.11375C57.0024 4.53171 57.0033 4.53144 57.0042 4.53115L57.0062 4.53054L57.0108 4.52914L57.0225 4.52566L57.0555 4.51608C57.0817 4.50858 57.1163 4.49893 57.1591 4.4875C57.2448 4.46465 57.3635 4.43472 57.5135 4.40085C57.8133 4.33315 58.2388 4.24961 58.7764 4.17563C59.8513 4.02771 61.3777 3.91757 63.2461 4.04998C66.9942 4.31559 72.0834 5.55561 77.6239 9.36614C82.3152 12.5927 84.2614 16.3223 84.9811 19.3385C85.3365 20.8279 85.3862 22.113 85.3441 23.039C85.3421 23.0825 85.3399 23.1253 85.3376 23.1672C85.3747 23.1835 85.4124 23.2002 85.4507 23.2173C86.2706 23.583 87.3903 24.1437 88.6048 24.9306C91.014 26.4916 93.9166 29.0218 95.4827 32.8005C96.8675 36.1417 96.7285 40.0735 96.3222 43.0045C96.115 44.4991 95.8286 45.7981 95.5938 46.7248C95.4762 47.1891 95.3709 47.5625 95.2939 47.8232C95.2554 47.9536 95.2239 48.056 95.2014 48.1276C95.1902 48.1634 95.1812 48.1916 95.1747 48.2117L95.1669 48.2359L95.1644 48.2434L95.1636 48.246C95.1634 48.2464 95.163 48.2478 93.7858 47.7926L95.163 48.2478C94.8762 49.1152 93.9406 49.586 93.0732 49.2993C92.2062 49.0127 91.7355 48.0778 92.0213 47.2107C92.0214 47.2106 92.0213 47.2108 92.0213 47.2107C92.0214 47.2105 92.0217 47.2097 92.0217 47.2095L92.0258 47.1968L92.0447 47.1373C92.0619 47.0825 92.088 46.9978 92.121 46.8861C92.1871 46.6623 92.2808 46.3307 92.3867 45.9124C92.5991 45.0739 92.8584 43.8972 93.0451 42.5502C93.4267 39.7978 93.4688 36.5822 92.4264 34.0672C91.213 31.1395 88.9087 29.0696 86.8058 27.7071C85.7642 27.0322 84.8015 26.5503 84.1031 26.2388C83.7548 26.0834 83.4749 25.9717 83.2871 25.9004C83.1933 25.8647 83.1226 25.8393 83.0782 25.8237C83.056 25.8159 83.0404 25.8106 83.0317 25.8076L83.0269 25.806L83.0241 25.805L81.5706 25.3302L81.9313 23.8509C81.9322 23.8464 81.9342 23.8371 81.937 23.8231C81.9436 23.7901 81.9547 23.7313 81.9673 23.6487C81.9925 23.4834 82.0239 23.2245 82.0391 22.8889C82.0697 22.2165 82.0351 21.2461 81.7631 20.1064C81.2281 17.8645 79.7473 14.8419 75.7491 12.092C70.7379 8.64553 66.2267 7.57788 63.0122 7.35008C61.3994 7.23578 60.104 7.33251 59.2274 7.45313C58.7893 7.51341 58.4566 7.57957 58.2422 7.62798C58.1351 7.65218 58.0576 7.67191 58.0114 7.68422C57.9884 7.69037 57.9731 7.69466 57.966 7.69671L57.9672 7.69629Z" fill="black"/>
<path fill-rule="evenodd" clip-rule="evenodd" d="M11.0921 49.3567C11.0929 49.3569 11.0936 49.3571 10.6956 50.9587L11.0936 49.3571C11.9803 49.5774 12.5204 50.4748 12.3 51.3614C12.0796 52.248 11.1823 52.7881 10.2957 52.5678L10.6947 50.9624C10.2957 52.5678 10.2964 52.568 10.297 52.5681L10.2982 52.5684L10.2993 52.5687C10.2943 52.5675 10.2831 52.565 10.2663 52.5613C10.2326 52.5541 10.1765 52.5425 10.1013 52.5291C9.95017 52.502 9.72662 52.4681 9.45646 52.4449C8.90153 52.3974 8.22201 52.4017 7.58846 52.5561C6.96633 52.7077 6.4696 52.9817 6.12347 53.419C5.78302 53.8492 5.44075 54.6235 5.47473 56.0619C5.50047 57.1513 5.89694 57.805 6.43206 58.2656C7.02453 58.7756 7.89018 59.1292 8.91365 59.3402C9.92062 59.5478 10.952 59.5914 11.7512 59.5782C12.1458 59.5716 12.4725 59.5514 12.6965 59.5334C12.8083 59.5243 12.8938 59.5159 12.9487 59.5101C12.9761 59.5071 12.9959 59.5049 13.0073 59.5035L13.0172 59.5024L13.0189 59.5021L14.3174 59.3348L14.7768 60.5628L14.7782 60.5666L14.7851 60.5848C14.7916 60.6019 14.802 60.6289 14.8161 60.6653C14.8444 60.738 14.8877 60.8482 14.9458 60.9919C15.0621 61.2793 15.2372 61.7002 15.4684 62.2231C15.9313 63.2702 16.6161 64.7192 17.4999 66.32C19.2898 69.5616 21.8068 73.2599 24.8352 75.5837C32.7654 81.6688 38.4089 84.9918 48.189 86.0667C53.6349 86.6652 58.0154 86.6502 62.1272 85.8069C66.2279 84.9659 70.1576 83.281 74.6676 80.4158C78.2702 78.127 81.3019 75.1865 83.446 72.7922C84.5138 71.5998 85.3514 70.5542 85.9195 69.8104C86.2033 69.4387 86.4193 69.1432 86.5625 68.9432C86.6341 68.8432 86.6875 68.7672 86.722 68.7175L86.7596 68.6632L86.7676 68.6515L86.7684 68.6504L87.3435 67.8004L88.3586 67.9379L88.3597 67.9381L88.3731 67.9398C88.3862 67.9414 88.4079 67.9441 88.4378 67.9476C88.4976 67.9545 88.5896 67.9646 88.7094 67.9758C88.9493 67.9983 89.2981 68.0254 89.7198 68.0417C90.5719 68.0748 91.6814 68.0624 92.7769 67.8972C93.8948 67.7287 94.8587 67.4209 95.5261 66.9602C96.1275 66.5452 96.4968 66.0113 96.5562 65.1734C96.6282 64.1579 96.3646 63.4664 95.9886 62.9538C95.5887 62.4086 94.9893 61.9719 94.2789 61.6331C93.573 61.2963 92.834 61.093 92.2553 60.9751C91.9701 60.9171 91.7342 60.8818 91.5746 60.8614C91.495 60.8513 91.4351 60.8449 91.3983 60.8413L91.361 60.8379C91.3598 60.8379 91.3579 60.8377 91.3568 60.8376C90.4478 60.7706 89.7639 59.9807 89.8284 59.0709C89.893 58.1596 90.6841 57.4732 91.5954 57.5378L91.4784 59.1879C91.5954 57.5378 91.596 57.5379 91.5967 57.5379L91.5982 57.538L91.6018 57.5383L91.6108 57.539L91.6367 57.5411C91.6574 57.5428 91.6848 57.5452 91.7184 57.5485C91.7858 57.555 91.8786 57.565 91.993 57.5796C92.2214 57.6087 92.539 57.6566 92.9156 57.7333C93.6603 57.885 94.6777 58.1578 95.7033 58.647C96.7245 59.1341 97.8318 59.8731 98.6562 60.997C99.5044 62.1533 99.9827 63.624 99.8563 65.4073C99.7173 67.3681 98.729 68.7695 97.4054 69.683C96.148 70.5509 94.6197 70.9651 93.2702 71.1686C91.8984 71.3755 90.5653 71.3854 89.5916 71.3476C89.3497 71.3383 89.1274 71.3258 88.9295 71.3124C88.818 71.463 88.6909 71.6324 88.5487 71.8185C87.9372 72.6191 87.0448 73.7326 85.9106 74.9992C83.6506 77.5229 80.3904 80.6997 76.4417 83.2083C71.679 86.2341 67.3761 88.1076 62.7919 89.0478C58.219 89.9857 53.4626 89.9746 47.8275 89.3553C37.1942 88.1865 30.9795 84.4685 22.8212 78.2084C19.2467 75.4656 16.4634 71.2873 14.6037 67.9191C13.6628 66.2151 12.9355 64.6758 12.4426 63.5609C12.3322 63.3112 12.2334 63.0824 12.1464 62.8774C12.0382 62.8811 11.9245 62.8841 11.8061 62.8861C10.8646 62.9017 9.57184 62.8539 8.24554 62.5804C6.93575 62.3104 5.45894 61.7932 4.27383 60.7731C3.03139 59.7037 2.21519 58.1683 2.16728 56.14C2.1199 54.1347 2.59616 52.5449 3.52927 51.3659C4.45669 50.1941 5.68854 49.6139 6.80517 49.3418C7.91036 49.0725 8.97977 49.0836 9.73906 49.1486C10.126 49.1818 10.4509 49.2307 10.684 49.2724C10.8009 49.2933 10.8958 49.3126 10.965 49.3276C10.9997 49.3351 11.028 49.3415 11.0496 49.3465L11.0768 49.353L11.0866 49.3553L11.0904 49.3563L11.0921 49.3567ZM10.3023 52.5694L10.2993 52.5687C10.3019 52.5693 10.3029 52.5695 10.3023 52.5694Z" fill="black"/>
<path fill-rule="evenodd" clip-rule="evenodd" d="M32.0362 34.535C32.8376 34.9736 33.1318 35.9788 32.6932 36.7803L31.3227 36.0303C32.6932 36.7803 32.6933 36.7801 32.6932 36.7803L32.6899 36.7863L32.6828 36.7993L32.6571 36.8456C32.635 36.8853 32.6031 36.9422 32.5621 37.0146C32.4802 37.1592 32.3617 37.3656 32.2123 37.6183C31.9142 38.1229 31.4903 38.8171 30.9865 39.5761C30.0128 41.0432 28.6222 42.9366 27.1949 44.0782C25.7848 45.206 23.6985 46.0041 22.1381 46.5036C21.3259 46.7636 20.5922 46.9621 20.0613 47.0957C19.7952 47.1627 19.5784 47.2138 19.4263 47.2486C19.3502 47.266 19.2901 47.2793 19.248 47.2885L19.1985 47.2992L19.1843 47.3022L19.1799 47.3032L19.1784 47.3035C19.1781 47.3035 19.1773 47.3037 18.8379 45.6847L19.1784 47.3035C18.2842 47.4909 17.4064 46.9183 17.2189 46.0241C17.0315 45.1301 17.6042 44.2534 18.4981 44.0658L18.5062 44.0641L18.5416 44.0564C18.5741 44.0493 18.624 44.0382 18.6895 44.0233C18.8206 43.9933 19.0136 43.9479 19.2537 43.8874C19.7352 43.7662 20.3994 43.5865 21.1295 43.3527C22.6536 42.8649 24.2292 42.2138 25.1284 41.4946C26.1182 40.7029 27.2679 39.1962 28.2301 37.7465C28.6943 37.0471 29.0873 36.4037 29.364 35.9353C29.5021 35.7016 29.6106 35.5127 29.6837 35.3836C29.7203 35.3191 29.748 35.2696 29.7661 35.237L29.786 35.2011L29.7904 35.1932L29.7909 35.1921C30.2296 34.3908 31.2348 34.0965 32.0362 34.535Z" fill="black"/>
<path fill-rule="evenodd" clip-rule="evenodd" d="M49.6307 34.8498L49.6232 34.8531L49.59 34.868C49.5596 34.8817 49.513 34.9029 49.4522 34.931C49.3304 34.9873 49.1521 35.0711 48.9324 35.1784C48.4916 35.3938 47.8917 35.7003 47.2523 36.0653C46.6094 36.4323 45.9486 36.846 45.377 37.2737C44.787 37.7151 44.3792 38.1074 44.1621 38.4136C43.5492 39.2782 43.3662 40.1739 43.1108 41.4233C43.0893 41.5284 43.0673 41.6361 43.0445 41.7465C42.7646 43.1007 42.3538 44.8156 40.7951 46.2592C39.4229 47.5301 37.5317 48.0173 36.2054 48.2234C35.5083 48.3317 34.8863 48.374 34.4378 48.3896C34.2124 48.3975 34.0278 48.3986 33.8958 48.3977C33.8298 48.3973 33.7768 48.3963 33.7382 48.3953L33.6912 48.394L33.6761 48.3934L33.6707 48.3932L33.6686 48.3932C33.6682 48.3931 33.6668 48.3931 33.7345 46.7403L33.6668 48.3931C32.754 48.3557 32.0443 47.5854 32.0817 46.6726C32.119 45.7609 32.8875 45.0518 33.7988 45.0873C33.7991 45.0873 33.7986 45.0873 33.7988 45.0873C33.7994 45.0874 33.8008 45.0874 33.8014 45.0874C33.8014 45.0874 33.8014 45.0874 33.8014 45.0874L33.8201 45.0879C33.8401 45.0884 33.8735 45.0891 33.9189 45.0894C34.0099 45.0901 34.1483 45.0893 34.3229 45.0832C34.6744 45.071 35.1608 45.0376 35.6974 44.9542C36.8384 44.7769 37.9156 44.4167 38.547 43.8319C39.2895 43.1442 39.5426 42.3443 39.8046 41.0767C39.8285 40.9611 39.8525 40.8404 39.8774 40.7152C40.1112 39.5398 40.4244 37.9657 41.4631 36.5004C41.9718 35.7827 42.6957 35.1479 43.3951 34.6247C44.1127 34.0877 44.8988 33.5993 45.6121 33.1921C46.3288 32.7829 46.9944 32.4432 47.48 32.2059C47.7235 32.0869 47.9236 31.9928 48.0645 31.9277C48.1349 31.8952 48.1907 31.8698 48.2298 31.8522L48.2758 31.8315L48.289 31.8257L48.2944 31.8233C48.2947 31.8232 48.2954 31.8228 48.963 33.3363L48.2944 31.8233C49.1303 31.4545 50.1078 31.8328 50.4765 32.6687C50.8452 33.5044 50.4662 34.4809 49.6307 34.8498Z" fill="black"/>
<path fill-rule="evenodd" clip-rule="evenodd" d="M58.1489 35.1141L58.1553 35.1191L58.1841 35.1415C58.2104 35.162 58.2506 35.1937 58.303 35.2354C58.4079 35.319 58.5613 35.4428 58.7491 35.5993C59.1261 35.9132 59.6361 36.3534 60.1704 36.8599C60.7077 37.3691 61.2513 37.9279 61.705 38.4792C62.1732 39.0481 62.4761 39.526 62.6142 39.8751C63.0042 40.8605 62.9692 41.7741 62.9204 43.0483C62.9163 43.1556 62.9121 43.2654 62.9081 43.3781C62.8583 44.76 62.8499 46.5234 64.021 48.296C65.052 49.8565 66.7732 50.779 68.0126 51.2943C68.664 51.5651 69.2582 51.754 69.6902 51.8757C69.9073 51.9369 70.0863 51.9819 70.2147 52.0123C70.2789 52.0276 70.3307 52.0392 70.3684 52.0475L70.4144 52.0573L70.4291 52.0604L70.4344 52.0615L70.4365 52.0619C70.4369 52.062 70.4382 52.0622 70.7652 50.4407L70.4382 52.0622C71.3338 52.2428 72.2062 51.6632 72.3867 50.7676C72.5671 49.8731 71.9891 49.0018 71.0953 48.8198C71.0951 48.8197 71.0956 48.8198 71.0953 48.8198C71.0948 48.8196 71.0934 48.8194 71.0928 48.8193C71.0928 48.8193 71.0928 48.8193 71.0928 48.8193L71.0745 48.8153C71.055 48.811 71.0224 48.8037 70.9782 48.7933C70.8896 48.7723 70.7555 48.7387 70.5873 48.6913C70.2487 48.5959 69.7842 48.4479 69.2828 48.2394C68.2165 47.7961 67.2558 47.1903 66.7813 46.4723C66.2235 45.6279 66.1677 44.7907 66.2143 43.4972C66.2185 43.3792 66.2239 43.2563 66.2295 43.1287C66.2816 41.9314 66.3514 40.3279 65.6906 38.6578C65.3669 37.8398 64.8145 37.0512 64.2595 36.3768C63.6899 35.6848 63.0424 35.0236 62.4463 34.4586C61.8472 33.8909 61.2815 33.4027 60.8661 33.0569C60.6579 32.8835 60.4859 32.7445 60.3645 32.6478C60.3038 32.5995 60.2556 32.5616 60.2218 32.5351L60.182 32.5042L60.1706 32.4953L60.1659 32.4917C60.1657 32.4916 60.1651 32.4911 59.157 33.8026L60.1659 32.4917C59.4416 31.9349 58.4022 32.0702 57.8455 32.7945C57.2888 33.5187 57.4249 34.5573 58.1489 35.1141Z" fill="black"/>
<path fill-rule="evenodd" clip-rule="evenodd" d="M77.4921 38.7965L77.4944 38.8035L77.5052 38.8355C77.5151 38.8648 77.5305 38.9099 77.5511 38.9692C77.5924 39.0878 77.6544 39.2626 77.7351 39.4805C77.8969 39.9172 78.1321 40.522 78.4241 41.1914C79.0277 42.5753 79.803 44.0666 80.5976 44.9825C81.3922 45.8983 82.7593 46.8761 84.0441 47.6688C84.6657 48.0523 85.2312 48.3704 85.6408 48.5922C85.8451 48.7028 86.0094 48.7888 86.121 48.8464C86.1767 48.8752 86.2192 48.8968 86.2469 48.9108L86.277 48.9259L86.2834 48.9291C87.1018 49.3346 87.4373 50.3271 87.0319 51.1457C86.6264 51.9644 85.634 52.2994 84.8154 51.8939L85.5495 50.4116C84.8154 51.8939 84.8156 51.894 84.8154 51.8939L84.8095 51.891L84.7974 51.885L84.7554 51.8639C84.7197 51.8458 84.6687 51.8199 84.6041 51.7865C84.4749 51.7199 84.291 51.6235 84.0653 51.5013C83.6149 51.2574 82.9935 50.908 82.307 50.4844C80.9756 49.663 79.242 48.4683 78.0987 47.1506C76.9554 45.8329 76.0171 43.9481 75.3916 42.5142C75.0691 41.7747 74.8108 41.1102 74.6328 40.6299C74.5437 40.3892 74.4742 40.1936 74.4265 40.0563C74.4026 39.9876 74.3841 39.9335 74.3713 39.8956L74.3563 39.851L74.352 39.8382L74.3503 39.8329C74.3502 39.8327 74.3499 39.832 75.921 39.3142L74.3503 39.8329C74.0643 38.9652 74.5356 38.0291 75.4033 37.7432C76.2708 37.4573 77.2059 37.9291 77.4921 38.7965Z" fill="black"/>
</svg>
