<svg width="64" height="63" viewBox="0 0 64 63" fill="none" xmlns="http://www.w3.org/2000/svg">
<path fill-rule="evenodd" clip-rule="evenodd" d="M32.3334 59C47.4508 59 59.7059 46.7449 59.7059 31.6275C59.7059 16.51 47.4508 4.25491 32.3334 4.25491C17.2159 4.25491 4.96082 16.51 4.96082 31.6275C4.96082 46.7449 17.2159 59 32.3334 59ZM32.3334 63C49.6599 63 63.7059 48.954 63.7059 31.6275C63.7059 14.3009 49.6599 0.254913 32.3334 0.254913C15.0068 0.254913 0.960815 14.3009 0.960815 31.6275C0.960815 48.954 15.0068 63 32.3334 63Z" fill="white"/>
<path fill-rule="evenodd" clip-rule="evenodd" d="M48.902 20.9216H15.7647C15.2124 20.9216 14.7647 21.3693 14.7647 21.9216V40.3529C14.7647 40.9052 15.2124 41.3529 15.7647 41.3529H48.902C49.4543 41.3529 49.902 40.9052 49.902 40.353V21.9216C49.902 21.3693 49.4543 20.9216 48.902 20.9216ZM15.7647 16.9216C13.0033 16.9216 10.7647 19.1601 10.7647 21.9216V40.3529C10.7647 43.1144 13.0033 45.3529 15.7647 45.3529H48.902C51.6634 45.3529 53.902 43.1144 53.902 40.353V21.9216C53.902 19.1602 51.6634 16.9216 48.902 16.9216H15.7647Z" fill="white"/>
<path fill-rule="evenodd" clip-rule="evenodd" d="M32.3334 29.003L45.8802 21.4118L18.7865 21.4118L32.3334 29.003ZM30.8668 32.7664C31.7779 33.277 32.8889 33.277 33.7999 32.7664L51.1769 23.0289C53.8723 21.5185 52.8001 17.4118 49.7104 17.4118L14.9563 17.4118C11.8666 17.4118 10.7944 21.5185 13.4898 23.0289L30.8668 32.7664Z" fill="white"/>
</svg>
