<svg width="87" height="107" viewBox="0 0 87 107" fill="none" xmlns="http://www.w3.org/2000/svg">
<path d="M35.0292 23.6626L40.1386 20.1117C43.9117 17.4895 48.4069 16.1058 53.0014 16.1522L53.708 16.1593C57.7697 16.2003 61.7632 17.5132 65.074 19.8664V19.8664C68.8385 22.542 71.5847 26.4952 72.7407 30.9667L72.953 31.7877C73.6778 34.5911 73.6493 37.5362 72.8705 40.3251V40.3251C71.3821 45.6544 67.3126 49.8776 62.0421 51.5624L57.374 53.0546C55.0152 53.8086 52.7785 54.9019 50.7345 56.3L50.0514 56.7673C47.0147 58.8444 44.3696 61.4424 42.2382 64.4411L41.8988 64.9187C39.8441 67.8097 38.2478 71.0004 37.1664 74.3782L35.2786 80.2748" stroke-width="5" stroke-linecap="round"/>
<path d="M31.0772 97.4366L30.6318 97.3047" stroke-width="5" stroke-linecap="round"/>
</svg>
