<svg width="521" height="552" viewBox="0 0 521 552" fill="none" xmlns="http://www.w3.org/2000/svg">
<path d="M245.5 478V497L241.252 527.162C240.752 530.711 239.872 534.195 238.628 537.555L235.5 546" stroke="black" stroke-width="5" stroke-linecap="round"/>
<path d="M243 475L247.181 459.036C248.058 455.688 249.28 452.439 250.828 449.344L255.015 440.971C257.646 435.708 261.288 431.017 265.734 427.164V427.164C271.165 422.457 277.649 419.127 284.638 417.456L287.499 416.772C293.759 415.275 300.268 415.154 306.579 416.416L307.923 416.685C318.544 418.809 329.574 416.662 338.623 410.709V410.709C341.858 408.58 344.777 406.006 347.293 403.062L363.247 384.392C365.741 381.474 367.89 378.278 369.653 374.867L388.364 338.666C389.453 336.558 390.391 334.375 391.171 332.134L400.487 305.35C401.493 302.456 402.232 299.476 402.693 296.446L404.449 284.906C405.146 280.324 405.203 275.668 404.618 271.071L402 250.5L400.265 243.561C398.768 237.572 398.393 231.358 399.158 225.232L402 202.5V180.88C402 174.681 400.847 168.536 398.6 162.758L387.363 133.863C385.466 128.984 382.815 124.434 379.506 120.379L358.627 94.7841C355.231 90.6219 351.187 87.034 346.65 84.1585L322.855 69.0774C319.629 67.0325 316.179 65.3641 312.573 64.1048L291.979 56.9132C288.338 55.642 284.563 54.7961 280.729 54.3925L255.84 51.7726C250.973 51.2603 246.057 51.4653 241.25 52.381L212.802 57.7996C208.618 58.5966 204.553 59.925 200.705 61.7526L172.246 75.2708C168.431 77.083 164.861 79.3712 161.621 82.0809L145.104 95.8945C141.06 99.2769 137.577 103.278 134.782 107.748L121.466 129.054C119.826 131.679 118.432 134.451 117.304 137.334L105.5 167.5L97.0668 200.389C96.0264 204.447 95.5 208.619 95.5 212.808V241.353C95.5 244.444 95.7867 247.529 96.3564 250.567L100.624 273.33C101.207 276.436 102.082 279.48 103.24 282.422L111.488 303.387C112.825 306.785 114.531 310.027 116.574 313.054L124.311 324.517C126.1 327.166 128.138 329.638 130.398 331.898L148 349.5" stroke="black" stroke-width="5" stroke-linecap="round"/>
<path d="M134.5 336L141.003 368.083C141.666 371.353 142 374.681 142 378.017V399.5L139.427 422.293C138.813 427.727 137.312 433.025 134.983 437.973L130.5 447.5" stroke="black" stroke-width="5" stroke-linecap="round"/>
<path d="M130.5 447.5L137.497 457.359C140.153 461.102 143.312 464.461 146.884 467.342L148.023 468.26C153.93 473.024 160.844 476.381 168.241 478.076L181 481L199.647 482.942C203.205 483.313 206.793 483.301 210.349 482.906L221.752 481.639C225.571 481.214 229.329 480.351 232.951 479.066L243 475.5" stroke="black" stroke-width="5" stroke-linecap="round"/>
<path d="M130.5 447L110.809 461.467C107.614 463.814 104.152 465.773 100.495 467.302L78.5 476.5L51.9801 490.412C49.3321 491.801 46.8139 493.425 44.456 495.264L26.3483 509.388C24.1201 511.126 22.0433 513.05 20.1401 515.139L2.5 534.5" stroke="black" stroke-width="5" stroke-linecap="round"/>
<path d="M245.5 477L307 510.5L334.361 525.202C338.434 527.39 342.184 530.133 345.503 533.351L357 544.5" stroke="black" stroke-width="5" stroke-linecap="round"/>
<path d="M127 452.5V479L130 504.5L136 543" stroke="black" stroke-width="5" stroke-linecap="round"/>
<path d="M127.5 487L160 528" stroke="black" stroke-width="5" stroke-linecap="round"/>
<path d="M187.5 483L174.471 496.029C170.845 499.655 167.799 503.817 165.439 508.369L165.342 508.555C163.126 512.829 161.538 517.401 160.629 522.129L159.5 528" stroke="black" stroke-width="5" stroke-linecap="round"/>
<path d="M203.5 485L211.199 493.982C214.05 497.309 216.388 501.043 218.135 505.061V505.061C219.705 508.671 220.782 512.475 221.339 516.371L223 528" stroke="black" stroke-width="5" stroke-linecap="round"/>
<path d="M245 505.5L224 527" stroke="black" stroke-width="5" stroke-linecap="round"/>
<path d="M154 215.5L148.202 212.09C146.433 211.049 144.418 210.5 142.365 210.5V210.5C138.964 210.5 135.737 212.004 133.549 214.608L129.894 218.959C127.659 221.62 126.036 224.741 125.14 228.099L122.188 239.169C121.068 243.372 120.5 247.703 120.5 252.052V256.253C120.5 261.053 121.274 265.821 122.792 270.375L124.685 276.055C125.875 279.624 127.969 282.829 130.759 285.354V285.354C134.773 288.985 139.997 291 145.41 291V291C148.437 291 151.431 290.37 154.201 289.151L162.5 285.5" stroke="black" stroke-width="5" stroke-linecap="round"/>
<path d="M162.5 286L173.5 327.5" stroke="black" stroke-width="5" stroke-linecap="round"/>
<path d="M173.5 327.5L239.5 393.5" stroke="black" stroke-width="5" stroke-linecap="round"/>
<path d="M303.5 326.5L321.012 324.356C325.633 323.79 330.319 324.056 334.846 325.143V325.143C338.595 326.043 342.189 327.494 345.512 329.448L357.5 336.5" stroke="black" stroke-width="5" stroke-linecap="round"/>
<path d="M322 341.5H328L334 342" stroke="black" stroke-width="5" stroke-linecap="round"/>
<path d="M344.5 229.5L345.737 240.636C346.243 245.19 347.373 249.653 349.095 253.9L354 266" stroke="black" stroke-width="5" stroke-linecap="round"/>
<path d="M335.5 274L353.5 266.5" stroke="black" stroke-width="5" stroke-linecap="round"/>
<path d="M236 180.5L243.645 178.971C246.874 178.325 250.158 178 253.451 178H268L312.5 183.5" stroke="black" stroke-width="5" stroke-linecap="round"/>
<path d="M274.692 209.081C274.241 209.025 274.461 208.874 274.692 208.758" stroke="black" stroke-width="15" stroke-linecap="round"/>
<path d="M378.827 215.226V214.902" stroke="black" stroke-width="15" stroke-linecap="round"/>
<path d="M101 105L62.5 72.5L100 67.5V34L128.5 44L142 6L167.5 51L101 105Z" fill="#F3E496" stroke="black" stroke-width="5" stroke-linecap="round"/>
<path d="M425 260L441.5 284M450.5 260L434.5 304.5M489 266V286.5V290.807C489 294.037 490.664 297.04 493.404 298.752V298.752C495.69 300.181 498.48 300.556 501.062 299.781L502.188 299.444C505.266 298.52 507.843 296.398 509.34 293.555L510.746 290.882C511.578 289.302 512.185 287.613 512.549 285.865L513.071 283.359C514.015 278.826 514.109 274.156 513.348 269.589L513 267.5M421.5 328L420.409 326.546C418.478 323.97 414.902 323.291 412.161 324.978V324.978C411.079 325.643 410.227 326.623 409.718 327.787L408.402 330.795C407.477 332.909 407 335.191 407 337.498V340.892C407 342.6 407.453 344.277 408.314 345.753L408.815 346.611C409.887 348.448 411.694 349.739 413.78 350.156V350.156C416.39 350.678 419.081 349.765 420.834 347.761L421.034 347.532C421.344 347.178 421.685 346.852 422.052 346.558L424 345" stroke="black" stroke-width="5" stroke-linecap="round"/>
<path d="M433.5 324V348.5" stroke="black" stroke-width="5" stroke-linecap="round"/>
<path d="M450.5 349H434" stroke="black" stroke-width="5" stroke-linecap="round"/>
<path d="M460.5 325V351" stroke="black" stroke-width="5" stroke-linecap="round"/>
<path d="M487 329L485.24 327.68C482.691 325.768 479.222 325.643 476.541 327.366V327.366C474.909 328.416 473.738 330.048 473.267 331.931L471.889 337.443C471.309 339.763 471.424 342.202 472.22 344.458L472.943 346.504C473.617 348.414 475.059 349.954 476.92 350.751V350.751C479.424 351.824 482.318 351.402 484.41 349.658L487 347.5M498.5 324.5V339.5M498.5 354.5V339.5M517.5 324.5L498.5 339.5" stroke="black" stroke-width="5" stroke-linecap="round"/>
<path d="M503 336.5L518.5 356.5" stroke="black" stroke-width="5" stroke-linecap="round"/>
<path d="M432.5 407.5L438.5 377.5" stroke="black" stroke-width="5" stroke-linecap="round"/>
<path d="M446.5 394L438.5 378" stroke="black" stroke-width="5" stroke-linecap="round"/>
<path d="M446.5 394L454.5 378" stroke="black" stroke-width="5" stroke-linecap="round"/>
<path d="M454.5 378.5L459.5 409" stroke="black" stroke-width="5" stroke-linecap="round"/>
<path d="M469.5 379.5L470.434 387.91C470.811 391.295 470.84 394.708 470.522 398.099L469.5 409" stroke="black" stroke-width="5" stroke-linecap="round"/>
<path d="M469.5 379.5L487 378" stroke="black" stroke-width="5" stroke-linecap="round"/>
<path d="M471 392.5H487" stroke="black" stroke-width="5" stroke-linecap="round"/>
<path d="M470.5 410L489 408.5" stroke="black" stroke-width="5" stroke-linecap="round"/>
<path d="M171.5 500L174.122 507.867C175.699 512.596 177.973 517.062 180.87 521.118L186.5 529" stroke="black" stroke-width="5" stroke-linecap="round"/>
<path d="M186.5 529.5L179.5 544" stroke="black" stroke-width="5" stroke-linecap="round"/>
<path d="M217 506L215.915 509.409C214.315 514.438 211.929 519.182 208.846 523.464L204.5 529.5" stroke="black" stroke-width="5" stroke-linecap="round"/>
<path d="M203.5 530.5L212.5 545" stroke="black" stroke-width="5" stroke-linecap="round"/>
<path d="M179.5 544L182.937 545.719C187.253 547.877 192.012 549 196.838 549V549C199.6 549 202.35 548.632 205.016 547.905L212 546" stroke="black" stroke-width="5" stroke-linecap="round"/>
<path d="M191.37 505.141C190.677 505.757 188.696 505.75 187.808 505.75C186.926 505.75 186.085 505.262 185.297 504.907C184.83 504.697 184.815 504.118 184.176 504.047C183.501 503.972 183.215 503.383 183.072 502.882C182.918 502.344 182.394 502.483 181.908 502.483C181.382 502.483 181.354 501.477 181.708 501.232C182.058 500.989 182.477 500.968 182.838 500.762C182.865 500.747 182.261 501.161 181.978 501.232C181.75 501.288 180.121 501.859 180.596 501.475C181.471 500.767 182.663 500.261 183.707 499.859C184.724 499.466 185.648 498.597 186.73 498.573C187.761 498.55 188.917 497.596 189.267 496.696C189.371 496.431 189.448 495.928 189.684 495.758C190.091 495.465 190.292 495.276 190.466 494.819C190.844 493.827 190.458 492.655 190.753 491.622C190.968 490.871 192.529 491.066 193.003 491.066C193.889 491.066 194.722 491.347 195.593 491.5C196.323 491.629 196.633 492.536 197.339 492.96C198.129 493.434 199.264 493.835 199.902 494.507C200.025 494.636 199.847 494.83 199.746 494.628C199.585 494.306 199.628 493.945 199.433 493.62C198.74 492.466 197.692 491.51 196.661 490.666C196.119 490.222 195.295 489.814 194.88 489.224C194.632 488.872 195.333 489.454 195.402 489.502C196.137 490.011 197.713 490.429 197.791 491.327C197.918 492.792 198.222 494.262 198.408 495.723C198.554 496.879 198.499 498.373 199.033 499.442C199.133 499.64 200.809 498.535 200.997 498.347C201.535 497.809 202.807 498.35 203.308 498.651C204.644 499.453 205.071 501.204 206.54 501.857C207.371 502.226 207.561 503.068 207.913 503.89C207.98 504.046 207.809 504.207 207.809 504.368C207.809 504.517 208.02 504.865 207.878 504.985C207.562 505.254 207.074 504.915 206.81 505.35C206.484 505.886 206.526 506.524 206.123 507.053C205.102 508.393 203.719 509.418 202.796 510.85C201.869 512.287 200.802 513.656 200.076 515.212C199.761 515.887 199.537 516.593 199.251 517.279C199.214 517.367 198.519 518.911 198.634 518.922C199.058 518.962 200.175 518.147 200.58 517.966C201.583 517.516 202.458 516.855 203.412 516.315C204.316 515.803 205.268 515.378 206.054 514.682C206.643 514.159 207.032 513.569 207.696 513.126C208.031 512.903 208.335 512.678 208.66 512.492C209.325 512.112 208.653 512.673 208.295 512.822C207.439 513.181 206.491 513.466 205.706 513.969C204.776 514.566 204.162 515.578 203.421 516.376C202.676 517.179 200.364 519.691 199.033 519.061C196.998 518.096 195.236 516.794 192.943 516.706C191.348 516.645 189.931 515.732 188.451 515.22C187.252 514.806 186.077 514.455 184.975 513.813C184.728 513.668 183.467 512.565 184.176 513.274" stroke="black" stroke-width="15" stroke-linecap="round"/>
<path d="M186.365 511.085C186.176 510.705 184.917 510.795 184.489 510.772C184.218 510.758 183.745 510.424 183.472 510.303C182.568 509.901 181.114 509.301 181.048 508.114C180.989 507.053 181.235 505.877 181.361 504.829C181.741 501.675 182.258 498.776 183.672 495.897C184.081 495.065 184.129 494.622 184.723 493.89C185.197 493.307 185.904 493.252 186.522 492.943" stroke="black" stroke-width="15" stroke-linecap="round"/>
<path d="M186.991 515.463C186.991 516.223 187.037 516.931 187.304 517.652C187.503 518.189 187.773 518.644 187.773 519.225C187.773 519.774 187.648 520.326 188.051 520.746C188.906 521.635 190.623 521.659 191.075 522.9C191.523 524.132 194.907 524.553 196.192 524.682C196.639 524.726 197.01 525.003 197.47 525.003C197.897 525.003 199.192 525.469 199.346 525.159" stroke="black" stroke-width="15" stroke-linecap="round"/>
<path d="M196.061 525.16C195.496 526.08 196.075 527.679 195.662 528.731C195.392 529.418 194.973 529.817 194.584 530.356C194.176 530.923 193.648 531.248 193.568 532.05C193.492 532.809 193.406 533.442 193.09 534.153C192.815 534.771 192.149 535.462 191.682 535.951C191.422 536.225 191.138 536.47 190.979 536.82C190.847 537.109 190.945 537.368 190.666 537.585C190.218 537.933 190.223 537.969 189.927 538.454C189.658 538.894 188.867 538.747 188.867 539.392" stroke="black" stroke-width="15" stroke-linecap="round"/>
<path d="M188.867 541.582C189.714 541.632 190.361 542.578 191.222 542.685C192.848 542.889 194.422 542.677 196.061 542.677C197.372 542.677 198.703 542.99 200.041 542.99C200.443 542.99 201.931 542.529 202.161 542.99" stroke="black" stroke-width="15" stroke-linecap="round"/>
<path d="M198.564 537.827C198.601 537.535 199.374 537.303 199.503 537.045" stroke="black" stroke-width="15" stroke-linecap="round"/>
<path d="M187.5 69.5H213" stroke="black" stroke-width="3" stroke-linecap="round"/>
<path d="M167.5 78.5H204" stroke="black" stroke-width="3" stroke-linecap="round"/>
<path d="M158.5 85H192M146.5 93.5H200M139.5 101.5H180.5M133.5 109H196.5M129 117H171M123.5 125.5H180.5M118.5 134H175M115.5 143H164M111 152.5H171M106.5 162H158.5M103 175H146.5M99.5 187H152M96.5 200H171M96.5 211H158.5M96.5 221H139.5M96.5 230H133.5" stroke="black" stroke-width="3" stroke-linecap="round"/>
<path d="M95.5 239.5H141.5M95.5 250H153M98 260.5H144.5M100.5 271.5H138.5M103 280H134.5M105 287H146.5M107.5 293.5H155.5M111 302.5H151M115 310.5H158M120 318.5H144.5M124 325H163M134.5 335.5H171.5M136.5 346.5H179M138.5 360.5H191M141.5 370.5H168.5M141.5 383.5H181M141.5 394H188M141.5 404H196M141.5 414H176.5M138.5 425H184" stroke="black" stroke-width="3" stroke-linecap="round"/>
<path d="M137 434.5H169.5M132.5 443.5H162M125.5 451.5H172.5M111.5 461.5H166.5M98 468.5H162M83 475H137M63.5 485H111.5M48 494H117.5M37.5 501.5H63.5M27 508.5H51M18 517.5H78M12 525H68M6 533H86.5" stroke="black" stroke-width="3" stroke-linecap="round"/>
</svg>
