<svg width="164" height="113" viewBox="0 0 164 113" fill="none" xmlns="http://www.w3.org/2000/svg">
<path d="M147.855 71.4884L160.996 29.3277C160.996 29.3277 141.832 28.6653 135.809 25.7401C127.337 21.6257 124.287 14.5123 116.097 9.86146C108.742 5.68426 94.1957 1.95068 94.1957 1.95068L78.3171 41.9212C78.3171 41.9212 109.04 63.8228 123.763 69.8457C137.999 75.6696 147.855 71.4884 147.855 71.4884Z" fill="#031A2F"/>
<path fill-rule="evenodd" clip-rule="evenodd" d="M93.2033 0L94.6042 0.359592L94.1959 1.95064C94.6042 0.359592 94.604 0.359534 94.6042 0.359592L94.6499 0.371398L94.7771 0.404534C94.8881 0.433601 95.0508 0.476492 95.2598 0.532405C95.6777 0.64422 96.2812 0.808178 97.0278 1.01785C98.5201 1.437 100.587 2.03982 102.888 2.77487C107.452 4.23284 113.07 6.25311 116.909 8.43305C120.998 10.7555 123.872 13.6648 126.553 16.3791C126.707 16.5355 126.861 16.6913 127.015 16.8463C129.853 19.7131 132.564 22.3382 136.527 24.2625C137.815 24.8883 139.951 25.4478 142.575 25.9178C145.157 26.3803 148.069 26.7323 150.818 26.9957C153.563 27.2587 156.124 27.4315 158.001 27.5385C158.939 27.592 159.704 27.6289 160.234 27.6525C160.498 27.6643 160.704 27.6727 160.844 27.6782L161.001 27.6842L161.052 27.686L163.205 27.7604L149.197 72.7034L148.496 73.0005L147.855 71.4883C148.496 73.0005 148.496 73.0008 148.495 73.0012L148.489 73.0038L148.477 73.0086L148.443 73.0225C148.416 73.0336 148.379 73.0484 148.332 73.0663C148.239 73.1022 148.108 73.1509 147.941 73.2088C147.607 73.3246 147.126 73.4776 146.51 73.6394C145.277 73.9629 143.502 74.3221 141.27 74.489C136.8 74.8233 130.519 74.3843 123.141 71.366C115.612 68.2858 104.123 61.2161 94.6199 54.9994C89.8449 51.8759 85.5326 48.9419 82.4145 46.7891C81.0658 45.858 79.94 45.0726 79.0961 44.4809L53.0217 112.594L49.9536 111.419L76.7868 41.3242L93.2033 0ZM80.321 41.3263C80.412 41.3904 80.5086 41.4584 80.6106 41.5301C81.4761 42.1384 82.73 43.0148 84.281 44.0856C87.3835 46.2276 91.6722 49.1455 96.4183 52.2502C105.957 58.4901 117.192 65.3827 124.385 68.3254C131.243 71.131 137.008 71.5133 141.025 71.2129C143.037 71.0625 144.615 70.7403 145.675 70.4619C146.015 70.3728 146.301 70.2882 146.531 70.2153L158.794 30.8719C158.493 30.8562 158.165 30.8385 157.814 30.8184C155.909 30.7098 153.303 30.5342 150.504 30.2659C147.709 29.9981 144.7 29.636 141.996 29.1516C139.333 28.6746 136.814 28.0545 135.091 27.2177C130.582 25.0275 127.532 22.0387 124.68 19.1575C124.546 19.0219 124.412 18.8865 124.279 18.7515C121.555 15.9962 118.97 13.3818 115.286 11.2898C111.769 9.29252 106.437 7.35741 101.888 5.90429C99.6332 5.1838 97.6043 4.59214 96.1394 4.18071C95.7859 4.08143 95.4655 3.9927 95.1829 3.91525L80.321 41.3263Z" fill="#031A2F"/>
<path d="M101.426 2.92578L117.681 10.8557L113.725 18.9663L97.4692 11.0364L101.426 2.92578Z" fill="white"/>
<path d="M133.071 24.3998L149.372 28.3637L146.564 34.119L131.897 26.9641L133.071 24.3998Z" fill="white"/>
<path d="M114.579 19.4717L130.834 27.4016L123.352 42.7389L107.097 34.809L114.579 19.4717Z" fill="white"/>
<path d="M123.579 42.4688L140.622 50.7825L133.729 64.9121L116.687 56.5984L123.579 42.4688Z" fill="white"/>
<path d="M147.787 36.8032L157.163 41.9209L152.245 55.0469L141.455 49.7836L147.787 36.8032Z" fill="white"/>
<path d="M133.874 66.818L143.475 71.4878L142.379 72.583L131.976 71.488L133.874 66.818Z" fill="white"/>
<path fill-rule="evenodd" clip-rule="evenodd" d="M93.2033 0L94.6042 0.359592L94.1959 1.95064C94.6042 0.359592 94.604 0.359534 94.6042 0.359592L94.6499 0.371398L94.7771 0.404534C94.8881 0.433601 95.0508 0.476492 95.2598 0.532405C95.6777 0.64422 96.2812 0.808178 97.0278 1.01785C98.5201 1.437 100.587 2.03982 102.888 2.77487C107.452 4.23284 113.07 6.25311 116.909 8.43305C120.998 10.7555 123.872 13.6648 126.553 16.3791C126.707 16.5355 126.861 16.6913 127.015 16.8463C129.853 19.7131 132.564 22.3382 136.527 24.2625C137.815 24.8883 139.951 25.4478 142.575 25.9178C145.157 26.3803 148.069 26.7323 150.818 26.9957C153.563 27.2587 156.124 27.4315 158.001 27.5385C158.939 27.592 159.704 27.6289 160.234 27.6525C160.498 27.6643 160.704 27.6727 160.844 27.6782L161.001 27.6842L161.052 27.686L163.205 27.7604L149.197 72.7034L148.496 73.0005L147.855 71.4883C148.496 73.0005 148.496 73.0008 148.495 73.0012L148.489 73.0038L148.477 73.0086L148.443 73.0225C148.421 73.0313 148.394 73.0424 148.36 73.0556C148.351 73.059 148.342 73.0626 148.332 73.0663C148.239 73.1022 148.108 73.1509 147.941 73.2088C147.607 73.3246 147.126 73.4776 146.51 73.6394C145.277 73.9629 143.502 74.3221 141.27 74.489C136.8 74.8233 130.519 74.3843 123.141 71.366C115.612 68.2858 104.123 61.2161 94.6199 54.9994C89.8449 51.8759 85.5326 48.9419 82.4145 46.7891C81.0658 45.858 79.94 45.0726 79.0961 44.4809L53.0217 112.594L49.9536 111.419L76.7868 41.3242L93.2033 0ZM80.321 41.3263C80.412 41.3904 80.5086 41.4584 80.6106 41.5301C81.4761 42.1384 82.73 43.0148 84.281 44.0856C87.3835 46.2276 91.6722 49.1455 96.4183 52.2502C105.957 58.4901 117.192 65.3827 124.385 68.3254C131.243 71.131 137.008 71.5133 141.025 71.2129C143.037 71.0625 144.615 70.7403 145.675 70.4619C146.015 70.3728 146.301 70.2882 146.531 70.2153L158.794 30.8719C158.493 30.8562 158.165 30.8385 157.814 30.8184C155.909 30.7098 153.303 30.5342 150.504 30.2659C147.709 29.9981 144.7 29.636 141.996 29.1516C139.333 28.6746 136.814 28.0545 135.091 27.2177C130.582 25.0275 127.532 22.0387 124.68 19.1575C124.546 19.0219 124.412 18.8865 124.278 18.7515C121.555 15.9962 118.97 13.3818 115.286 11.2898C111.769 9.29252 106.437 7.35741 101.888 5.90429C99.6332 5.1838 97.6043 4.59214 96.1394 4.18071C95.7859 4.08143 95.4655 3.9927 95.1829 3.91525L80.321 41.3263Z" fill="#031A2F"/>
<path d="M15.3502 71.4884L2.20918 29.3277C2.20918 29.3277 21.3731 28.6653 27.3961 25.7401C35.8679 21.6257 38.9178 14.5123 47.1075 9.86146C54.4632 5.68426 69.0092 1.95068 69.0092 1.95068L84.8879 41.9212C84.8879 41.9212 54.1647 63.8228 39.442 69.8457C25.2059 75.6696 15.3502 71.4884 15.3502 71.4884Z" fill="#031A2F"/>
<path fill-rule="evenodd" clip-rule="evenodd" d="M70.0017 0L68.6008 0.359592L69.0092 1.95064C68.6008 0.359592 68.601 0.359534 68.6008 0.359592L68.5551 0.371398L68.4279 0.404534C68.3169 0.433601 68.1543 0.476492 67.9453 0.532405C67.5273 0.64422 66.9238 0.808178 66.1773 1.01785C64.6849 1.437 62.6176 2.03982 60.3168 2.77487C55.7533 4.23284 50.1351 6.25311 46.2964 8.43305C42.2067 10.7555 39.3331 13.6648 36.652 16.3791C36.4975 16.5355 36.3437 16.6913 36.1903 16.8463C33.3522 19.7131 30.6407 22.3382 26.6785 24.2625C25.39 24.8883 23.2542 25.4478 20.6301 25.9178C18.0476 26.3803 15.1362 26.7323 12.3873 26.9957C9.64235 27.2587 7.08071 27.4315 5.20414 27.5385C4.26644 27.592 3.50123 27.6289 2.97141 27.6525C2.70654 27.6643 2.5006 27.6727 2.36145 27.6782L2.20386 27.6842L2.15285 27.686L0.000125627 27.7604L14.0083 72.7034L14.7086 73.0005L15.3502 71.4883C14.7086 73.0005 14.7094 73.0008 14.7103 73.0012L14.7165 73.0038L14.728 73.0086L14.7619 73.0225C14.7893 73.0336 14.8264 73.0484 14.8729 73.0663C14.9658 73.1022 15.0966 73.1509 15.2639 73.2088C15.5985 73.3246 16.0792 73.4776 16.6954 73.6394C17.9276 73.9629 19.7033 74.3221 21.935 74.489C26.405 74.8233 32.686 74.3843 40.0639 71.366C47.5934 68.2858 59.0818 61.2161 68.5852 54.9994C73.3602 51.8759 77.6724 48.9419 80.7906 46.7891C82.1457 45.8535 83.2758 45.0651 84.1209 44.4724L110.735 112.604L113.795 111.409L86.4179 41.3235L86.4144 41.3147L70.0017 0ZM82.8841 41.3263L68.0221 3.91525C67.7395 3.9927 67.4191 4.08143 67.0656 4.18071C65.6007 4.59214 63.5718 5.1838 61.3166 5.90429C56.7683 7.35741 51.4357 9.29252 47.9187 11.2898C44.2348 13.3818 41.6503 15.9962 38.9265 18.7515C38.793 18.8865 38.6592 19.0219 38.525 19.1575C35.6727 22.0387 32.6233 25.0275 28.1137 27.2177C26.3907 28.0545 23.8723 28.6746 21.2093 29.1516C18.5046 29.636 15.4957 29.9981 12.7007 30.2659C9.90182 30.5342 7.29605 30.7098 5.39117 30.8184C5.03975 30.8385 4.71199 30.8562 4.41106 30.8719L16.6739 70.2153C16.9042 70.2882 17.1903 70.3728 17.5297 70.4619C18.5904 70.7403 20.1683 71.0625 22.18 71.2129C26.197 71.5133 31.9619 71.131 38.82 68.3254C46.0132 65.3827 57.2478 58.4901 66.7867 52.2502C71.5328 49.1455 75.8216 46.2276 78.9241 44.0856C80.475 43.0148 81.7289 42.1384 82.5944 41.5301C82.6964 41.4584 82.793 41.3904 82.8841 41.3263Z" fill="#031A2F"/>
<path d="M61.7791 2.92578L45.5233 10.8557L49.4799 18.9663L65.7356 11.0364L61.7791 2.92578Z" fill="white"/>
<path d="M30.134 24.3998L13.8329 28.3637L16.6404 34.119L31.3075 26.9641L30.134 24.3998Z" fill="white"/>
<path d="M48.6263 19.4717L32.3706 27.4016L39.8525 42.7389L56.1082 34.809L48.6263 19.4717Z" fill="white"/>
<path d="M39.6256 42.4688L22.5831 50.7825L29.4758 64.9121L46.5184 56.5984L39.6256 42.4688Z" fill="white"/>
<path d="M15.4175 36.8032L6.04191 41.9209L10.9602 55.0469L21.7496 49.7836L15.4175 36.8032Z" fill="white"/>
<path d="M29.3309 66.818L19.7304 71.4878L20.8256 72.583L31.2289 71.488L29.3309 66.818Z" fill="white"/>
<path fill-rule="evenodd" clip-rule="evenodd" d="M70.0017 0L68.6008 0.359592L69.0092 1.95064C68.6008 0.359592 68.601 0.359534 68.6008 0.359592L68.5551 0.371398L68.4279 0.404534C68.3169 0.433601 68.1543 0.476492 67.9453 0.532405C67.5273 0.64422 66.9238 0.808178 66.1773 1.01785C64.6849 1.437 62.6176 2.03982 60.3168 2.77487C55.7533 4.23284 50.1351 6.25311 46.2964 8.43305C42.2067 10.7555 39.3331 13.6648 36.6521 16.3791C36.4975 16.5355 36.3437 16.6913 36.1902 16.8463C33.3522 19.7131 30.6407 22.3382 26.6785 24.2625C25.39 24.8883 23.2542 25.4478 20.6301 25.9178C18.0476 26.3803 15.1362 26.7323 12.3873 26.9957C9.64235 27.2587 7.08071 27.4315 5.20414 27.5385C4.26644 27.592 3.50123 27.6289 2.97141 27.6525C2.70654 27.6643 2.5006 27.6727 2.36145 27.6782L2.20386 27.6842L2.15285 27.686L0.000125627 27.7604L14.0083 72.7034L14.7086 73.0005L15.3502 71.4883C14.7086 73.0005 14.7094 73.0008 14.7103 73.0012L14.7165 73.0038L14.728 73.0086L14.7619 73.0225C14.7893 73.0336 14.8264 73.0484 14.8729 73.0663C14.9658 73.1022 15.0966 73.1509 15.2639 73.2088C15.5985 73.3246 16.0792 73.4776 16.6954 73.6394C17.9276 73.9629 19.7033 74.3221 21.935 74.489C26.405 74.8233 32.686 74.3843 40.0639 71.366C47.5934 68.2858 59.0818 61.2161 68.5852 54.9994C73.3602 51.8759 77.6724 48.9419 80.7906 46.7891C82.1457 45.8535 83.2758 45.0651 84.1209 44.4724L110.735 112.604L113.795 111.409L86.4179 41.3235L86.4144 41.3147L70.0017 0ZM82.8841 41.3263L68.0221 3.91525C67.7395 3.9927 67.4191 4.08143 67.0656 4.18071C65.6007 4.59214 63.5718 5.1838 61.3166 5.90429C56.7683 7.35741 51.4357 9.29252 47.9187 11.2898C44.2348 13.3818 41.6503 15.9962 38.9265 18.7515C38.7931 18.8865 38.6593 19.0219 38.525 19.1575C35.6727 22.0387 32.6233 25.0275 28.1137 27.2177C26.3907 28.0545 23.8723 28.6746 21.2093 29.1516C18.5046 29.636 15.4957 29.9981 12.7007 30.2659C9.90182 30.5342 7.29605 30.7098 5.39117 30.8184C5.03975 30.8385 4.71199 30.8562 4.41106 30.8719L16.6739 70.2153C16.9042 70.2882 17.1903 70.3728 17.5297 70.4619C18.5904 70.7403 20.1683 71.0625 22.18 71.2129C26.197 71.5133 31.9619 71.131 38.82 68.3254C46.0132 65.3827 57.2478 58.4901 66.7867 52.2502C71.5328 49.1455 75.8216 46.2276 78.9241 44.0856C80.475 43.0148 81.7289 42.1384 82.5944 41.5301C82.6964 41.4584 82.793 41.3904 82.8841 41.3263Z" fill="#031A2F"/>
<path d="M124.323 67.6557C124.323 93.9377 107.349 98.8655 82.1621 98.8655C56.9752 98.8655 38.9064 93.9377 39.4539 67.6557C40.0014 41.3738 61.3555 27.1377 82.1621 27.1377C102.969 27.1377 124.323 41.3738 124.323 67.6557Z" fill="#DC1F24"/>
<path d="M50.741 61.4237C49.0984 72.3746 44.4065 76.7549 43.623 76.7549C42.528 76.7549 40.7091 69.5248 42.528 60.3286C44.3468 51.1324 46.3828 43.8047 49.646 44.4501C50.741 43.3549 52.5598 52.2275 50.741 61.4237Z" fill="white"/>
<path fill-rule="evenodd" clip-rule="evenodd" d="M48.5826 61.0486L48.5925 60.9988C49.4531 56.6471 49.452 52.358 49.1098 49.323C49.0131 48.4647 48.8928 47.7416 48.7683 47.1671C48.4158 47.6556 48.0117 48.4148 47.5827 49.5024C46.5192 52.1986 45.5865 56.1522 44.6765 60.7536C43.8132 65.1184 43.8201 68.991 44.1565 71.7226C44.2158 72.2039 44.2843 72.6417 44.358 73.0341C44.5572 72.7495 44.7662 72.4288 44.9811 72.0702C46.299 69.8706 47.7929 66.3136 48.5751 61.0988L48.5826 61.0486ZM42.8373 74.7458C42.8373 74.7458 42.8384 74.7451 42.8405 74.7439C42.8384 74.7452 42.8373 74.7458 42.8373 74.7458ZM50.813 46.2887C50.819 46.3131 50.825 46.3377 50.831 46.3625C51.5531 49.362 51.9479 55.3216 50.741 61.4237C49.0984 72.3746 44.4065 76.7549 43.623 76.7549C42.528 76.7549 40.7091 69.5248 42.528 60.3286C44.3468 51.1324 46.3828 43.8047 49.646 44.4501C49.9183 44.1777 50.2354 44.5219 50.5302 45.3342C50.6277 45.6029 50.7228 45.9229 50.813 46.2887Z" fill="#031A2F"/>
<path d="M113.884 61.4237C115.527 72.3746 120.219 76.7549 121.002 76.7549C122.097 76.7549 123.916 69.5248 122.097 60.3286C120.278 51.1324 118.242 43.8047 114.979 44.4501C113.884 43.3549 112.065 52.2275 113.884 61.4237Z" fill="white"/>
<path fill-rule="evenodd" clip-rule="evenodd" d="M116.042 61.0486L116.033 60.9988C115.172 56.6471 115.173 52.358 115.515 49.323C115.612 48.4647 115.732 47.7416 115.857 47.1671C116.209 47.6556 116.613 48.4148 117.042 49.5024C118.106 52.1986 119.039 56.1522 119.949 60.7536C120.812 65.1184 120.805 68.991 120.469 71.7226C120.409 72.2039 120.341 72.6417 120.267 73.0341C120.068 72.7495 119.859 72.4288 119.644 72.0702C118.326 69.8706 116.832 66.3136 116.05 61.0988L116.042 61.0486ZM121.788 74.7458C121.788 74.7458 121.787 74.7451 121.785 74.7439C121.787 74.7452 121.788 74.7458 121.788 74.7458ZM113.812 46.2887C113.806 46.3131 113.8 46.3377 113.794 46.3625C113.072 49.362 112.677 55.3216 113.884 61.4237C115.527 72.3746 120.219 76.7549 121.002 76.7549C122.097 76.7549 123.916 69.5248 122.097 60.3286C120.278 51.1324 118.242 43.8047 114.979 44.4501C114.707 44.1777 114.39 44.5219 114.095 45.3342C113.997 45.6029 113.902 45.9229 113.812 46.2887Z" fill="#031A2F"/>
<path d="M102.957 56.705C102.957 68.4985 94.4911 76.4165 82.6976 76.4165C70.9041 76.4165 61.3435 68.4985 61.3435 56.705C61.3435 44.9115 70.9041 35.8984 82.6976 35.8984C94.4911 35.8984 102.957 44.9115 102.957 56.705Z" fill="white"/>
<path fill-rule="evenodd" clip-rule="evenodd" d="M95.7314 69.4048C98.8576 66.3978 100.766 62.0566 100.766 56.705C100.766 46.0431 93.205 38.0886 82.6976 38.0886C72.0385 38.0886 63.5337 46.1948 63.5337 56.705C63.5337 67.064 71.8758 74.2263 82.6976 74.2263C88.0984 74.2263 92.5967 72.42 95.7314 69.4048ZM82.6976 76.4165C94.4911 76.4165 102.957 68.4985 102.957 56.705C102.957 44.9115 94.4911 35.8984 82.6976 35.8984C70.9041 35.8984 61.3435 44.9115 61.3435 56.705C61.3435 68.4985 70.9041 76.4165 82.6976 76.4165Z" fill="#031A2F"/>
<path fill-rule="evenodd" clip-rule="evenodd" d="M110.974 90.3131C117.125 86.5547 121.037 80.0015 121.037 67.6557C121.037 43.6288 101.629 30.4229 82.1621 30.4229C62.7136 30.4229 43.2403 43.6302 42.7384 67.7241C42.6092 73.9281 43.5849 78.6185 45.3118 82.1898C47.0202 85.723 49.5472 88.3367 52.8366 90.2926C59.6 94.3141 69.6062 95.5803 82.1621 95.5803C94.7225 95.5803 104.431 94.3116 110.974 90.3131ZM82.1621 98.8655C107.349 98.8655 124.323 93.9377 124.323 67.6557C124.323 41.3738 102.969 27.1377 82.1621 27.1377C61.3555 27.1377 40.0014 41.3738 39.4539 67.6557C38.9064 93.9377 56.9752 98.8655 82.1621 98.8655Z" fill="#031A2F"/>
<path d="M106.885 90.6527C106.885 95.0344 107.616 102.217 101.957 106.531C97.0716 110.257 89.3639 110.364 82.2459 110.364C75.1279 110.364 67.294 110.257 62.5344 106.531C57.0219 102.217 58.1541 95.0344 58.1541 90.6527C58.1541 86.2724 73.4852 81.8921 82.2459 81.8921C93.1967 81.8921 106.885 86.82 106.885 90.6527Z" fill="#F9EFAB"/>
<path fill-rule="evenodd" clip-rule="evenodd" d="M61.3317 91.1559C61.3317 91.1559 61.3327 91.1541 61.335 91.1505C61.333 91.1541 61.3318 91.1559 61.3317 91.1559ZM61.4376 91.0224C61.6035 90.8378 61.926 90.5497 62.4811 90.1877C63.7238 89.3772 65.6193 88.5246 67.9536 87.7465C72.6205 86.1908 78.2891 85.1773 82.2459 85.1773C87.2963 85.1773 93.0821 86.3272 97.5672 87.929C99.8164 88.7323 101.58 89.5936 102.713 90.3732C103.168 90.6862 103.446 90.9356 103.602 91.1016C103.604 91.4714 103.61 91.8403 103.615 92.2088C103.642 94.1398 103.67 96.0582 103.311 98.029C102.884 100.379 101.952 102.404 99.9654 103.919C98.1573 105.298 95.641 106.137 92.4714 106.593C89.3101 107.047 85.8297 107.079 82.2459 107.079C78.662 107.079 75.1491 107.047 71.971 106.593C68.7741 106.135 66.2847 105.295 64.5593 103.944C62.6876 102.479 61.8622 100.516 61.5302 98.159C61.2773 96.3635 61.3318 94.7118 61.3888 92.988C61.41 92.3465 61.4315 91.695 61.4376 91.0224ZM103.737 91.2666C103.737 91.2666 103.734 91.263 103.73 91.2559C103.735 91.263 103.737 91.2666 103.737 91.2666ZM106.9 92.0133C106.892 91.5365 106.885 91.0812 106.885 90.6527C106.885 86.82 93.1967 81.8921 82.2459 81.8921C73.4852 81.8921 58.1541 86.2724 58.1541 90.6527C58.1541 91.2535 58.1328 91.9069 58.1103 92.5984C57.9685 96.9501 57.7777 102.808 62.5344 106.531C67.294 110.257 75.1279 110.364 82.2459 110.364C89.3639 110.364 97.0716 110.257 101.957 106.531C107.063 102.639 106.967 96.4117 106.9 92.0133Z" fill="#031A2F"/>
<path d="M76.6745 96.1282C76.6745 98.5474 76.6745 100.509 74.4844 100.509C72.2942 100.509 72.2942 98.5474 72.2942 96.1282C72.2942 93.709 72.2942 90.6528 74.4844 90.6528C76.6745 90.6528 76.6745 93.709 76.6745 96.1282Z" fill="#031A2F"/>
<path d="M90.9106 96.1282C90.9106 98.5474 90.9106 100.509 88.7204 100.509C86.5303 100.509 86.5303 98.5474 86.5303 96.1282C86.5303 93.709 86.5303 90.6528 88.7205 90.6528C90.9106 90.6528 90.9106 93.709 90.9106 96.1282Z" fill="#031A2F"/>
<path d="M75.5796 93.3213C75.5796 94.2665 75.2102 95.0328 74.4845 95.0328C73.7587 95.0328 73.3894 94.2665 73.3894 93.3213C73.3894 92.4549 73.7561 91.7476 74.4818 91.7476C75.2076 91.7476 75.5796 92.489 75.5796 93.3213Z" fill="white"/>
<path d="M89.8157 93.3213C89.8157 94.2665 89.4463 95.0328 88.7205 95.0328C87.9948 95.0328 87.6255 94.2665 87.6255 93.3213C87.6255 92.4549 87.9921 91.7476 88.7179 91.7476C89.4437 91.7476 89.8157 92.489 89.8157 93.3213Z" fill="white"/>
</svg>
