<svg width="93" height="99" viewBox="0 0 93 99" fill="none" xmlns="http://www.w3.org/2000/svg">
<path d="M0 6C0 2.68629 2.68629 0 6 0H87C90.3137 0 93 2.68629 93 6V93C93 96.3137 90.3137 99 87 99H6C2.68629 99 0 96.3137 0 93V6Z" fill="#2C2543"/>
<path d="M24.0375 79.306C23.1411 79.306 22.3567 79.6198 21.8804 80.2611V79.4288H20.4377V86.1552H21.8804V83.3582C21.8804 81.9256 22.1326 80.534 23.6173 80.534C24.8079 80.534 24.9619 81.4481 24.9619 82.2394V86.1552H26.4046V81.8847C26.4046 80.2338 25.5642 79.306 24.0375 79.306Z" fill="#0DEFE1"/>
<path d="M31.3964 86.1552H32.699L34.2258 81.4072L35.7385 86.1552H37.0551L39.1422 79.4288H37.6154L36.3128 83.9995L34.8421 79.4288H33.5955L32.1107 84.0131L30.8361 79.4288H29.2954L31.3964 86.1552Z" fill="#0DEFE1"/>
<path d="M42.4973 86.1552H43.982V82.1439H45.5508C47.6798 82.1439 48.8424 81.1616 48.8424 79.3606C48.8424 77.5869 47.6938 76.6455 45.5508 76.6455H42.4973V86.1552ZM43.982 80.7932V77.9962H45.3967C46.7414 77.9962 47.3297 78.4192 47.3297 79.3879C47.3297 80.3429 46.7274 80.7932 45.3967 80.7932H43.982Z" fill="#0DEFE1"/>
<path d="M53.524 86.2779C53.8462 86.2779 54.2104 86.2097 54.5605 86.0869V84.9409C54.3504 85.0091 54.1543 85.0364 53.9863 85.0364C53.6221 85.0364 53.44 84.859 53.44 84.5043V76.6455H51.9973V84.5998C51.9973 85.7458 52.6276 86.2779 53.524 86.2779Z" fill="#0DEFE1"/>
<path d="M62.0606 79.4288V82.1576C62.0606 83.5492 61.8365 85.05 60.3378 85.05C59.0492 85.05 58.9791 83.9312 58.9791 83.249V79.4288H57.5364V83.6038C57.5364 85.1182 58.2508 86.2779 59.9316 86.2779C60.772 86.2779 61.5704 85.9778 62.0606 85.3092V86.1552H63.5033V79.4288H62.0606Z" fill="#0DEFE1"/>
<path d="M69.6293 86.2779C70.946 86.2779 72.2486 85.5958 72.2486 84.095C72.2486 81.6118 68.5088 82.3486 68.5088 81.1343C68.5088 80.725 68.915 80.4385 69.5593 80.4385C70.3577 80.4385 70.7919 80.8614 71.058 81.3389L72.1785 80.7386C71.6743 79.8108 70.7779 79.306 69.6153 79.306C68.2567 79.306 67.1361 79.9882 67.1361 81.2434C67.1361 83.6993 70.8339 82.8261 70.8339 84.1768C70.8339 84.6543 70.3997 85.0909 69.5733 85.0909C68.5928 85.0909 68.1306 84.4906 67.9205 83.9312L66.7579 84.4361C67.0941 85.4866 68.2006 86.2779 69.6293 86.2779Z" fill="#0DEFE1"/>
<path fill-rule="evenodd" clip-rule="evenodd" d="M59.9497 19.1758L74.0003 19.1758V23.1854L59.9497 23.1854V19.1758Z" fill="url(#paint0_linear_141_322)"/>
<path fill-rule="evenodd" clip-rule="evenodd" d="M69.1699 12.0005L69.1699 26.5618L64.7791 30.7825L64.7791 16.4322L69.1699 12.0005Z" fill="url(#paint1_linear_141_322)"/>
<path fill-rule="evenodd" clip-rule="evenodd" d="M62.5847 36.9033L71.3941 28.4619L71.3941 64.065L62.5847 59.6333L62.5847 36.9033Z" fill="url(#paint2_linear_141_322)"/>
<path fill-rule="evenodd" clip-rule="evenodd" d="M20.4331 23.8179V12L71.3665 60.9599V72.7778L20.4331 23.8179Z" fill="url(#paint3_linear_141_322)"/>
<path fill-rule="evenodd" clip-rule="evenodd" d="M20.4331 12L29.2147 20.4414L29.2147 64.3364L20.4331 72.7778L20.4331 12Z" fill="url(#paint4_linear_141_322)"/>
<path fill-rule="evenodd" clip-rule="evenodd" d="M20.4335 72.777L41.9484 52.5178L35.8013 46.6088L20.5702 60.4484L20.4335 72.777Z" fill="url(#paint5_linear_141_322)"/>
<defs>
<linearGradient id="paint0_linear_141_322" x1="60.9909" y1="21.4173" x2="74.7367" y2="21.4173" gradientUnits="userSpaceOnUse">
<stop stop-color="#20FFAF"/>
<stop offset="1" stop-color="#01DACC"/>
</linearGradient>
<linearGradient id="paint1_linear_141_322" x1="68.9473" y1="14.4969" x2="64.7622" y2="14.4969" gradientUnits="userSpaceOnUse">
<stop stop-color="#20FFAF"/>
<stop offset="1" stop-color="#01DACC"/>
</linearGradient>
<linearGradient id="paint2_linear_141_322" x1="63.7556" y1="30.2674" x2="63.7556" y2="64.2021" gradientUnits="userSpaceOnUse">
<stop stop-color="#20FFAF"/>
<stop offset="1" stop-color="#01DACC"/>
</linearGradient>
<linearGradient id="paint3_linear_141_322" x1="27.203" y1="15.0821" x2="27.203" y2="73.0118" gradientUnits="userSpaceOnUse">
<stop stop-color="#20FFAF"/>
<stop offset="1" stop-color="#01DACC"/>
</linearGradient>
<linearGradient id="paint4_linear_141_322" x1="21.6003" y1="15.0821" x2="21.6003" y2="73.0118" gradientUnits="userSpaceOnUse">
<stop stop-color="#20FFAF"/>
<stop offset="1" stop-color="#01DACC"/>
</linearGradient>
<linearGradient id="paint5_linear_141_322" x1="23.9647" y1="47.4576" x2="22.8605" y2="72.9853" gradientUnits="userSpaceOnUse">
<stop stop-color="#20FFAF"/>
<stop offset="1" stop-color="#01DACC"/>
</linearGradient>
</defs>
</svg>
