<svg width="137" height="115" viewBox="0 0 137 115" fill="none" xmlns="http://www.w3.org/2000/svg">
<path d="M14.6768 36.5078L37.6768 27.0078L48.6768 40.5078L61.1768 47.5078H89.6768L107.177 51.0078C107.177 51.0078 113.931 63.7621 112.177 72.0078C107.177 95.5078 78.1768 110.508 78.1768 110.508L69.6768 113.008L50.6768 75.5078L2.17676 55.5078L4.17676 43.0078L14.6768 36.5078Z" fill="#D8D6C1"/>
<path d="M40.1768 27.0077L18.1768 35.0077C18.1768 35.0077 36.4772 20.9258 49.6768 14.5077C63.5594 7.75742 71.742 2.26124 87.1768 2.00772C102.436 1.75707 121.779 7.60796 130.677 20.0078C139.574 32.4077 129.177 41.0078 129.177 41.0078C129.177 41.0078 109.677 24.5079 91.1768 25.0078C72.6768 25.5078 46.1768 39.0078 46.1768 39.0078L40.1768 27.0077Z" fill="#C4C2A1"/>
<path d="M39.6768 22.5077C42.7534 21.7085 44.6315 21.5078 45.1768 23.5078C46.6767 29.008 46.0527 31.0153 49.1768 35.0076C53.0012 39.8946 59.6768 41.0078 63.6769 42.0078C78.483 45.7092 94.6768 40.5078 102.677 44.5078C108.76 47.5491 114.33 53.5078 116.177 57.0078C120.282 64.7867 115.177 78.0078 115.177 78.0078C115.177 78.0078 113.491 87.6773 109.177 91.5078C105.571 94.7097 97.6769 96.0078 97.6769 96.0078C97.6769 96.0078 108.677 78.5078 108.677 68.0078C108.677 59.1777 102.418 56.1775 94.1769 53.0078C87.6768 50.5078 63.177 57.5077 43.6769 47.5078C41.6769 46.4822 30.5618 40.7349 31.1769 33.0076C31.581 27.9319 34.7486 23.7879 39.6768 22.5077Z" fill="#504C43"/>
<path d="M3.67669 85.5078C-0.0958745 79.5078 3.67671 44.0078 3.67671 44.0078C3.67671 44.0078 26.2428 50.1044 40.1767 55.5078C54.0235 60.8775 71.8701 67.5963 74.6767 72.5078C76.6767 76.0078 77.7198 84.6401 76.6767 93.0078C75.6531 101.219 69.6766 113.508 69.6766 113.508C69.6766 113.508 46.0978 109.001 32.1767 103.008C19.8734 97.7109 10.8067 96.8476 3.67669 85.5078Z" fill="#EBEBDF"/>
<path d="M135.177 45.5078C134.733 50.6991 134.052 54.1469 132.177 59.0078C128.465 68.6266 122.789 73.0078 116.177 79.0078C107.621 86.7717 93.1763 95.0078 90.6767 94.0078C88.1771 93.0078 87.6678 88.2724 87.6769 84.0078C87.6879 78.8196 89.7016 76.2582 92.6767 72.0078C96.1766 67.0078 108.229 62.5429 117.177 55.0078C126.677 47.0078 134.677 33.0078 134.677 33.0078C134.677 33.0078 135.661 39.8524 135.177 45.5078Z" fill="#EBEBDF"/>
<path fill-rule="evenodd" clip-rule="evenodd" d="M55.5697 10.1592C69.3415 3.52865 80.6926 -1.93642 97.4185 1.64577C114.759 5.35952 129.715 10.2582 135.518 26.6111L135.563 26.7381L135.585 26.8712C137.255 37.1139 137.111 45.2303 135.075 55.4068C133.744 62.0628 128.739 68.6981 124.274 73.5459C122.014 76 119.836 78.055 118.223 79.4967C117.415 80.2182 116.748 80.7877 116.28 81.1784C116.122 81.3108 115.986 81.4228 115.876 81.5132C115.791 81.7463 115.67 82.0694 115.517 82.4616C115.193 83.2891 114.721 84.4303 114.127 85.6868C112.962 88.1484 111.237 91.2476 109.126 93.211C107.12 95.076 103.983 96.4079 101.525 97.2569C100.265 97.6922 99.1206 98.021 98.2915 98.2411C97.9281 98.3376 97.624 98.4135 97.3954 98.4687C97.3236 98.5454 97.2405 98.6336 97.1463 98.7325C96.7769 99.1201 96.2368 99.6721 95.5446 100.34C94.1613 101.676 92.1648 103.48 89.7042 105.366C84.8498 109.085 78.0686 113.212 70.5471 114.558C70.284 114.66 70.0249 114.708 69.8212 114.736C69.5104 114.778 69.1681 114.791 68.815 114.787C68.1074 114.778 67.2303 114.699 66.23 114.564C64.222 114.294 61.5806 113.782 58.5294 113.074C52.4208 111.655 44.5712 109.421 36.6766 106.653C28.7899 103.889 20.8057 100.573 14.4541 96.9808C11.2791 95.185 8.4714 93.2974 6.27886 91.3466C4.10381 89.4113 2.42508 87.3181 1.68139 85.087C1.40815 84.2673 1.22306 83.0245 1.08572 81.6001C0.944506 80.1355 0.84309 78.3493 0.776531 76.3679C0.643332 72.4027 0.64783 67.5957 0.764228 62.8965C0.880591 58.1987 1.10939 53.5842 1.42808 50.0061C1.58708 48.2209 1.77082 46.6661 1.97959 45.4779C2.0835 44.8865 2.1992 44.3531 2.33133 43.9139C2.44016 43.5522 2.63022 42.9949 3.00609 42.5909C5.14902 40.2871 8.44966 38.1934 11.1033 36.7115C12.4502 35.9594 13.6693 35.3438 14.5522 34.9159C14.9941 34.7017 15.353 34.534 15.6029 34.4192C15.693 34.3778 15.7691 34.3432 15.8298 34.3158L15.9025 34.2599C16.0432 34.1519 16.2506 33.9934 16.5189 33.7898C17.0555 33.3826 17.8357 32.795 18.8137 32.0711C20.7692 30.6236 23.5176 28.6292 26.6907 26.4407C33.0162 22.0778 41.1058 16.8896 47.981 13.7482C50.6154 12.5445 53.1305 11.3336 55.5697 10.1592ZM17.1795 36.9983L17.1216 37.0242C17.0618 37.051 16.9721 37.0916 16.8555 37.1452C16.6223 37.2524 16.2821 37.4113 15.8605 37.6156C15.0165 38.0246 13.8507 38.6134 12.566 39.3308C9.99495 40.7665 7.09396 42.6382 5.28316 44.5484C5.26744 44.587 5.2398 44.6596 5.20414 44.7782C5.12021 45.0572 5.02847 45.4612 4.93432 45.997C4.74698 47.0633 4.57216 48.5218 4.41625 50.2722C4.10513 53.7654 3.87872 58.3115 3.76331 62.9708C3.64793 67.6286 3.6441 72.3751 3.77484 76.2672C3.84025 78.2144 3.93887 79.9328 4.07187 81.3121C4.20873 82.7316 4.37203 83.6721 4.52744 84.1383C5.03374 85.6573 6.27737 87.3297 8.27304 89.1053C10.2512 90.8654 12.8626 92.6341 15.931 94.3695C22.0662 97.8396 29.8662 101.087 37.669 103.822C45.4639 106.555 53.209 108.758 59.2082 110.152C62.2111 110.849 64.7518 111.338 66.6304 111.591C67.5733 111.718 68.3156 111.781 68.8503 111.787C68.9713 111.788 69.0753 111.787 69.1636 111.783C72.9695 105.496 74.7561 97.2816 75.258 89.9014C75.5148 86.1244 75.4317 82.6142 75.128 79.7616C74.8181 76.8504 74.2953 74.796 73.777 73.8111C73.3462 72.9927 72.1425 71.8498 70.0128 70.4594C67.9485 69.1116 65.2249 67.6628 62.0435 66.165C55.6861 63.1719 47.6448 60.0501 39.7234 57.2122C31.8093 54.3768 24.047 51.836 18.2609 50.0035C15.3685 49.0874 12.9716 48.3488 11.2984 47.8395C10.4618 47.5848 9.80632 47.3875 9.36036 47.2539C9.13738 47.1872 8.9668 47.1363 8.85219 47.1023L8.6823 47.0519L8.68038 47.0513C8.68 47.0512 8.67986 47.0512 9.10439 45.6125C9.52892 44.1738 9.52923 44.1739 9.52978 44.1741L9.70686 44.2266C9.82339 44.2612 9.99595 44.3126 10.221 44.38C10.671 44.5148 11.3309 44.7134 12.1721 44.9695C13.8544 45.4817 16.2621 46.2236 19.1667 47.1435C24.9743 48.9828 32.7744 51.5358 40.7353 54.388C48.6889 57.2375 56.8351 60.397 63.3214 63.4508C66.5619 64.9764 69.4243 66.4924 71.6529 67.9474C73.8162 69.3597 75.6125 70.8574 76.4317 72.4139C77.2292 73.9291 77.7938 76.4633 78.1112 79.444C78.4347 82.4833 78.5188 86.1684 78.2511 90.1049C77.7927 96.8453 76.2929 104.466 73.0812 110.883C78.7339 109.237 83.8971 106.036 87.8795 102.984C90.2314 101.182 92.1412 99.4559 93.461 98.1819C94.1204 97.5454 94.6311 97.0232 94.9746 96.6628C95.1462 96.4826 95.276 96.343 95.3616 96.2499C95.3996 96.2086 95.4288 96.1764 95.4492 96.154L95.4545 96.147C95.4815 96.1117 95.5216 96.059 95.5736 95.9905C95.6775 95.8535 95.8285 95.6536 96.0154 95.4037C96.2717 95.0608 96.5952 94.6245 96.9572 94.1278C96.2748 94.4919 95.5772 94.8358 94.8938 95.1306C93.6592 95.6632 92.2996 96.1127 91.1044 96.1127C89.9914 96.1127 89.1015 95.5636 88.4621 94.8348C87.8438 94.1302 87.4056 93.2076 87.0928 92.2294C86.4644 90.264 86.2218 87.6898 86.3423 85.0132C86.4636 82.3211 86.9566 79.4224 87.8754 76.7862C88.7888 74.1657 90.1617 71.6944 92.1166 69.9838C94.2414 68.1246 97.9889 65.8081 101.102 64.0026C102.679 63.0879 104.128 62.2843 105.184 61.7095C105.219 61.6903 105.254 61.6714 105.288 61.6527C104.66 60.9632 103.765 60.0766 102.612 59.1643C100.084 57.1656 96.3499 55.0713 91.4621 54.6057C88.9211 54.3637 85.688 54.3911 81.9405 54.4536C81.5674 54.4599 81.1897 54.4664 80.8076 54.4731C77.3841 54.5325 73.6123 54.598 69.7261 54.4848C61.1107 54.2338 51.7134 53.1041 43.8985 48.936C34.1216 43.7216 30.6637 38.8709 29.8849 34.9764C29.6707 33.9054 29.6689 32.947 29.7727 32.1236L17.1795 36.9983ZM107.868 60.0398L113.595 55.7445C113.505 55.6105 113.408 55.4667 113.302 55.3142C112.634 54.3526 111.66 53.0556 110.435 51.715C107.944 48.9902 104.596 46.2847 100.831 45.5876C94.2431 44.3676 87.2557 44.3626 80.5559 44.4252C80.1566 44.4289 79.758 44.4329 79.3602 44.4369C73.166 44.499 67.1869 44.5589 62.3102 43.5835C58.957 42.9129 55.9213 41.4526 53.752 40.1894C52.6605 39.5538 51.772 38.9584 51.1531 38.5195C50.8433 38.2998 50.6002 38.1186 50.4321 37.9903C50.348 37.9262 50.2826 37.8752 50.2368 37.8392L50.1831 37.7967L50.1676 37.7842L50.1627 37.7803L50.161 37.7789C50.1607 37.7786 50.1597 37.7779 51.1044 36.6127L50.1597 37.7779L50.1545 37.7736L51.0979 36.6206C50.1545 37.7736 50.154 37.7732 50.1534 37.7727L50.1493 37.7693L50.1421 37.7633L50.1217 37.7463C50.1056 37.7327 50.0843 37.7145 50.0582 37.6919C50.0062 37.6466 49.935 37.5832 49.8474 37.5019C49.6723 37.3393 49.4312 37.1044 49.1464 36.798C48.5774 36.1859 47.8296 35.2839 47.0844 34.0984C45.6238 31.7747 44.1684 28.3516 44.1064 23.907C43.9307 23.8162 43.6315 23.7094 43.1938 23.6235C42.1759 23.4237 40.859 23.4218 39.8545 23.5917C38.42 23.8343 37.3615 24.7154 36.3412 26.0482C35.8329 26.7121 35.3708 27.4388 34.8778 28.2139L34.8607 28.2407C34.4433 28.897 33.9968 29.5985 33.5121 30.2436C33.4633 30.3636 33.401 30.4878 33.3712 30.5471C33.3669 30.5556 33.3633 30.5627 33.3605 30.5684C33.26 30.7709 33.131 31.0353 33.011 31.3809C32.7739 32.0636 32.5657 33.0833 32.8266 34.3881C33.3458 36.9842 35.8518 41.2443 45.3103 46.289C52.4954 50.1211 61.3187 51.2385 69.8135 51.486C73.6256 51.5971 77.3272 51.5329 80.7581 51.4734C81.1389 51.4668 81.5165 51.4603 81.8905 51.4541C85.6016 51.3921 89.0082 51.3584 91.7466 51.6193C97.3588 52.1539 101.625 54.5596 104.472 56.811C105.897 57.9374 106.976 59.0321 107.703 59.8512C107.76 59.9158 107.815 59.9787 107.868 60.0398ZM31.1704 28.3656C31.5461 27.8579 31.9171 27.2788 32.3293 26.6307L32.3754 26.5583C32.4971 26.3669 32.6223 26.1701 32.7511 25.9702C31.2414 26.9654 29.7788 27.9551 28.394 28.9102C27.8052 29.3163 27.2312 29.7157 26.6743 30.106L31.1704 28.3656ZM41.603 20.4696C42.3452 20.4783 43.0923 20.5463 43.7717 20.6797C44.4616 20.8151 45.1986 21.0399 45.8024 21.4247C46.4133 21.8141 47.1044 22.5253 47.1044 23.6125C47.1044 27.5246 48.3671 30.5016 49.6243 32.5019C50.2542 33.5039 50.8814 34.2582 51.3436 34.7555C51.3672 34.7808 51.3902 34.8054 51.4128 34.8293C51.5051 34.7885 51.6038 34.7449 51.7087 34.6988C52.4983 34.3518 53.6415 33.8592 55.0628 33.2738C57.9041 32.1037 61.8631 30.5604 66.3335 29.0682C75.1983 26.1093 86.3459 23.2556 94.7577 24.1204C101.383 24.8015 107.161 25.9491 112.89 28.2909C118.241 30.4778 123.488 33.6809 129.319 38.43C131.697 34.8283 133.02 30.5518 132.639 27.4683C127.405 12.9361 114.15 8.29722 96.7902 4.57925C81.1347 1.2263 70.7687 6.20144 57.0198 12.8002C54.5485 13.9863 51.968 15.2248 49.2278 16.4768C46.8106 17.5813 44.2221 18.9568 41.603 20.4696ZM133.656 36.8065C133.935 42.7166 133.434 48.3137 132.133 54.8185C130.976 60.6081 126.48 66.7227 122.068 71.5135C119.889 73.8787 117.784 75.865 116.223 77.2599C115.444 77.9568 114.802 78.5044 114.357 78.8762C114.134 79.062 113.961 79.2038 113.845 79.2982C113.789 79.3439 113.746 79.3785 113.717 79.4016L113.438 79.5889C113.311 79.6743 113.15 79.7829 112.958 79.912C112.828 79.9996 112.684 80.0967 112.527 80.2024C111.751 80.7252 110.664 81.4588 109.417 82.3024C106.926 83.9888 103.796 86.1174 101.251 87.8794L101.234 87.891L101.218 87.9029L101.2 87.9157L101.141 87.9584C101.089 87.9964 101.01 88.0531 100.907 88.1257C100.702 88.2712 100.404 88.4803 100.034 88.7319C99.2931 89.236 98.2728 89.9059 97.1503 90.5734C96.0229 91.2437 94.8186 91.8958 93.7055 92.376C92.5495 92.8747 91.6592 93.1127 91.1044 93.1127C91.0649 93.1127 90.9417 93.1122 90.717 92.8562C90.4712 92.576 90.1942 92.0786 89.9503 91.3157C89.4653 89.799 89.2286 87.6072 89.3393 85.1482C89.4493 82.7047 89.8981 80.098 90.7083 77.7735C91.524 75.4332 92.6672 73.4883 94.0921 72.2415C95.9673 70.6008 99.4698 68.4172 102.607 66.5977C104.155 65.6999 105.58 64.9098 106.619 64.344C107.138 64.0612 107.56 63.8348 107.851 63.6795C107.906 63.6502 107.956 63.6235 108.002 63.5994C108.077 63.5595 108.139 63.5268 108.186 63.5016L108.272 63.4561L108.3 63.4415L108.408 63.3853L116.535 57.2899L116.564 57.2656L115.604 56.1127C116.564 57.2656 116.564 57.2658 116.564 57.2656L116.565 57.2648L116.567 57.2633L116.573 57.2579L116.597 57.2383L116.685 57.1641C116.761 57.0995 116.873 57.0048 117.015 56.8822C117.3 56.6372 117.71 56.2807 118.214 55.8309C119.221 54.9317 120.607 53.6565 122.124 52.15C125.107 49.1873 128.696 45.2333 130.858 41.4426C131.932 40.0331 132.885 38.4533 133.656 36.8065ZM127.656 40.9449C121.904 36.2323 116.842 33.147 111.755 31.0679C106.38 28.8709 100.907 27.7684 94.4509 27.1046C86.7402 26.312 76.1379 28.9584 67.2833 31.9139C62.894 33.379 59.001 34.8964 56.2052 36.0478C55.4275 36.3681 54.7352 36.6598 54.1413 36.914C54.4809 37.1305 54.8558 37.3606 55.2616 37.5969C57.2772 38.7707 59.9915 40.0604 62.8985 40.6418C67.4559 41.5533 73.1366 41.4976 79.4682 41.4355C79.8194 41.4321 80.1727 41.4286 80.5279 41.4253C87.2031 41.3629 94.4657 41.3579 101.377 42.6377C106.113 43.5146 110.015 46.8091 112.649 49.6909C113.986 51.1535 115.043 52.5614 115.766 53.6039C115.824 53.6866 115.879 53.7672 115.933 53.8453C116.023 53.765 116.118 53.6809 116.216 53.593C117.193 52.7206 118.539 51.4823 120.01 50.0215C122.673 47.3765 125.665 44.0811 127.656 40.9449ZM9.10439 45.6125L9.52978 44.1741C8.73523 43.9396 7.90018 44.3934 7.66571 45.188C7.43125 45.9825 7.88583 46.8169 8.68038 47.0513L9.10439 45.6125Z" fill="black"/>
</svg>
