<svg width="104" height="78" viewBox="0 0 104 78" fill="none" xmlns="http://www.w3.org/2000/svg">
<path d="M15.6005 34.1764C4.16826 21.8293 20.6308 17.2568 20.6308 17.2568C20.6308 17.2568 28.862 6.73919 33.8923 3.99531C38.9225 1.25143 43.4954 0.519946 47.1537 3.08073C48.4603 3.99531 45.3245 6.2818 47.611 11.7693C50.3478 16.5044 53.5558 19.086 54.9277 19.086C56.2995 19.086 57.2141 13.1412 63.6162 13.1412C70.0183 13.1412 75.5057 44.6941 80.536 49.267C85.5662 53.84 102.029 57.4983 102.486 62.9858C102.943 68.4733 92.4255 80.2839 66.8173 74.4183C47.6109 70.019 45.7817 55.2118 37.5505 48.8098C29.3193 42.4077 27.0328 46.5235 15.6005 34.1764Z" fill="#D0D0D0"/>
<path fill-rule="evenodd" clip-rule="evenodd" d="M33.1737 2.67871C38.3638 -0.152358 43.6387 -1.21031 48.0137 1.8521C48.4417 2.15174 48.759 2.57304 48.9018 3.0978C49.0293 3.56623 48.9856 4.00388 48.9325 4.30957C48.8788 4.61832 48.7865 4.93928 48.7102 5.20273C48.701 5.23435 48.6919 5.26577 48.6828 5.29706C48.6092 5.55012 48.5381 5.79499 48.4719 6.06604C48.2008 7.17704 48.0031 8.75959 48.959 11.1042C50.2487 13.3181 51.6267 14.9993 52.8086 16.1109C53.4088 16.6753 53.9354 17.0712 54.3517 17.3164C54.4556 17.3777 54.5451 17.425 54.6206 17.4616C54.6513 17.4184 54.6853 17.3695 54.7228 17.3143C54.7991 17.202 54.8878 17.066 54.9877 16.9129C55.3011 16.4322 55.7245 15.7829 56.2185 15.1713C57.6155 13.4416 59.8379 11.6414 63.616 11.6414C65.058 11.6414 66.2207 12.5221 67.0974 13.5112C67.9999 14.5296 68.8286 15.9177 69.5986 17.4798C71.1436 20.6141 72.6155 24.7932 74.0143 29.018C74.4321 30.2799 74.8433 31.5456 75.2491 32.7948C76.2171 35.7743 77.1546 38.6601 78.0783 41.1765C78.7316 42.9564 79.3622 44.5064 79.9713 45.7364C80.599 47.004 81.1338 47.7838 81.5447 48.1574C82.6226 49.1372 84.4131 50.1437 86.6665 51.2133C88.0195 51.8556 89.4427 52.4778 90.8991 53.1145C91.8696 53.5388 92.8548 53.9696 93.8438 54.417C96.2498 55.5055 98.6215 56.6691 100.433 57.9436C102.168 59.1637 103.806 60.7695 103.981 62.8615C104.135 64.7152 103.367 66.8374 101.913 68.8042C100.436 70.8011 98.1725 72.7535 95.1003 74.2996C88.9428 77.3983 79.5384 78.8712 66.4821 75.8807C56.4575 73.5845 50.921 68.5332 46.8792 63.28C45.5306 61.5273 44.3193 59.7094 43.1862 58.0088C42.663 57.2237 42.1565 56.4635 41.6609 55.7464C40.0502 53.4159 38.4986 51.4479 36.6294 49.994C33.6147 47.6492 31.5362 46.8357 29.2822 45.9534C28.6067 45.689 27.9155 45.4185 27.1786 45.0987C23.9179 43.6837 20.3238 41.4859 14.4997 35.1957C11.5055 31.962 10.143 29.0305 10.064 26.3686C9.98385 23.6713 11.2288 21.5649 12.7677 20.026C14.2897 18.5041 16.1706 17.4573 17.6152 16.7993C18.3469 16.466 18.9891 16.2225 19.4517 16.0612C19.5585 16.024 19.6559 15.9911 19.743 15.9624C19.7684 15.9306 19.7953 15.8969 19.8238 15.8614C20.0628 15.5634 20.4087 15.136 20.839 14.6152C21.6991 13.5745 22.9001 12.1564 24.2622 10.6494C25.6222 9.1447 27.155 7.53792 28.6777 6.12547C30.1832 4.72911 31.7499 3.45538 33.1737 2.67871ZM21.032 18.7023L21.0056 18.7099C20.9819 18.7169 20.9438 18.7283 20.8925 18.7441C20.79 18.7759 20.6354 18.8257 20.4393 18.894C20.0463 19.031 19.4917 19.2412 18.8587 19.5295C17.5738 20.1147 16.0536 20.9828 14.889 22.1474C13.7413 23.295 13.0141 24.6468 13.0626 26.2795C13.1122 27.9475 13.979 30.2177 16.701 33.1575C22.3091 39.2144 25.5744 41.1323 28.3728 42.3467C28.9884 42.6138 29.6067 42.855 30.241 43.1025C32.5568 44.006 35.0854 44.9926 38.4712 47.626C40.7176 49.3731 42.4813 51.6569 44.1288 54.0407C44.6831 54.8428 45.2195 55.6482 45.7578 56.4564C46.8598 58.1112 47.9697 59.7777 49.2568 61.4506C52.989 66.3014 57.9703 70.8533 67.1519 72.9564C79.7039 75.8314 88.3626 74.3318 93.7517 71.6198C96.4528 70.2605 98.3338 68.598 99.5006 67.0203C100.69 65.4126 101.065 64.0007 100.991 63.1106C100.937 62.4588 100.345 61.5495 98.7075 60.3974C97.147 59.2997 95.0029 58.2341 92.6073 57.1504C91.6976 56.7388 90.7405 56.32 89.7771 55.8985C88.275 55.2413 86.7575 54.5773 85.38 53.9234C83.1176 52.8495 80.964 51.6838 79.5267 50.3772C78.6801 49.6075 77.9431 48.4009 77.2829 47.0677C76.604 45.6969 75.9306 44.0316 75.2621 42.2103C74.3179 39.638 73.3518 36.6646 72.3757 33.6601C71.974 32.4237 71.5706 31.1821 71.1663 29.961C69.7642 25.7259 68.3495 21.731 66.9078 18.8062C66.1844 17.3388 65.4948 16.2261 64.8522 15.501C64.1837 14.7468 63.7745 14.6414 63.616 14.6414C60.992 14.6414 59.5561 15.8136 58.5523 17.0563C58.1627 17.5386 57.8696 17.988 57.5745 18.4405C57.4536 18.6258 57.3325 18.8116 57.2042 19.0004C57.0093 19.2872 56.7623 19.6322 56.4725 19.9112C56.1924 20.181 55.6703 20.5862 54.9274 20.5862C54.1817 20.5862 53.4423 20.2626 52.829 19.9013C52.1724 19.5145 51.4687 18.9691 50.7533 18.2962C49.3192 16.9474 47.7449 14.9992 46.3121 12.5201L46.2635 12.4361L46.2262 12.3465C44.9369 9.25229 45.1624 6.97362 45.5574 5.35477C45.6401 5.01609 45.7298 4.70769 45.8023 4.45871C45.8114 4.42733 45.8203 4.39689 45.8288 4.36746C45.8642 4.24543 45.8924 4.14547 45.9149 4.06165C43.0222 2.28898 39.2746 2.76809 34.6103 5.31237C33.5191 5.90764 32.1706 6.97757 30.7179 8.32498C29.2826 9.65629 27.8143 11.1934 26.4878 12.661C25.1633 14.1264 23.992 15.5093 23.1516 16.5263C22.7317 17.0344 22.3952 17.4502 22.1643 17.7381C22.0489 17.882 21.96 17.9939 21.9003 18.0693L21.8331 18.1544L21.8166 18.1754L21.8119 18.1814L21.5076 18.5702L21.034 18.7017L21.032 18.7023ZM45.9852 3.73146C45.9853 3.73142 45.9853 3.73285 45.985 3.73586Z" fill="black"/>
<path fill-rule="evenodd" clip-rule="evenodd" d="M0 49.0601C0 48.2316 0.671573 47.5601 1.5 47.5601H22.0781C22.9066 47.5601 23.5781 48.2316 23.5781 49.0601C23.5781 49.8885 22.9066 50.5601 22.0781 50.5601H1.5C0.671573 50.5601 0 49.8885 0 49.0601ZM9.60313 60.4924C9.60313 59.6639 10.2747 58.9924 11.1031 58.9924H33.9677C34.7962 58.9924 35.4677 59.6639 35.4677 60.4924C35.4677 61.3208 34.7962 61.9924 33.9677 61.9924H11.1031C10.2747 61.9924 9.60313 61.3208 9.60313 60.4924ZM2.74375 71.4674C2.74375 70.6389 3.41533 69.9674 4.24375 69.9674H27.5657C28.3941 69.9674 29.0657 70.6389 29.0657 71.4674C29.0657 72.2958 28.3941 72.9674 27.5657 72.9674H4.24375C3.41533 72.9674 2.74375 72.2958 2.74375 71.4674Z" fill="black"/>
<path fill-rule="evenodd" clip-rule="evenodd" d="M31.2667 4.85426C31.9408 4.37272 32.8777 4.52881 33.3592 5.20291L32.1387 6.07482C33.3592 5.20291 33.3592 5.20291 33.3592 5.20291L33.3627 5.20773L33.3698 5.21779L33.3948 5.25323C33.4161 5.28356 33.4466 5.32713 33.4852 5.38299C33.5624 5.49468 33.6723 5.65568 33.8069 5.85823C34.0757 6.26283 34.4448 6.83587 34.8492 7.51483C35.6479 8.85569 36.6263 10.6787 37.22 12.4599C38.2604 15.5809 38.6348 17.653 38.6682 20.7338C39.3118 21.0951 39.8895 21.44 40.425 21.7598C40.728 21.9406 41.0174 22.1135 41.2976 22.2766C42.2832 22.8505 43.2562 23.3684 44.5747 23.8842C46.1803 24.5123 47.6677 24.4795 49.4047 24.4411C49.6802 24.4351 49.9619 24.4288 50.2513 24.4251C52.3098 24.3985 54.6515 24.5311 56.8868 26.4225C59.9548 29.0185 60.3245 32.6532 60.2906 35.973C60.2822 36.8014 60.2473 37.6416 60.2133 38.4601L60.2116 38.5002C60.1767 39.3396 60.1431 40.158 60.1353 40.9683C60.1197 42.5936 60.2102 44.1012 60.5702 45.4803C61.4556 48.8717 62.9569 51.4437 64.2324 53.1637C64.8697 54.0232 65.4481 54.6664 65.8598 55.0885C65.9626 55.1939 66.0549 55.2853 66.1349 55.3628C66.9368 55.3192 67.5769 54.8202 68.5435 53.76C68.6728 53.6183 68.8086 53.4645 68.9518 53.3025C69.9384 52.186 71.2746 50.6739 73.2256 49.9422C74.6526 49.4071 76.4917 49.0458 77.9043 48.8199C78.6248 48.7047 79.2617 48.6206 79.7192 48.5652C79.9482 48.5375 80.1331 48.5168 80.2617 48.503C80.3261 48.4961 80.3765 48.4909 80.4114 48.4874L80.452 48.4833L80.4666 48.4819L80.4677 48.4818C80.4677 48.4818 80.4684 48.4817 80.6116 49.9749L80.4677 48.4818C81.2923 48.4027 82.0256 49.007 82.1048 49.8316C82.1839 50.6562 81.5797 51.3887 80.7551 51.468L80.7537 51.4681L80.7464 51.4688L80.7139 51.4721C80.6846 51.4751 80.6401 51.4797 80.5818 51.4859C80.4653 51.4984 80.2941 51.5175 80.0799 51.5434C79.6509 51.5954 79.0526 51.6744 78.378 51.7823C77.0003 52.0026 75.4097 52.3272 74.2789 52.7512C73.0765 53.2021 72.2706 54.1006 71.2417 55.2477C71.087 55.4202 70.9273 55.5983 70.7604 55.7813C69.6221 57.0297 68.0466 58.58 65.5136 58.3422C64.2937 58.4491 62.9481 58.2722 61.6756 57.9919C60.4182 57.7148 59.1467 57.3169 58.0018 56.9065C60.8289 60.7885 63.418 63.5851 66.837 64.5348C74.8418 66.7584 80.3471 66.8464 89.2099 66.312C90.8218 66.2148 92.512 66.1018 93.9639 65.9578C95.4701 65.8083 96.5552 65.6389 97.0571 65.4716C97.1765 65.4318 97.4539 65.2863 97.8814 64.981C98.2788 64.6971 98.7114 64.3444 99.1213 63.9891C99.5283 63.6364 99.8969 63.2952 100.165 63.0413C100.298 62.9148 100.405 62.8109 100.478 62.7395C100.515 62.7038 100.543 62.6763 100.561 62.6581L100.581 62.638L100.586 62.6336C101.172 62.0478 102.122 62.0472 102.708 62.633C103.293 63.2188 103.293 64.1685 102.708 64.7543L101.647 63.6936C102.708 64.7543 102.708 64.7543 102.708 64.7543L102.704 64.7577L102.697 64.765L102.671 64.791C102.658 64.8035 102.642 64.8189 102.624 64.8372C102.609 64.8516 102.593 64.8676 102.575 64.8853C102.492 64.9657 102.375 65.0798 102.229 65.2177C101.94 65.4925 101.537 65.8658 101.086 66.2562C100.639 66.644 100.128 67.063 99.6251 67.4222C99.1523 67.7599 98.5723 68.1288 98.0058 68.3177C97.1358 68.6077 95.7195 68.7983 94.2601 68.9431C92.7464 69.0933 91.0069 69.2091 89.3905 69.3065C80.3703 69.8505 74.4919 69.7747 66.0341 67.4254C61.3577 66.1264 58.1638 62.28 55.2264 58.188C54.6145 57.3356 54.0103 56.4675 53.4021 55.5937C51.0002 52.1431 48.5363 48.6033 45.2929 45.5855C42.4942 42.9815 39.8963 41.2007 37.3081 39.4266C36.7679 39.0564 36.2282 38.6864 35.6871 38.3093C32.5584 36.1287 29.4765 33.764 26.3903 29.8713C24.6185 27.6366 22.856 24.6916 21.5547 22.3498C20.8992 21.1702 20.3514 20.1265 19.9671 19.3771C19.7748 19.0022 19.6232 18.7003 19.5192 18.4913C19.4672 18.3868 19.4271 18.3054 19.3997 18.2496L19.3683 18.1855L19.357 18.1624C19.357 18.1624 19.3567 18.1616 20.7064 17.5071L19.357 18.1624C18.9956 17.417 19.3064 16.5189 20.0518 16.1575C20.7972 15.796 21.6945 16.1072 22.056 16.8525L22.0645 16.8701L22.0927 16.9275C22.1178 16.9787 22.1556 17.0554 22.2051 17.155C22.3043 17.3542 22.4504 17.6451 22.6366 18.0082C23.0092 18.7348 23.5411 19.7482 24.1771 20.8926C25.4587 23.199 27.1259 25.9702 28.7411 28.0075C28.8803 28.183 29.0194 28.3552 29.1585 28.5241C29.1653 28.5205 29.1722 28.517 29.1791 28.5135L29.178 28.5141L29.199 28.503C29.2214 28.491 29.2599 28.4702 29.3127 28.4401C29.4185 28.38 29.5819 28.2831 29.7908 28.1471C30.2089 27.8747 30.8064 27.4469 31.4878 26.8442C32.8024 25.6813 34.4194 23.8757 35.6707 21.2829C35.6765 18.2151 35.3729 16.4054 34.374 13.4085C33.8814 11.9309 33.0307 10.3242 32.2718 9.05006C31.8974 8.42154 31.5555 7.89077 31.3081 7.51842C31.1846 7.3325 31.0851 7.18675 31.0174 7.0888C30.9835 7.03985 30.9577 7.00289 30.9408 6.97888L30.9223 6.95272L30.9184 6.94716C30.4371 6.27308 30.5927 5.33575 31.2667 4.85426ZM37.799 23.6919C36.4427 26.1284 34.8311 27.892 33.4755 29.0912C32.6706 29.8032 31.9535 30.3186 31.4284 30.6607C31.3521 30.7104 31.2797 30.7565 31.2117 30.7991C33.2209 32.8279 35.2573 34.3529 37.4025 35.8481C37.9132 36.204 38.4326 36.5598 38.9605 36.9214C41.5575 38.7003 44.3604 40.6201 47.3365 43.3892C50.2747 46.1231 52.6441 49.2904 54.7566 52.2901L54.7591 52.2914L54.7619 52.2928L54.7747 52.2991L54.8305 52.3265C54.8809 52.3511 54.9569 52.388 55.0562 52.4353C55.2549 52.53 55.546 52.666 55.909 52.8286C56.6367 53.1543 57.6464 53.5829 58.7768 53.9965C59.7502 54.3526 60.7963 54.6914 61.8179 54.9443C60.3651 52.9838 58.668 50.0705 57.6675 46.2381C57.2089 44.4815 57.1188 42.6668 57.1354 40.9395C57.1438 40.0736 57.1796 39.208 57.2142 38.3756L57.2149 38.3582C57.2496 37.5237 57.2828 36.7235 57.2908 35.9424C57.3233 32.7484 56.9111 30.3729 54.9489 28.7126C53.5747 27.5498 52.1732 27.4005 50.2901 27.4248C50.0502 27.4279 49.7998 27.4345 49.5399 27.4413C47.8211 27.4864 45.6909 27.5422 43.4818 26.678C41.973 26.0878 40.8557 25.4908 39.7881 24.8692C39.4572 24.6765 39.1401 24.4872 38.822 24.2971C38.4879 24.0976 38.1527 23.8974 37.799 23.6919ZM55.6201 18.543C55.9575 17.7865 54.8574 17.629 55.6139 17.9662L55.6201 17.969L55.6457 17.9802C55.6691 17.9905 55.705 18.0061 55.7523 18.0265C55.8469 18.0671 55.9867 18.1265 56.1628 18.1989C56.5157 18.344 57.0108 18.5401 57.5769 18.7435C58.7417 19.1619 60.0866 19.5661 61.1057 19.6738C62.3128 19.8013 63.965 19.6079 65.4129 19.3457C66.1165 19.2182 66.7359 19.0815 67.1788 18.9767C67.3998 18.9244 67.5757 18.8803 67.6948 18.8497C67.7306 18.8405 67.7612 18.8326 67.7864 18.826C67.8031 18.8216 67.8174 18.8178 67.8293 18.8147L67.8616 18.806V18.7482C67.8616 18.7482 67.7764 17.3013 68.1719 18.7482L68.6602 21.6978C69.4593 21.4794 69.9301 20.6545 69.7116 19.8554C69.4932 19.0563 68.6606 18.53 67.8616 18.7482M54.3923 20.7062L55.6201 18.543C55.2827 19.2996 53.6357 20.3688 54.3923 20.7062ZM68.1719 18.7482C68.5674 20.1951 68.6602 21.6978 68.6602 21.6978L68.6544 21.6994L68.6421 21.7027L68.5988 21.7143C68.5617 21.7241 68.5086 21.7381 68.4408 21.7555C68.3052 21.7903 68.1108 21.8389 67.8696 21.896C67.3881 22.01 66.7152 22.1586 65.9476 22.2976C64.4531 22.5683 62.4469 22.8322 60.7904 22.6572C59.394 22.5096 57.7664 21.9992 56.5628 21.5668C55.9446 21.3448 55.4064 21.1315 55.0221 20.9735C54.8296 20.8944 54.6748 20.8288 54.567 20.7824C54.513 20.7592 54.4707 20.7407 54.4413 20.7278L54.4068 20.7127L54.397 20.7083L54.3923 20.7062C54.3923 20.7062 55.0092 19.9129 55.6201 18.543M72.4686 25.8521C72.6584 26.6585 72.1584 27.4661 71.352 27.6558L63.5781 29.485C62.7717 29.6747 61.9641 29.1748 61.7744 28.3684C61.5846 27.562 62.0846 26.7545 62.891 26.5647L70.6649 24.7355C71.4713 24.5458 72.2789 25.0457 72.4686 25.8521ZM74.2929 31.3194C74.4938 32.1231 74.0051 32.9375 73.2015 33.1384L65.8848 34.9676C65.0811 35.1685 64.2667 34.6798 64.0658 33.8762C63.8648 33.0725 64.3535 32.2581 65.1572 32.0571L72.4738 30.228C73.2775 30.027 74.0919 30.5157 74.2929 31.3194ZM76.122 36.8069C76.323 37.6106 75.8343 38.425 75.0306 38.6259L67.714 40.4551C66.9103 40.656 66.0959 40.1673 65.8949 39.3637C65.694 38.56 66.1827 37.7456 66.9863 37.5446L74.303 35.7155C75.1067 35.5145 75.9211 36.0032 76.122 36.8069ZM78.4134 42.3146C78.6031 43.121 78.1032 43.9286 77.2968 44.1183L69.5229 45.9475C68.7165 46.1372 67.9089 45.6373 67.7192 44.8309C67.5294 44.0245 68.0294 43.217 68.8358 43.0272L76.6097 41.1981C77.4161 41.0083 78.2237 41.5082 78.4134 42.3146Z" fill="black"/>
</svg>
