<svg width="95" height="109" viewBox="0 0 95 109" fill="none" xmlns="http://www.w3.org/2000/svg">
<path d="M21.572 37.3357L23.1221 31.3097C24.2668 26.8598 26.7671 22.8761 30.2767 19.9105L30.8164 19.4545C33.919 16.8328 37.8006 15.2189 41.8447 14.8385V14.8385C46.4428 14.406 51.1043 15.6062 54.9 18.2373L55.597 18.7204C57.9768 20.3699 59.8787 22.6188 61.1103 25.2394V25.2394C63.4638 30.2472 63.1403 36.103 60.2494 40.8211L57.689 44.9998C56.3952 47.1114 55.4155 49.4 54.7807 51.7938L54.5686 52.5938C53.6256 56.1499 53.3192 59.8449 53.6637 63.5077L53.7186 64.0911C54.0507 67.6222 54.9258 71.081 56.3129 74.3452L58.7344 80.0435" stroke-width="5" stroke-linecap="round"/>
<path d="M66.7623 95.7836L66.3389 95.9746" stroke-width="5" stroke-linecap="round"/>
</svg>
