<svg width="127" height="68" viewBox="0 0 127 68" fill="none" xmlns="http://www.w3.org/2000/svg">
<path fill-rule="evenodd" clip-rule="evenodd" d="M61.3879 62.735C57.5461 60.4245 54.7246 58.7939 50.0923 58.8996C45.5901 59.0023 42.9117 60.5336 39.3822 62.6473C39.3083 62.6916 39.234 62.7361 39.1594 62.7808C35.5327 64.9544 31.0243 67.6565 23.9759 67.9658C17.7119 68.2408 12.3146 66.8102 8.52279 65.3471C6.61674 64.6116 5.0823 63.8549 4.00402 63.2689C3.4638 62.9753 3.03487 62.7228 2.72763 62.5347C2.57392 62.4406 2.45036 62.3624 2.35825 62.303C2.31219 62.2734 2.27396 62.2484 2.24373 62.2284L2.20439 62.2023L2.18924 62.1921L2.18281 62.1878L2.17988 62.1858C2.17849 62.1849 2.17713 62.184 4.91661 58.0759L2.17713 62.184C-0.0773333 60.6614 -0.678434 57.5878 0.834537 55.3189C2.34337 53.0563 5.38493 52.4485 7.63757 53.9553L7.66057 53.9703C7.69134 53.9901 7.75082 54.028 7.83775 54.0812C8.0118 54.1877 8.29457 54.3551 8.67599 54.5624C9.441 54.9782 10.5896 55.5473 12.0427 56.108C14.9691 57.2372 18.9945 58.2802 23.5475 58.0803C28.0777 57.8815 30.7735 56.2885 34.3542 54.1441L34.3805 54.1284C38.0919 51.9056 42.6568 49.1719 49.8694 49.0072C57.4449 48.8343 62.3665 51.7954 66.2729 54.1457L66.4318 54.2413C70.2735 56.5518 73.0951 58.1825 77.7273 58.0767C82.2416 57.9737 85.3009 56.2872 89.381 54.0079L89.4094 53.9921C93.4645 51.7267 98.4943 48.917 105.757 49.0061C112.051 49.0834 116.715 50.221 119.92 51.4388C121.517 52.0458 122.737 52.6671 123.603 53.1741C124.036 53.4273 124.38 53.6515 124.638 53.8304C124.767 53.9199 124.875 53.9979 124.961 54.0626C125.004 54.095 125.042 54.124 125.075 54.1493L125.12 54.1847L125.139 54.2003L125.149 54.2076L125.153 54.2111C125.155 54.2128 125.157 54.2145 122.084 58.0759L125.157 54.2145C127.276 55.9227 127.618 59.0363 125.921 61.1689C124.243 63.2773 121.2 63.6375 119.083 61.9948C119.078 61.9909 119.07 61.9855 119.06 61.9786C119.003 61.9391 118.872 61.8511 118.663 61.7289C118.245 61.4847 117.515 61.1018 116.446 60.6957C114.319 59.8872 110.79 58.9635 105.637 58.9003C101.182 58.8456 98.1553 60.4235 94.1529 62.6593C94.0323 62.7267 93.9107 62.7947 93.7882 62.8633C89.8654 65.0584 84.9493 67.8093 77.9503 67.9691C70.3748 68.142 65.4532 65.1809 61.5468 62.8306L61.3879 62.735Z" fill="#445C9C"/>
<path d="M117 19C117 27.2843 110.508 34 102.5 34C94.4919 34 88 27.2843 88 19C88 10.7157 94.4919 4 102.5 4C110.508 4 117 10.7157 117 19Z" fill="black"/>
<path d="M83.061 44.3581C78.9738 50.1047 63.6293 38.8394 51.1801 38.6115C39.9968 38.4068 28.117 46 22.569 46C17.021 46 17.1917 43.3817 16.0295 43.5376C14.8903 43.6904 47.0927 27.9393 56.0849 22.1927C57.0558 21.5722 50.4783 13.9833 49.5452 13.9833C35.5497 13.9833 19.2993 18.9085 19.2993 8.23668C19.2993 3.31103 33.0973 0.0274428 47.0928 0.0274428C53.8564 0.0274428 55.6158 -0.34687 58.5372 1.66933C61.4587 3.68552 78.9737 22.3483 81.4261 25.4765C83.8785 28.6046 87.1482 38.6115 83.061 44.3581Z" fill="black"/>
</svg>
