<svg width="226" height="362" viewBox="0 0 226 362" fill="none" xmlns="http://www.w3.org/2000/svg">
<path d="M112.5 125.5H116.657C118.55 125.5 120.44 125.634 122.314 125.902L126.5 126.5L127.091 126.631C129.69 127.209 132.226 128.045 134.659 129.126L135.5 129.5L139.5 132L141.5 133.5" stroke="black" stroke-width="3"/>
<path d="M81.166 82C81.7183 82.1067 82.6506 82.4325 83.042 82.5829C83.5428 82.7754 84.5885 83.0414 85.2566 83.196C85.7167 83.3024 86.1299 83.4349 86.5956 83.5427C87.1485 83.6706 87.6837 83.7985 88.227 83.9312C89.6578 84.2806 91.1271 84.5905 92.6112 84.8981C94.2117 85.2297 95.9268 85.4882 97.5561 85.7621C98.8503 85.9797 100.144 86.1972 101.439 86.4148C102.871 86.6555 104.23 86.7746 105.673 87.0172" stroke="black" stroke-width="3" stroke-linecap="round"/>
<path d="M98 267L99.7715 273.023C100.256 274.671 100.886 276.273 101.655 277.809L102.545 279.589C103.181 280.861 103.91 282.085 104.725 283.25L107 286.5L109.193 290.008C109.397 290.336 109.578 290.681 109.73 291.036V291.036C110.537 292.919 110.543 295.066 109.736 296.949V296.949C109.579 297.316 109.451 297.695 109.355 298.082L109.078 299.188C108.694 300.725 108.143 302.215 107.434 303.632L107 304.5L105 309L103.5 313L102 316.5L100.851 318.415C100.621 318.798 100.5 319.236 100.5 319.682V320.197C100.5 320.699 100.751 321.167 101.168 321.445V321.445C101.672 321.781 102.328 321.781 102.832 321.445L103.193 321.204C103.396 321.069 103.575 320.9 103.721 320.705L105 319L107.5 316L111 311.5L114 306.5L116.5 302.5L119.5 297.5L120.456 295.827C121.14 294.63 121.5 293.275 121.5 291.896V291.896C121.5 290.972 121.339 290.056 121.023 289.188L120.311 287.231C119.772 285.749 119.058 284.337 118.183 283.025L116.5 280.5L114 275.5L108.5 265" stroke="black" stroke-width="3"/>
<path d="M76 124L75.2871 125.069C73.7736 127.34 72.6617 129.853 72 132.5V132.5L71 136.5L70 139.5L69.7195 140.341C69.2406 141.778 68.8749 143.25 68.6259 144.744L68.5 145.5L68 149L67.8288 150.027C67.61 151.34 67.5 152.669 67.5 154V154V154.292C67.5 155.41 67.8037 156.506 68.3786 157.464V157.464C68.789 158.148 69.3281 158.746 69.9662 159.225L70.4676 159.601C70.8221 159.867 71.1573 160.157 71.4706 160.471L72 161V161C73.3292 162.662 74.8384 164.171 76.5 165.5V165.5L79 168L80.7208 169.721C81.2396 170.24 81.7209 170.795 82.1611 171.382V171.382C82.7193 172.126 83.2093 172.919 83.6252 173.75L84 174.5L84.4453 175.168C84.807 175.71 85 176.348 85 177V177V179V181" stroke="black" stroke-width="3"/>
<path d="M83.5 106V110.5V113.5V116.5V120V120C83.5 121.474 84.4911 122.764 85.9156 123.144L89.9071 124.209C90.6326 124.402 91.3802 124.5 92.131 124.5H95.2118C96.065 124.5 96.9127 124.362 97.7221 124.093L99.013 123.662C99.3332 123.556 99.6243 123.376 99.863 123.137V123.137C100.271 122.729 100.5 122.176 100.5 121.599V119V115.5V111.5V108.5" stroke="black" stroke-width="3"/>
<path d="M83 119L80.344 120.138C79.7839 120.378 79.2588 120.693 78.783 121.074V121.074C77.6264 121.999 76.8054 123.278 76.4462 124.715L76.2672 125.431C76.0898 126.141 76 126.87 76 127.602V128.137C76 129.373 76.1722 130.603 76.5117 131.791L77 133.5L77.3286 135.143C77.7747 137.373 78.4815 139.543 79.4346 141.608L80.0617 142.967C80.6863 144.32 81.2056 145.72 81.6151 147.153L83 152L84.323 155.704C85.1019 157.885 85.5 160.184 85.5 162.499V162.499C85.5 163.83 85.6314 165.157 85.8923 166.462L85.9851 166.926C86.6546 170.273 86.631 173.722 85.9157 177.06L85.5 179L83 186.5L81 194L80 199.5L78.5 211L77.4967 216.351C77.1663 218.113 77 219.902 77 221.695V224.5V230.5L76 238L75 247V253V257.282C75 258.759 74.8873 260.233 74.6628 261.692L74.1925 264.748C74.0644 265.582 74 266.423 74 267.266V276.101C74 276.958 73.5156 277.742 72.7489 278.126V278.126C72.2656 278.367 71.7119 278.428 71.1877 278.297L69.7127 277.928C68.592 277.648 67.5685 277.069 66.7517 276.252L65.8515 275.351C65.2855 274.786 64.6593 274.283 63.9841 273.854L59.5 271L51.5 266L46 261.5L42.3699 258.53C41.1254 257.512 39.9678 256.392 38.9091 255.182L37 253L36.6756 252.676C36.243 252.243 36 251.656 36 251.045V251.045C36 250.686 36.0834 250.333 36.2435 250.013L36.5 249.5C36.8288 248.842 37 248.117 37 247.382V247C37 246.014 37.2297 245.041 37.6708 244.158L38.3298 242.84C38.775 241.95 39.1131 241.01 39.337 240.04L40.5 235L41.218 231.769C41.4054 230.926 41.5 230.064 41.5 229.2V229.2C41.5 226.791 42.2347 224.439 43.606 222.458L44.5652 221.072C45.5155 219.7 46.6809 218.489 48.0165 217.488V217.488C49.3305 216.502 50.4799 215.314 51.4218 213.969L53.5 211L54.909 209.356C55.9678 208.121 56.9208 206.799 57.7578 205.404L59.5 202.5L60.633 200.612C61.8728 198.545 62.8503 196.332 63.5427 194.024L64 192.5" stroke="black" stroke-width="3"/>
<path d="M59 61.5L57 60L56.0948 59.3965C55.7 59.1334 55.2719 58.924 54.8218 58.7739V58.7739C54.2775 58.5925 53.7075 58.5 53.1337 58.5H53C52.3377 58.5 51.6797 58.6068 51.0513 58.8162L50.7239 58.9254C50.5748 58.9751 50.4295 59.0353 50.2889 59.1056V59.1056C49.7719 59.364 49.3314 59.753 49.0108 60.2339L48.5 61L47.8965 61.9052C47.6334 62.3 47.424 62.7281 47.2739 63.1782V63.1782C47.0925 63.7225 47 64.2925 47 64.8663V65C47 65.6623 47.1068 66.3203 47.3162 66.9487L47.3477 67.0432C47.4491 67.3473 47.572 67.6439 47.7154 67.9307L48 68.5V68.5C48.3246 69.1491 48.8509 69.6754 49.5 70V70V70C50.1576 70.3288 50.8828 70.5 51.618 70.5H52H53.5H53.9293C54.2947 70.5 54.6452 70.3548 54.9035 70.0965V70.0965C54.9677 70.0323 55.038 69.9747 55.1135 69.9243L55.5697 69.6202C56.1793 69.2138 56.6723 68.6553 57 68V68L57.1464 67.7071C57.3819 67.2363 57.5835 66.7494 57.75 66.25L57.8774 65.8677C57.959 65.6229 58.0579 65.3841 58.1733 65.1533V65.1533C58.3901 64.7197 58.5482 64.2591 58.6432 63.7838L59 62" stroke="black" stroke-width="3"/>
<g filter="url(#filter0_d_110_62)">
<path d="M81.0306 33.4672L88 32L92.0081 31.0751C93.664 30.6929 95.358 30.5 97.0574 30.5C99.0108 30.5 100.956 30.7549 102.843 31.2582L107.5 32.5L114 35L117.997 36.9985C119.329 37.6643 120.586 38.4689 121.749 39.399C123.896 41.1165 125.687 43.2363 127.022 45.6397L127.5 46.5L129.5 51.5L130.134 54.0365C130.709 56.3368 131 58.699 131 61.0701V63V68.5V70.1972C131 72.392 130.751 74.5796 130.257 76.7182L129.5 80L128.152 84.0448C127.718 85.3466 127.192 86.616 126.578 87.8434L125.955 89.0891C125.319 90.3613 124.59 91.585 123.775 92.7503L122.956 93.9198C121.987 95.304 120.899 96.6008 119.705 97.7955L119.295 98.2045C118.101 99.3992 116.804 100.487 115.42 101.456L112.5 103.5L111.487 104.145C108.53 106.027 105.205 107.256 101.735 107.752C100.58 107.917 99.4143 108 98.2474 108H96.7177C95.2414 108 93.7672 107.887 92.3081 107.663L90.4292 107.374C88.8126 107.125 87.22 106.74 85.6683 106.223L84.7242 105.908C82.9125 105.304 81.1649 104.523 79.5068 103.575L75 101L71.2808 98.2951C70.0954 97.433 68.9794 96.4794 67.943 95.443C66.3204 93.8204 64.903 92.0051 63.7225 90.0375L62.5 88L61.1669 85.3337C59.7322 82.4645 58.7836 79.3771 58.3596 76.1973L58 73.5V70.1149C58 68.3752 58.1566 66.6389 58.4678 64.9272L59 62L60.5 55L61.4147 52.0273C62.1353 49.6852 63.1499 47.4439 64.4342 45.357L65.0964 44.2809C66.0289 42.7655 67.1356 41.3644 68.3937 40.1063C70.4457 38.0543 72.8704 36.4127 75.5378 35.2695L76.123 35.0187C77.7038 34.3412 79.3477 33.8215 81.0306 33.4672Z" stroke="black" stroke-width="3" shape-rendering="crispEdges"/>
</g>
<path d="M131 59L133.258 57.8708C133.746 57.627 134.284 57.5 134.829 57.5V57.5C135.589 57.5 136.329 57.7465 136.937 58.2025L137.649 58.7364C137.883 58.9119 138.104 59.1038 138.311 59.3107L139.018 60.0177C139.666 60.6658 140.176 61.4388 140.516 62.2898V62.2898C140.836 63.0893 141 63.9424 141 64.8034V65V65.9144C141 66.6222 140.79 67.3143 140.398 67.9033V67.9033C140.135 68.2972 139.797 68.6352 139.403 68.8978L139.095 69.1035C138.7 69.3666 138.272 69.576 137.822 69.7261L137.712 69.7628C137.24 69.9199 136.747 70 136.25 70H136.144C135.717 70 135.294 69.9312 134.889 69.7963V69.7963C134.304 69.6014 133.773 69.2732 133.337 68.8374L133 68.5L132.291 67.7906C131.767 67.2669 131.331 66.6623 131 66V66" stroke="black" stroke-width="3"/>
<path d="M52.7188 39.9243C55.375 39.9243 58.376 38.8407 60.8427 37.8619C62.3433 37.2664 64.0535 37.0906 65.6215 36.6986C67.5085 36.2269 69.4107 35.7229 71.3057 35.2838C75.6099 34.2865 79.7918 32.8073 83.982 31.4105C85.5888 30.8749 87.2887 30.1883 88.9872 30.0712C90.2241 29.9859 91.4346 29.3984 92.6656 29.3984C93.9387 29.3984 95.0605 28.9937 96.3 28.8388C97.5836 28.6783 98.8649 28.6816 100.142 28.4992C101.325 28.3303 102.554 28.1771 103.707 27.9207C104.67 27.7067 105.703 27.1348 106.706 27.1348" stroke="black" stroke-width="3" stroke-linecap="round"/>
<path d="M105.123 27.2489C105.773 27.2489 106.445 27.3122 107.072 27.1105C107.658 26.9222 108.346 26.9953 108.908 26.7395C109.945 26.2683 111.201 26.3553 112.266 25.941C113.538 25.4462 114.836 25.1485 116.127 24.7337C116.798 24.518 117.56 24.4283 118.202 24.1364C118.545 23.9804 119.233 23.7402 119.61 23.7402" stroke="black" stroke-width="3" stroke-linecap="round"/>
<path d="M67 36.5L65.6694 31.8428C65.2239 30.2837 64.91 28.69 64.7309 27.0784L64.5 25V23.9001C64.5 22.3028 64.632 20.7082 64.8946 19.1325L65 18.5L66 15L66.1956 14.4131C66.7272 12.8184 67.5523 11.3373 68.6284 10.046V10.046C69.208 9.35042 69.8562 8.71505 70.5632 8.14946L70.911 7.87122C71.6359 7.29129 72.4049 6.76866 73.2109 6.30807L75.5 5L80 3L80.6283 2.79057C82.1992 2.26695 83.8442 2 85.5 2V2H85.5999C87.1972 2 88.7918 2.13197 90.3675 2.39458L91 2.5V2.5C92.3178 2.82946 93.5491 3.43927 94.6098 4.28784L95.5 5L96.7726 5.95442C97.2569 6.31768 97.7149 6.71486 98.143 7.14297V7.14297C99.3682 8.36822 100.332 9.82957 100.975 11.4384L101 11.5L101.295 12.0893C102.096 13.693 102.748 15.3676 103.24 17.0916L103.5 18L104 21L104.5 23.5L105 27" stroke="black" stroke-width="3"/>
<path d="M93.2227 64.0996C93.2602 64.4376 93.5957 64.6331 93.5957 64.9855C93.5957 65.3887 93.9378 65.7708 93.9687 66.1719C94.0113 66.7256 94.3589 67.2579 94.4298 67.8245C94.5137 68.496 94.6214 69.1236 94.6214 69.8088C94.6214 71.7179 94.5282 73.7159 94.5282 75.5697" stroke="black" stroke-width="3" stroke-linecap="round"/>
<path d="M84.0311 59.1463C82.7284 59.1463 84.7641 57.2905 84.7641 58.5966C84.7641 58.8939 84.8874 59.5523 84.6623 59.7775C84.3878 60.0519 84.0311 60.2192 84.0311 59.696C84.0311 58.8277 85.1305 58.2927 85.1305 59.3295C85.1305 60.3253 84.16 60.1372 83.8478 59.5128" stroke="black" stroke-width="4" stroke-linecap="round"/>
<path d="M103.638 60.2457C103.638 59.8038 104.188 59.7091 104.188 60.1541C104.188 60.4333 103.577 60.9017 103.465 60.5104C103.409 60.3135 103.034 59.7486 103.455 59.696C103.78 59.6554 104.188 59.2294 104.188 59.8792" stroke="black" stroke-width="4.5" stroke-linecap="round"/>
<path d="M69.8809 159.207C70.0191 159.288 70.1199 159.427 70.2542 159.514C70.3787 159.594 70.5045 159.711 70.6275 159.8C70.9131 160.006 71.1936 160.212 71.4868 160.407C71.5931 160.478 71.6827 160.576 71.7875 160.646C71.8517 160.688 71.9704 160.766 72.0083 160.834C72.0928 160.986 72.3782 161.027 72.4142 161.207" stroke="black" stroke-width="3" stroke-linecap="round"/>
<path d="M74.7871 163.9C74.987 164.06 75.1772 164.21 75.3604 164.394C75.4301 164.463 75.4926 164.545 75.5486 164.626C75.6448 164.765 75.8079 164.878 75.9338 164.992C76.0873 165.132 76.2388 165.276 76.399 165.407C76.4699 165.465 76.5579 165.488 76.6271 165.554C76.7483 165.668 76.9056 165.853 77.0538 165.927" stroke="black" stroke-width="3" stroke-linecap="round"/>
<path d="M63.5332 193.876C63.5332 193.723 63.5543 193.491 63.6528 193.364C63.7169 193.282 63.8221 193.101 63.8221 192.996C63.8221 192.918 63.8661 192.85 63.8746 192.773C63.8843 192.686 63.9685 192.66 64.0001 192.589C64.0557 192.464 64.103 192.316 64.1635 192.195" stroke="black" stroke-width="3" stroke-linecap="round"/>
<path d="M102 121.5L102.754 122.103C103.904 123.023 104.841 124.182 105.5 125.5V125.5L106.386 127.861C106.792 128.945 107 130.093 107 131.25V131.25C107 132.407 106.792 133.555 106.386 134.639L105.5 137L104.5 141.5L103.495 144.18C103.165 145.059 102.771 145.912 102.315 146.733L101.277 148.601C100.764 149.525 100.075 150.34 99.25 151V151C98.4246 151.66 97.7359 152.475 97.2226 153.399L95.5 156.5L93.5 160L91.5 163.5L89.9071 165.73C89.3033 166.575 88.7666 167.467 88.3021 168.396V168.396C87.7684 169.463 87.1398 170.48 86.4239 171.435L86 172" stroke="black" stroke-width="3"/>
<path d="M101.605 121.767C101.605 121.696 101.689 121.534 101.605 121.492" stroke="black" stroke-width="3" stroke-linecap="round"/>
<path d="M105.658 125.675C105.658 125.614 105.658 125.553 105.658 125.492C105.658 125.456 105.621 125.557 105.59 125.573" stroke="black" stroke-width="3" stroke-linecap="round"/>
<path d="M76 123L75.7453 122.904C73.2686 121.976 70.6451 121.5 68 121.5V121.5H67.6992C66.2426 121.5 64.7955 121.735 63.4137 122.195V122.195C62.8053 122.398 62.2121 122.644 61.6386 122.931L61.4639 123.018C60.1631 123.668 58.9757 124.524 57.9474 125.553V125.553C57.3173 126.183 56.7511 126.873 56.2568 127.615L55 129.5L52.5 133.5L50.5 137L48.5 141L47 144.5L45.5 149L44.5 152L44.0494 153.577C43.6849 154.853 43.5 156.173 43.5 157.5V157.5C43.5 158.827 43.3151 160.147 42.9506 161.423L42.5 163L41 168.5L39.5 173L37.5 177.5L36 181.5L34 186.5L33 189.5L31.5 193L30 195.5L28 198L26.5883 200.117C26.1971 200.704 25.7488 201.251 25.25 201.75L24.8142 202.186C24.6052 202.395 24.4175 202.624 24.2536 202.87L24.1234 203.065C23.7169 203.675 23.5 204.391 23.5 205.124V205.124C23.5 205.7 23.6342 206.268 23.8918 206.784L23.9706 206.941C24.3175 207.635 24.8395 208.226 25.485 208.657L25.5926 208.728C25.8635 208.909 26.116 209.116 26.3462 209.346L27.1643 210.164C27.7207 210.721 28.3159 211.237 28.9454 211.709L30 212.5L30.6466 212.931C32.2117 213.974 33.6699 215.17 35 216.5V216.5L37.5 218.5L39.5 220L42.5 222.5" stroke="black" stroke-width="3"/>
<path d="M35.1758 216.613L35.2105 216.648" stroke="black" stroke-width="3" stroke-linecap="round"/>
<path d="M103.5 122L106.163 122.726C108.039 123.238 109.81 124.079 111.393 125.209V125.209C112.13 125.735 112.822 126.322 113.462 126.962L114.205 127.705C115.399 128.899 116.487 130.196 117.456 131.58L119.5 134.5L122.5 138.5L124.5 142L126 145" stroke="black" stroke-width="3"/>
<path d="M79 210L81.5 204.5L84 198.5L86 193L88.5 187L91 182.5L91.9978 180.255C92.6647 178.754 93.4579 177.313 94.3688 175.947L96 173.5L98.5 170L102 166L106 161.5L110 157.5L112.608 154.603C113.866 153.204 115.258 151.932 116.763 150.803L118.5 149.5L122.5 147L125 145L126 144" stroke="black" stroke-width="3"/>
<path d="M73.5 264.833L80.8159 266.085C82.4311 266.361 84.0669 266.5 85.7056 266.5H90.2798H95.0927C96.9319 266.5 98.767 266.325 100.573 265.977L106.518 264.833L114.873 263.118C116.517 262.781 118.129 262.301 119.69 261.685L124.381 259.833L126.756 259.102C128.773 258.481 130.703 257.607 132.5 256.5V256.5" stroke="black" stroke-width="3"/>
<path d="M129 163L126.5 169L125 174L124.243 177.282C123.749 179.42 123.5 181.608 123.5 183.803V187V193V205V213V218.128C123.5 220.038 123.689 221.943 124.063 223.816L125 228.5L126.5 238.5L129 247.5L130.313 252.096C130.767 253.685 131.508 255.178 132.5 256.5V256.5" stroke="black" stroke-width="3"/>
<path d="M84 123.5V124.095C84 126.618 84.8846 129.062 86.5 131V131L88.3374 132.837C88.7732 133.273 89.3109 133.604 89.8955 133.798V133.798C90.2929 133.931 90.7136 134 91.1326 134V134C92.0178 134 92.8766 133.699 93.5678 133.146L94.1531 132.678C94.7132 132.229 95.189 131.685 95.558 131.07L96.5 129.5L97.5 128L97.578 127.844C98.1908 126.618 98.6677 125.329 99 124V124" stroke="black" stroke-width="3"/>
<path d="M89.5 135L87 140L86 142L85 144.5L84.3694 145.761C84.1265 146.247 84 146.783 84 147.326V147.326C84 147.771 83.9151 148.212 83.7497 148.626L83 150.5" stroke="black" stroke-width="3"/>
<path d="M92 134.5L93.5 139.5L95 144L96 147L96.5257 148.577C96.8398 149.519 97 150.506 97 151.5V151.5V153.5" stroke="black" stroke-width="3"/>
<path d="M85.9961 129.82C85.9961 129.965 86.0679 130.084 86.0679 130.233C86.0679 130.362 86.0488 130.5 86.1038 130.61" stroke="black" stroke-width="3" stroke-linecap="round"/>
<path d="M86.3906 130.826V130.898" stroke="black" stroke-width="3" stroke-linecap="round"/>
<path d="M85.1356 125.802C85.1356 125.616 85.0997 125.42 85.0997 125.246C85.0997 125.114 84.9868 125.016 84.9581 124.887C84.9085 124.663 84.6262 124.541 84.5972 124.295C84.5822 124.167 84.5469 124.072 84.4377 124.041C84.4048 124.032 84.2792 123.779 84.2562 123.738C84.1367 123.523 84.0794 123.266 83.9512 123.074" stroke="black" stroke-width="3" stroke-linecap="round"/>
<path d="M86.4634 127.236C86.4634 126.911 86.4555 126.588 86.5013 126.267C86.5625 125.838 87.334 125.974 87.6199 126C89.1603 126.142 90.6599 126.616 92.206 126.726C93.0751 126.787 93.8994 126.596 94.7542 126.49C94.9518 126.466 95.1312 126.397 95.3265 126.373C95.4213 126.361 95.5749 126.279 95.6674 126.305C95.6896 126.311 95.5547 126.57 95.5438 126.596C95.3107 127.162 95.0405 127.714 94.7941 128.275C94.4033 129.165 94.2001 130.124 93.6057 130.917C93.1309 131.55 92.4793 131.955 91.7035 132.101C90.8596 132.261 89.8735 132.18 89.1373 131.719C88.7097 131.45 88.3199 131.085 88.0127 130.686C87.7558 130.352 87.602 129.935 87.3946 129.569C87.2144 129.251 87.0005 128.959 86.7665 128.68C86.6409 128.53 86.5163 128.406 86.7625 128.377C87.2925 128.315 87.8088 128.143 88.3258 128.018C89.2665 127.79 90.2051 127.665 91.1731 127.639C91.8032 127.622 92.4583 127.589 93.0873 127.647C93.2941 127.666 93.5218 127.699 93.7054 127.802C93.83 127.873 93.9005 127.938 93.8908 128.088C93.8358 128.941 92.898 129.671 92.2458 130.076C91.3702 130.618 90.3077 130.983 89.3247 131.288C89.2016 131.326 88.6169 131.585 88.6169 131.324C88.6169 130.827 88.8801 130.341 89.1512 129.94C89.52 129.394 90.0273 128.927 90.7265 129.003C91.0688 129.04 91.3834 129.434 91.2489 129.784C91.1387 130.072 90.6804 130.143 90.4114 130.143" stroke="black" stroke-width="3" stroke-linecap="round"/>
<path d="M90.9689 135.193C90.9689 137.719 89.6419 140.043 88.7668 142.35C88.3686 143.4 88.0346 144.52 87.576 145.54C87.0704 146.663 86.4749 147.898 86.1758 149.094C85.9139 150.142 85.7988 151.079 85.7988 152.158C85.7988 152.394 85.9533 152.705 86.0681 152.912C86.2504 153.24 86.2297 153.627 86.2297 153.995C86.2297 155.225 86.5287 156.643 86.9358 157.807C87.3751 159.062 87.5446 160.415 87.6359 161.738C87.6749 162.303 87.7376 162.842 87.7376 163.413C87.7376 164.038 87.8815 164.547 87.9471 165.137C87.9578 165.234 88.1247 165.963 88.1625 165.831C88.1979 165.707 88.1651 165.54 88.1685 165.412C88.1844 164.806 88.4192 164.247 88.5993 163.677C89.6936 160.212 91.8139 157.372 93.2847 154.091C93.7646 153.02 94.5151 152.068 94.9482 150.985C95.3025 150.099 94.2492 152.76 93.931 153.66C93.5935 154.613 93.4111 155.687 92.9077 156.568C92.1273 157.934 94.8465 150.692 94.8465 152.265C94.8465 152.501 94.6372 152.627 94.4994 152.798C93.8587 153.595 93.3522 154.512 92.7402 155.335C91.9165 156.442 91.0303 157.518 90.1192 158.555C89.554 159.198 89.0214 159.962 88.342 160.493C88.0182 160.747 87.6384 161.027 87.6299 160.41C87.5978 158.065 87.6299 155.717 87.6299 153.372C87.6299 151.922 87.7072 150.698 88.0607 149.303C88.3023 148.351 88.5933 147.506 88.7309 146.527C88.9749 144.792 89.5294 143.309 90.1671 141.68C90.3053 141.327 90.438 140.961 90.562 140.603C90.659 140.323 90.8612 139.469 90.8612 139.765C90.8612 140.602 91.368 141.481 91.699 142.218C92.1839 143.299 92.6359 144.476 93.0154 145.593C93.5369 147.129 93.7312 148.77 94.3079 150.297C94.5127 150.839 94.599 151.424 94.8465 151.948C94.9588 152.186 95.2004 152.729 95.014 152.99C94.6672 153.475 94.028 153.876 93.5899 154.276C92.8531 154.948 92.1721 155.679 91.4716 156.388C91.1656 156.698 90.8534 157.027 90.5919 157.376C90.4781 157.527 90.2526 157.56 90.1072 157.705C89.9916 157.82 89.8891 157.946 89.7901 158.076C89.7166 158.172 89.6419 158.47 89.5747 158.369C89.5309 158.303 89.5687 157.915 89.5687 157.872C89.5687 157.246 89.5657 156.62 89.5687 155.993C89.5818 153.22 89.7342 150.427 89.9756 147.664C90.1246 145.959 90.4022 144.367 90.4304 142.649C90.4451 141.751 90.3755 140.326 90.8612 139.526C90.9385 139.398 91.3409 138.709 91.5913 138.987C91.7053 139.114 91.6152 139.634 91.6152 139.789C91.6152 140.599 91.6152 141.409 91.6152 142.218C91.6152 145.097 91.1843 147.918 91.1843 150.787C91.1843 151.427 91.3998 152.027 91.3998 152.666C91.3998 153.305 91.3998 153.943 91.3998 154.581C91.3998 155.012 91.4314 155.355 91.5553 154.605C91.9172 152.417 92.706 150.302 92.9077 148.083C93.0128 146.927 92.9077 150.404 92.9077 151.565" stroke="black" stroke-width="3" stroke-linecap="round"/>
<path d="M85.3678 151.997C85.3211 151.623 84.6505 151.279 84.3984 151.027" stroke="black" stroke-width="3" stroke-linecap="round"/>
<path d="M53 268L54.5 280V289.5V300.5V307.6C54.5 309.197 54.368 310.792 54.1054 312.367L53.3576 316.854C53.1205 318.277 52.6721 319.656 52.0272 320.946L50.6281 323.744C50.5439 323.912 50.5 324.098 50.5 324.286V324.286C50.5 324.957 51.0433 325.5 51.7135 325.5H52.2678C52.7366 325.5 53.1862 325.314 53.5178 324.982L54.5 324L55.1301 323.37C56.7041 321.796 58.0791 320.035 59.2243 318.126V318.126C60.073 316.712 60.7914 315.223 61.3706 313.678L62 312L63.1706 309.073C63.7227 307.693 64.1679 306.273 64.5021 304.824L65.5 300.5L66.3563 296.504C66.7842 294.507 67 292.47 67 290.428V287V284.36C67 282.795 66.7715 281.238 66.3218 279.739L66.2184 279.395C65.7432 277.811 64.9922 276.323 64 275V275" stroke="black" stroke-width="3"/>
<path d="M54.3715 270.594C54.4179 270.965 55.0964 271.425 55.3097 271.73C55.6916 272.276 55.8862 273.026 56.3627 273.502C56.8185 273.958 57.9091 274.068 58.4999 274.347C58.9924 274.579 59.348 274.881 59.8134 275.139C60.1944 275.351 60.4534 275.724 60.8455 275.942C61.3584 276.227 61.9146 276.429 62.4406 276.693C63.0333 276.989 63.5138 277.429 64.1295 277.683C64.4939 277.833 63.4071 276.901 63.1912 276.786C61.9589 276.134 60.8693 275.134 59.6362 274.441C58.5399 273.824 57.5051 273.182 56.4774 272.47C56.3475 272.38 55.5182 271.743 55.5182 271.626C55.5182 271.165 56.501 271.879 56.5399 271.907C57.3893 272.525 61.5916 275.157 58.4999 275.097C57.6082 275.08 56.6869 274.615 55.8831 274.253C55.6688 274.157 54.7494 273.6 55.1221 274.065C55.5227 274.566 55.4974 276.198 55.4974 276.828C55.4974 278.706 55.9729 280.653 56.248 282.51C56.6388 285.148 56.8823 287.788 57.1446 290.443C57.3229 292.249 57.5616 294.225 57.5616 296.021C57.5616 297.513 57.1863 298.954 57.1863 300.431C57.1863 304.453 56.248 308.431 56.248 312.441C56.248 315.451 55.8065 319.204 54.5591 322.011C54.3526 322.476 53.8859 324.242 53.1517 324.242C53.0308 324.242 53.9377 322.317 53.9962 322.199C54.9074 320.35 55.793 318.496 56.6233 316.611C57.5468 314.514 58.4464 312.455 59.1671 310.293C59.4798 309.355 59.9148 308.448 60.3347 307.562C60.6332 306.931 60.0166 309.251 59.9594 309.626C59.8565 310.299 59.7742 311.405 59.3339 311.972C59.011 312.387 58.6279 312.906 58.4165 313.389C58.0387 314.253 57.4241 315.616 57.3739 316.569C57.3214 317.567 58.0726 315.941 58.1454 315.787C59.1963 313.569 60.3475 311.234 61.0957 308.896C61.5275 307.547 61.4454 306.107 61.7317 304.747C61.7684 304.572 61.9194 302.822 61.8359 302.849C61.5791 302.935 61.3668 304.199 61.3042 304.403C60.9534 305.543 60.5836 306.646 60.1053 307.739C59.7687 308.508 59.0628 310.872 59.0628 310.032C59.0628 307.105 59.3783 304.2 59.6258 301.286C59.7877 299.379 60.3764 293.68 60.3764 295.593C60.3764 297.551 59.8785 299.6 59.532 301.525C59.4321 302.08 59.4611 303.082 59.1566 303.569C58.8743 304.02 58.8905 302.537 58.7813 302.015C58.4429 300.398 58.067 298.762 57.7909 297.136C57.6091 296.066 57.5816 296.37 57.4156 297.282C57.2446 298.223 57.2837 299.202 56.9986 300.128C56.7722 300.864 56.2771 298.533 56.2584 298.262C56.1774 297.087 56.1628 295.811 56.394 294.655C56.4146 294.552 56.9076 293.075 57.1446 293.342C57.5776 293.829 57.1863 296.149 57.1863 296.761C57.1863 297.376 57.1863 297.991 57.1863 298.606C57.1863 299.242 57.341 297.344 57.3739 296.709C57.596 292.434 58.2437 288.205 58.1245 283.917C58.0515 281.288 56.3494 278.713 56.248 276.077C56.2193 275.331 56.3491 275.989 56.4357 276.421C56.7995 278.241 57.9015 280.041 58.5833 281.759C60.2713 286.013 61.331 290.445 61.8359 294.989C62.1201 297.546 61.69 300.127 61.69 302.683C61.69 303.232 61.69 303.781 61.69 304.33C61.69 305.649 61.7219 304.162 61.6066 303.579C61.4269 302.671 60.9191 301.911 60.5745 301.067C60.103 299.912 59.8965 298.653 59.6362 297.439C59.196 295.384 59.2505 293.233 59.2505 291.142C59.2505 289.369 59.2505 291.225 59.2505 291.882C59.2505 294.856 59.7421 297.528 60.5224 300.389C60.8213 301.485 60.9934 303.058 62.3468 303.058C63.769 303.058 64.2158 299.482 64.3588 298.513C64.6616 296.461 64.5048 294.32 64.5048 292.247C64.5048 289.648 64.6715 287.139 63.9418 284.626C63.5903 283.415 63.0395 282.572 62.3468 281.572C61.4322 280.251 60.0098 279.671 58.8752 278.663C58.1791 278.044 57.3739 277.732 57.3739 276.693C57.3739 275.913 57.3739 276.762 57.3739 277.078C57.3739 278.607 57.2875 280.163 57.4156 281.686C57.5578 283.377 57.9374 285.048 58.1245 286.732C58.2268 287.652 58.2944 288.591 58.9794 289.276C59.76 290.056 61.3147 290.916 61.3147 292.174C61.3147 292.685 61.3147 294.217 61.3147 293.707C61.3147 290.934 61.69 288.187 61.69 285.418C61.69 285.165 62.0071 282.686 62.0653 283.5C62.1971 285.346 62.8556 287.134 63.1912 288.942C63.2393 289.201 63.8098 291.68 63.4518 290.527C62.7511 288.269 61.4615 286.243 60.6579 284.021C60.0933 282.461 59.5974 280.905 59.1045 279.372C58.9765 278.974 58.8752 278.419 58.8752 277.996C58.8752 277.505 58.4342 276.179 58.7813 276.526C59.9865 277.731 61.2065 278.903 62.5866 279.976C63.8366 280.949 64.5048 281.31 64.5048 279.528C64.5048 277.89 64.6924 282.801 64.6924 284.438C64.6924 286.806 64.2864 289.23 63.3789 291.434C62.9734 292.418 62.6672 293.463 62.2112 294.426C62.0567 294.752 62.0653 294.696 62.0653 294.342C62.0653 293.28 62.0407 292.214 62.107 291.152C62.2702 288.542 62.8693 286.001 63.014 283.396C63.0516 282.72 63.2437 282.039 63.3893 281.384C63.6038 280.419 63.9418 279.674 63.9418 278.663" stroke="black" stroke-width="3" stroke-linecap="round"/>
<path d="M99.6855 267.645C101.502 267.645 103.298 267.678 105.083 267.455C105.77 267.369 106.459 266.716 107.075 266.423C108.292 265.847 107.418 267.025 106.895 267.425C105.753 268.298 104.065 268.749 102.76 269.347C102.158 269.623 101.027 270.178 100.326 269.978C100.312 269.974 101.107 270.076 101.308 270.629C101.673 271.634 102.338 272.571 102.569 273.613C102.813 274.709 103.153 275.757 103.431 276.837C103.95 278.856 105.758 280.521 106.935 282.185C108.033 283.735 109.153 285.404 110.5 286.751C112.232 288.482 112.987 291.26 114.265 293.32C114.531 293.748 114.625 294.418 115.086 294.681C115.175 294.732 114.322 293.623 114.145 293.38C113.428 292.392 112.681 291.472 112.132 290.376C112.054 290.219 111.349 288.793 111.541 289.635C112.13 292.212 112.76 294.933 112.983 297.565C113.055 298.406 113.555 301.894 112.483 302.252" stroke="black" stroke-width="3" stroke-linecap="round"/>
<path d="M102.029 319.734C102.029 317.931 104.165 316.366 104.693 314.688C105.15 313.235 106.025 311.981 106.365 310.452C106.744 308.746 107.225 306.971 107.797 305.315C108.607 302.971 110.571 301.045 111.081 298.606C111.305 297.54 111.708 296.452 112.033 295.412C112.066 295.306 112.123 294.693 112.123 294.891C112.123 295.609 112.098 296.276 111.943 296.984C111.234 300.212 110.454 303.611 109.409 306.747C108.807 308.554 108.039 310.277 107.437 312.084C107.235 312.688 107.124 313.337 106.896 313.927C106.711 314.404 106.257 314.906 106.185 315.409C106.166 315.544 105.99 315.886 106.005 315.819C106.215 314.871 106.529 314.093 106.936 313.206C108.479 309.844 110.531 306.733 112.213 303.442C112.924 302.052 113.944 300.765 114.606 299.367C114.749 299.066 114.707 299.086 114.606 299.447C114.335 300.425 113.645 301.326 113.114 302.171C112.297 303.472 110.508 307.702 110.901 306.216C111.623 303.488 113.808 301.182 114.997 298.656C115.238 298.144 115.573 297.567 115.728 297.024C116.042 295.924 115.751 297.825 115.688 298.065C115.283 299.606 114.943 301.192 114.466 302.711C114.266 303.347 113.925 305.3 113.925 304.634C113.925 303.542 114.308 302.653 114.636 301.62C115.155 299.985 115.604 298.301 116.228 296.703C116.456 296.12 117.094 294.009 116.719 296.032C116.609 296.628 116.629 297.222 116.629 297.825C116.629 297.966 117.26 295.956 117.35 295.582C117.673 294.241 117.741 292.847 118.111 291.516C118.204 291.182 118.102 292.258 117.981 292.528C117.684 293.188 117.294 293.791 117.09 294.49C116.728 295.73 117.132 294.806 117.35 294.14C117.437 293.875 118.147 291.556 118.421 292.788C118.616 293.665 118.612 294.831 118.612 295.722C118.612 297.198 118.792 294.639 118.792 294.23C118.792 292.878 118.792 291.526 118.792 290.175C118.792 288.932 118.792 291.838 118.792 292.087C118.792 293.409 118.562 294.616 118.071 295.842C118.012 295.988 117.393 297.456 116.989 296.904C116.42 296.124 116.404 294.773 116.048 293.88C115.382 292.206 114.719 290.52 114.116 288.823C113.835 288.035 113.523 287.29 113.214 286.52C112.735 285.322 114.171 288.921 114.786 290.054C115.242 290.893 115.801 291.663 116.228 292.518C116.728 293.517 114.93 290.7 114.276 289.794C111.57 286.047 109.049 282.508 107.256 278.239C106.897 277.382 106.774 276.549 106.575 275.655C106.402 274.875 107.476 276.745 107.647 276.947C109.04 278.596 110.46 280.222 111.853 281.873C112.539 282.688 113.247 283.474 113.805 284.387C114.171 284.986 114.463 285.665 114.967 286.169C115.021 286.223 114.094 284.273 113.885 283.866C112.651 281.456 111.201 279.185 109.81 276.867C109.278 275.98 108.457 274.907 108.168 273.893C107.994 273.284 108.642 275.067 108.879 275.655C109.708 277.719 110.577 279.767 111.322 281.863C111.582 282.595 111.816 283.337 112.083 284.066C112.116 284.158 112.473 284.917 112.083 284.527C110.188 282.632 108.075 280.663 106.495 278.499C105.728 277.448 105.179 276.547 104.903 275.305C104.763 274.672 104.349 273.819 104.012 273.272C103.386 272.254 103.635 270.628 105.133 271.61C107.17 272.944 108.904 275.556 109.489 277.898C109.515 278.002 109.752 279.17 109.68 279.15C109.134 278.994 108.39 277.634 108.117 277.197C107.728 276.574 103.945 269.627 105.995 269.627C107.101 269.627 107.273 270.334 107.717 271.159C108.411 272.447 107.581 269.725 107.477 269.266C107.382 268.852 107.286 267.885 107.887 268.365C108.323 268.714 108.448 269.847 108.698 270.348C109.45 271.851 110.267 273.105 111.222 274.494C112.142 275.832 112.862 277.326 113.785 278.639C115.733 281.411 115.856 285.154 117.17 288.192C117.678 289.368 117.973 290.905 118.251 292.157C118.281 292.292 118.595 293.197 118.311 292.758C117.469 291.457 116.138 290.576 115.367 289.153C114.58 287.7 113.905 285.991 113.425 284.407C113.378 284.253 112.915 282.567 113.314 282.905C114.128 283.593 114.835 284.439 115.557 285.218C116.504 286.239 117.637 287.146 118.391 288.332C118.576 288.622 118.744 288.852 119.012 289.053C120.03 289.817 117.435 287.055 116.619 286.079C114.546 283.598 112.573 280.924 111.362 277.918C110.643 276.133 109.12 274.429 107.987 272.871C107.365 272.015 107.151 271.574 106.175 271.249" stroke="black" stroke-width="3" stroke-linecap="round"/>
<path d="M114.284 294.682C114.284 296.424 113.181 297.811 112.662 299.368" stroke="black" stroke-width="3" stroke-linecap="round"/>
<path d="M91.0927 2.62009C91.0888 2.58862 91.0817 2.59747 91.0586 2.58594" stroke="black" stroke-width="3" stroke-linecap="round"/>
<path d="M206.5 120.071L206.635 120.023C208.531 119.346 210.529 119 212.542 119H213H214.328C216.039 119 217.68 119.68 218.889 120.889C219.295 121.295 219.644 121.752 219.929 122.25L221.5 125C222.495 126.99 223.202 129.111 223.6 131.3L223.722 131.971C223.907 132.988 224 134.02 224 135.054V135.466C224 137.469 223.603 139.452 222.833 141.3L222.72 141.572C221.917 143.499 220.69 145.22 219.129 146.607C217.724 147.856 216.081 148.806 214.297 149.401L211.933 150.189C210.322 150.726 208.634 151 206.935 151H205.932C204.655 151 203.389 150.765 202.196 150.306C199.23 149.165 196.947 146.731 195.999 143.697L195.6 142.419C195.202 141.147 195 139.822 195 138.489V136.965C195 134.675 195.422 132.404 196.244 130.266L196.357 129.973C197.112 128.008 198.227 126.201 199.643 124.643C201.519 122.579 203.874 121.009 206.5 120.071Z" stroke="black" stroke-width="3"/>
<path d="M15.8633 220.409L18.1699 219.833C19.0533 219.612 19.9604 219.5 20.871 219.5H21.7217C22.8911 219.5 24.0446 219.772 25.0906 220.295C26.0201 220.76 26.8435 221.412 27.5088 222.211L27.9226 222.707C28.6364 223.564 29.2109 224.527 29.625 225.563L29.9027 226.257C30.6276 228.069 31 230.025 31 231.977C31 233.959 30.6218 235.945 29.8858 237.785L29 240L27.9463 241.897C26.9959 243.607 25.6504 245.066 24.022 246.152C22.6869 247.042 21.1904 247.662 19.617 247.977L18.6679 248.166C17.5587 248.388 16.4303 248.5 15.2991 248.5H14.0549C13.0214 248.5 11.991 248.387 10.9821 248.163L10.2122 247.992C8.75416 247.668 7.37408 247.031 6.1792 246.134C4.75637 245.067 3.6208 243.647 2.89847 242.022C2.30608 240.689 2 239.246 2 237.788V237.167C2 235.732 2.23135 234.306 2.68515 232.945L3.04802 231.856C3.6777 229.967 4.63668 228.204 5.8806 226.649C7.27954 224.901 9.01247 223.448 10.9784 222.375L11.3614 222.166C12.7814 221.392 14.2941 220.801 15.8633 220.409Z" stroke="black" stroke-width="3"/>
<path d="M47.9251 335.394L49.4007 335.025C50.795 334.676 52.2267 334.5 53.6639 334.5H54H54.3251C55.7177 334.5 57.0532 335.053 58.0379 336.038C58.6689 336.669 59.1286 337.45 59.3738 338.308L59.6491 339.272C59.8819 340.087 60 340.93 60 341.777V344.5V346.509C60 347.831 59.8378 349.149 59.5171 350.432L59.3377 351.149C59.1135 352.046 58.7727 352.909 58.3238 353.717C57.1441 355.841 55.2686 357.493 53.0131 358.395L51.5 359C49.2336 359.971 46.7052 360.147 44.3263 359.498L43.3324 359.227C42.7788 359.076 42.2415 358.871 41.7283 358.614L40.5322 358.016C39.231 357.366 38.2415 356.225 37.7815 354.844C37.5951 354.285 37.5 353.699 37.5 353.11V351.912C37.5 350.974 37.6027 350.038 37.8064 349.121L38.5 346L39.2365 344.036C39.7433 342.684 40.4249 341.405 41.2639 340.231L41.6831 339.644C42.2255 338.884 42.8628 338.198 43.5797 337.6C44.8436 336.547 46.329 335.793 47.9251 335.394Z" stroke="black" stroke-width="3"/>
<path d="M99.0424 336.472L99.1525 336.398C100.044 335.804 101.031 335.367 102.071 335.107C103.662 334.709 105.33 334.737 106.907 335.188L108 335.5C109.639 336.155 111.08 337.224 112.182 338.603L112.5 339L113.707 340.81C114.233 341.6 114.652 342.456 114.952 343.356C115.315 344.445 115.5 345.585 115.5 346.733V348.945C115.5 349.646 115.423 350.345 115.271 351.03L115.141 351.616C114.727 353.477 113.662 355.129 112.137 356.272C111.063 357.078 109.803 357.6 108.475 357.789L106.999 358C104.713 358.327 102.381 358.003 100.27 357.065L100.07 356.976C99.3589 356.66 98.6858 356.264 98.0633 355.797L97.8439 355.633C96.0087 354.257 94.7265 352.269 94.2288 350.03C94.0767 349.345 94 348.646 94 347.945V346.622C94 345.545 94.1321 344.472 94.3933 343.427L94.4692 343.123C94.8199 341.72 95.4315 340.396 96.2721 339.219L96.4226 339.008C97.1349 338.011 98.0226 337.152 99.0424 336.472Z" stroke="black" stroke-width="3"/>
<path d="M107.949 335.379V335.423" stroke="black" stroke-width="3" stroke-linecap="round"/>
<path d="M80.3301 83C80.2073 83.7241 80.7493 84.8156 81.0469 85.4517C81.7377 86.9282 82.7693 88.5801 84.0038 89.6551C85.0121 90.5332 86.2462 91.419 87.6021 91.6807C89.1551 91.9804 90.681 92.5588 92.2147 92.958C92.9604 93.1522 93.6939 93.3014 94.4592 93.4311C95.3958 93.5899 96.3966 93.8742 97.3463 93.8715C98.2305 93.8691 99.0931 93.861 99.9598 93.6776C100.722 93.5164 101.328 93.1897 102.064 92.9563C103.126 92.6196 104.26 91.8702 105.026 91.0576C105.34 90.7249 105.679 90.4679 105.909 90.0584C106.163 89.6057 106.818 89.1933 106.904 88.681" stroke="black" stroke-width="3" stroke-linecap="round"/>
<path d="M140 131L144.186 130.402C146.06 130.134 147.95 130 149.843 130H154H160.5H161.28C164.741 130 168.184 129.495 171.5 128.5V128.5L178 126.5" stroke="black" stroke-width="3"/>
<path d="M128.5 163.5L129.723 163.194C132.896 162.401 136.154 162 139.424 162H140.5H147H154.5H156.643C160.199 162 163.738 162.474 167.168 163.409L167.5 163.5L170.13 164.158C172.372 164.718 174.562 165.472 176.674 166.411L178 167L182 169" stroke="black" stroke-width="3"/>
<path d="M178.5 127L180.5 135.5L181.5 142.5L182.5 150V156V158.441C182.5 160.477 182.345 162.511 182.035 164.523L181.5 168" stroke="black" stroke-width="3"/>
<path d="M178.002 126.935C178.02 126.793 178.168 126.633 178.294 126.57" stroke="black" stroke-width="3" stroke-linecap="round"/>
<path d="M181.357 166.779C181.357 167.089 181.43 167.374 181.43 167.655C181.43 167.977 181.357 168.318 181.357 168.604" stroke="black" stroke-width="3" stroke-linecap="round"/>
<defs>
<filter id="filter0_d_110_62" x="52.5" y="29" width="84" height="88.5" filterUnits="userSpaceOnUse" color-interpolation-filters="sRGB">
<feFlood flood-opacity="0" result="BackgroundImageFix"/>
<feColorMatrix in="SourceAlpha" type="matrix" values="0 0 0 0 0 0 0 0 0 0 0 0 0 0 0 0 0 0 127 0" result="hardAlpha"/>
<feOffset dy="4"/>
<feGaussianBlur stdDeviation="2"/>
<feComposite in2="hardAlpha" operator="out"/>
<feColorMatrix type="matrix" values="0 0 0 0 0 0 0 0 0 0 0 0 0 0 0 0 0 0 0.25 0"/>
<feBlend mode="normal" in2="BackgroundImageFix" result="effect1_dropShadow_110_62"/>
<feBlend mode="normal" in="SourceGraphic" in2="effect1_dropShadow_110_62" result="shape"/>
</filter>
</defs>
</svg>
