<svg width="363" height="854" viewBox="0 0 363 854" fill="none" xmlns="http://www.w3.org/2000/svg">
<path fill-rule="evenodd" clip-rule="evenodd" d="M196.13 179.818C231.317 179.818 260.048 150.665 260.048 114.445C260.048 78.225 231.317 49.0713 196.13 49.0713C160.944 49.0713 132.213 78.225 132.213 114.445C132.213 150.665 160.944 179.818 196.13 179.818ZM196.13 185.133C234.373 185.133 265.374 153.485 265.374 114.445C265.374 75.4046 234.373 43.7563 196.13 43.7563C157.888 43.7563 126.886 75.4046 126.886 114.445C126.886 153.485 157.888 185.133 196.13 185.133Z" fill="black"/>
<path d="M121.56 103.047C121.56 103.047 131.176 106.2 137.539 106.236C146.369 106.285 151.827 104.957 159.378 100.39L159.592 100.26C166.374 96.1581 170.07 93.9233 173.759 85.5078C177.488 77.004 175.51 82.3187 179.618 72.7519C183.727 63.1852 196.131 71.1572 199.326 72.2202C201.067 72.7992 208.111 68.125 211.577 67.4368C217.349 66.2907 220.742 67.7572 222.23 68.4998C223.535 69.1506 223.022 69.9007 223.295 75.4092C223.468 78.8979 225.017 87.9046 226.491 90.8228C232.168 102.055 241.938 108.536 252.058 110.488C257.917 111.618 268.038 110.488 268.038 110.488C268.038 110.488 266.44 107.299 266.44 102.515C266.44 94.4952 270.143 93.4799 270.168 82.8504C270.209 65.814 266.464 53.7223 253.656 42.457C244.601 34.4925 230.753 28.1063 214.241 32.358C204.632 34.8322 198.261 42.9878 198.261 42.9878C198.261 42.9878 183.88 26.5122 160.443 35.5475C146.986 40.7355 142.043 46.8365 135.942 58.4017C133.367 63.2818 132.509 66.3438 131.148 71.689C128.986 80.1762 130.082 86.5708 127.419 93.4802C125.775 97.7466 121.56 103.047 121.56 103.047Z" fill="black"/>
<path fill-rule="evenodd" clip-rule="evenodd" d="M271.234 123.48C273.905 123.48 277.093 120.755 277.093 116.039C277.093 111.323 273.905 108.598 271.234 108.598C268.563 108.598 265.375 111.323 265.375 116.039C265.375 120.755 268.563 123.48 271.234 123.48ZM271.234 127.732C276.823 127.732 281.354 122.497 281.354 116.039C281.354 109.581 276.823 104.346 271.234 104.346C265.645 104.346 261.114 109.581 261.114 116.039C261.114 122.497 265.645 127.732 271.234 127.732Z" fill="black"/>
<path fill-rule="evenodd" clip-rule="evenodd" d="M119.962 121.353C122.633 121.353 125.821 118.629 125.821 113.913C125.821 109.197 122.633 106.472 119.962 106.472C117.291 106.472 114.103 109.197 114.103 113.913C114.103 118.629 117.291 121.353 119.962 121.353ZM119.962 125.605C125.551 125.605 130.082 120.37 130.082 113.913C130.082 107.455 125.551 102.22 119.962 102.22C114.373 102.22 109.842 107.455 109.842 113.913C109.842 120.37 114.373 125.605 119.962 125.605Z" fill="black"/>
<path d="M180.151 116.039C180.151 118.974 177.766 121.353 174.825 121.353C171.883 121.353 169.498 118.974 169.498 116.039C169.498 113.103 171.883 110.724 174.825 110.724C177.766 110.724 180.151 113.103 180.151 116.039Z" fill="black"/>
<path d="M227.024 117.102C227.024 120.037 224.64 122.417 221.698 122.417C218.756 122.417 216.371 120.037 216.371 117.102C216.371 114.167 218.756 111.787 221.698 111.787C224.64 111.787 227.024 114.167 227.024 117.102Z" fill="black"/>
<path fill-rule="evenodd" clip-rule="evenodd" d="M175.82 142.86C174.78 142.312 173.491 142.708 172.942 143.746C172.391 144.784 172.789 146.07 173.829 146.619L174.825 144.74C173.829 146.619 173.828 146.619 173.829 146.619L173.834 146.622L173.842 146.626L173.869 146.64C173.891 146.652 173.922 146.668 173.963 146.688C174.043 146.729 174.158 146.788 174.307 146.861C174.605 147.007 175.036 147.214 175.586 147.462C176.686 147.96 178.266 148.628 180.211 149.324C184.09 150.712 189.475 152.232 195.429 152.706C201.409 153.181 207.35 152.394 211.752 151.508C213.962 151.064 215.808 150.59 217.106 150.225C217.755 150.043 218.268 149.888 218.623 149.777C218.8 149.722 218.938 149.677 219.034 149.646C219.081 149.63 219.118 149.618 219.145 149.609L219.176 149.599L219.185 149.596L219.189 149.594C219.19 149.594 219.19 149.594 218.502 147.582L219.189 149.594C220.303 149.215 220.898 148.007 220.518 146.895C220.138 145.784 218.928 145.191 217.814 145.57M217.814 145.57L217.811 145.571L217.792 145.577C217.774 145.583 217.746 145.593 217.706 145.605C217.628 145.631 217.508 145.67 217.349 145.72C217.031 145.819 216.557 145.962 215.951 146.133C214.738 146.473 212.998 146.92 210.91 147.34C206.714 148.184 201.202 148.899 195.767 148.467C190.305 148.033 185.304 146.63 181.65 145.322C179.829 144.67 178.356 144.046 177.345 143.589C176.839 143.361 176.45 143.174 176.191 143.047C176.062 142.983 175.965 142.935 175.903 142.903C175.872 142.887 175.849 142.875 175.835 142.868L175.822 142.861L175.82 142.86C175.82 142.86 175.82 142.86 175.82 142.86" fill="black"/>
<path fill-rule="evenodd" clip-rule="evenodd" d="M174.825 178.223C176.295 178.223 177.488 179.413 177.488 180.881V200.014C177.488 201.482 176.295 202.672 174.825 202.672C173.354 202.672 172.161 201.482 172.161 200.014V180.881C172.161 179.413 173.354 178.223 174.825 178.223Z" fill="black"/>
<path fill-rule="evenodd" clip-rule="evenodd" d="M217.437 178.755C218.908 178.755 220.1 179.945 220.1 181.412V199.483C220.1 200.951 218.908 202.141 217.437 202.141C215.966 202.141 214.774 200.951 214.774 199.483V181.412C214.774 179.945 215.966 178.755 217.437 178.755Z" fill="black"/>
<path fill-rule="evenodd" clip-rule="evenodd" d="M217.822 197.293L218.436 197.51L218.44 197.511L218.453 197.516L236.542 203.886C237.085 204.077 237.772 204.314 238.584 204.594C248.092 207.874 274.844 217.1 291.551 229.224C294.742 231.539 298.647 235.46 302.02 239.856C305.375 244.228 308.42 249.35 309.614 254.113C312.441 265.395 312.356 273.814 312.26 283.255C312.22 287.259 312.177 291.447 312.354 296.115C312.582 302.113 312.395 307.108 312.219 311.784C312.176 312.943 312.133 314.082 312.098 315.212C311.919 320.908 311.915 326.499 312.865 333.599C313.793 340.531 316.025 348.938 317.933 355.922C318.071 356.424 318.206 356.919 318.34 357.406C319.123 360.264 319.829 362.841 320.307 364.838C320.585 366 320.807 367.054 320.918 367.897C320.973 368.309 321.014 368.77 320.996 369.213C320.986 369.436 320.959 369.729 320.878 370.045C320.802 370.341 320.633 370.839 320.22 371.31C319.517 372.112 318.547 372.53 317.843 372.773C317.056 373.044 316.14 373.246 315.171 373.404C313.226 373.721 310.753 373.909 308.002 374.01C302.481 374.213 295.527 374.077 288.749 373.81C281.958 373.543 275.29 373.143 270.324 372.81C268.262 372.671 266.492 372.544 265.126 372.443C265.153 372.908 265.183 373.422 265.215 373.982C265.384 376.898 265.621 381.067 265.896 386.082C266.445 396.111 267.145 409.525 267.745 423.057C268.344 436.584 268.845 450.252 268.995 460.782C269.071 466.04 269.059 470.555 268.925 473.89C268.858 475.551 268.759 476.975 268.615 478.075C268.544 478.62 268.454 479.148 268.332 479.611C268.24 479.96 268.031 480.697 267.506 481.309C267.14 481.734 266.698 482.036 266.395 482.225C266.051 482.44 265.661 482.647 265.253 482.845C264.435 483.241 263.395 483.673 262.197 484.13C259.793 485.047 256.578 486.13 252.856 487.303C245.404 489.652 235.783 492.404 226.253 494.967C216.723 497.531 207.249 499.916 200.089 501.53C196.516 502.335 193.477 502.958 191.282 503.312C190.198 503.487 189.238 503.611 188.494 503.647C188.14 503.663 187.701 503.668 187.274 503.604C187.068 503.573 186.722 503.505 186.348 503.331C185.998 503.168 185.286 502.75 184.915 501.842C184.525 500.887 184.396 499.769 184.345 498.828C184.292 497.828 184.316 496.743 184.368 495.716C184.396 495.144 184.434 494.573 184.474 494.027C183.337 494.148 182.11 494.208 180.835 494.226C177.879 494.268 174.388 494.081 170.601 493.736C163.023 493.046 154.08 491.703 145.515 490.168C136.944 488.632 128.702 486.894 122.509 485.402C119.418 484.657 116.806 483.966 114.906 483.385C113.965 483.097 113.145 482.82 112.514 482.562C112.203 482.435 111.874 482.287 111.577 482.116C111.428 482.031 111.239 481.913 111.047 481.759C110.882 481.627 110.558 481.346 110.301 480.898C109.929 480.248 109.756 479.484 109.654 478.914C109.538 478.268 109.456 477.511 109.396 476.682C109.275 475.02 109.229 472.876 109.233 470.379C109.241 465.375 109.453 458.745 109.725 451.281C109.8 449.229 109.88 447.111 109.961 444.945C110.475 431.312 111.061 415.729 111.016 401.99C110.955 383.186 110.295 369.812 109.554 354.787C109.2 347.613 108.827 340.062 108.492 331.365C90.4787 337.255 71.9063 329.839 60.7269 319.417C55.3117 314.368 50.3878 305.284 46.6622 293.871C42.9095 282.374 40.2766 268.22 39.6435 252.741C39.02 237.499 38.8273 227.813 39.1638 221.321C39.5005 214.827 40.3761 211.167 42.152 208.214C42.6316 207.416 43.3407 206.853 43.9415 206.463C44.5784 206.049 45.3197 205.685 46.0992 205.362C47.6601 204.715 49.6287 204.124 51.8066 203.591C56.1787 202.523 61.6997 201.618 67.1849 200.995C72.6694 200.372 78.2122 200.021 82.6305 200.085C84.8293 200.117 86.8351 200.253 88.4477 200.537C89.2516 200.678 90.0381 200.87 90.7342 201.143C91.3795 201.396 92.2297 201.825 92.8555 202.606C93.2352 203.08 93.4969 203.649 93.671 204.069C93.8688 204.545 94.0618 205.1 94.2492 205.696C94.625 206.891 95.0241 208.4 95.4293 210.081C96.2418 213.451 97.116 217.664 97.9172 221.762C98.5642 225.072 99.1674 228.325 99.6567 231.028C101.928 228.187 105.338 224.931 110.027 223.059C112.8 221.952 117.576 220.421 122.792 218.757C123.036 218.679 123.281 218.601 123.526 218.523C128.602 216.903 134.113 215.146 138.888 213.455C146.462 210.775 154.34 207.109 160.355 204.094C163.355 202.59 165.877 201.256 167.647 200.298C168.531 199.82 169.227 199.436 169.7 199.173C169.937 199.041 170.118 198.939 170.238 198.871L170.374 198.795L170.415 198.772L170.416 198.771L171.144 198.356L171.979 198.432L172.131 198.445C172.232 198.454 172.384 198.467 172.58 198.484C172.972 198.518 173.544 198.566 174.259 198.623C175.689 198.737 177.688 198.888 179.963 199.032C184.534 199.321 190.138 199.58 194.473 199.483C198.863 199.385 204.521 198.865 209.132 198.36C211.427 198.109 213.443 197.864 214.884 197.682C215.605 197.59 216.181 197.515 216.576 197.463C216.774 197.437 216.926 197.416 217.029 197.402L217.182 197.382L217.822 197.293ZM154.555 212.772C150.162 214.78 145.375 216.799 140.669 218.464C135.812 220.184 130.228 221.965 125.176 223.576C124.921 223.658 124.667 223.739 124.415 223.819C119.109 225.512 114.558 226.975 112.005 227.994C108.204 229.511 105.365 232.302 103.438 234.832C102.484 236.085 101.781 237.237 101.321 238.069C101.173 238.337 101.051 238.57 100.954 238.761C100.958 238.798 100.961 238.836 100.965 238.875C101.017 239.425 101.092 240.222 101.183 241.216C101.364 243.205 101.608 245.984 101.859 249.149C102.362 255.465 102.9 263.369 103.026 269.587C103.132 274.845 102.997 281.544 102.838 286.898C102.758 289.581 102.671 291.939 102.605 293.626C102.571 294.47 102.543 295.146 102.523 295.612C102.513 295.845 102.505 296.025 102.5 296.147L102.491 296.335C102.491 296.335 102.491 296.336 99.8308 296.214L97.1703 296.093L97.1785 295.912C97.1838 295.792 97.1916 295.614 97.2015 295.384C97.2212 294.924 97.2493 294.254 97.2823 293.417C97.3483 291.743 97.4342 289.403 97.5135 286.74C97.6726 281.402 97.8038 274.814 97.7002 269.694C97.5777 263.641 97.0505 255.866 96.5496 249.57C96.2998 246.429 96.0577 243.67 95.878 241.697C95.7882 240.71 95.714 239.921 95.6624 239.378C95.6366 239.107 95.6164 238.897 95.6027 238.756L95.5909 238.635L95.547 238.378C95.5077 238.15 95.4498 237.813 95.3752 237.384C95.2261 236.525 95.0105 235.294 94.745 233.808C94.214 230.835 93.4845 226.847 92.6893 222.78C91.8929 218.707 91.0361 214.582 90.2506 211.324C89.8569 209.691 89.4903 208.315 89.167 207.286C89.0048 206.771 88.8649 206.379 88.7505 206.104C88.7458 206.092 88.7412 206.081 88.7367 206.071C88.4865 205.978 88.0918 205.871 87.5227 205.771C86.3102 205.558 84.6234 205.43 82.5527 205.4C78.432 205.34 73.1287 205.669 67.7871 206.276C62.4461 206.882 57.1609 207.755 53.0739 208.754C51.0222 209.255 49.3479 209.77 48.1437 210.27C47.5406 210.52 47.1188 210.74 46.8482 210.916C46.7512 210.979 46.6906 211.026 46.6569 211.053C45.5884 212.878 44.799 215.505 44.4832 221.596C44.1612 227.806 44.3409 237.255 44.9655 252.524C45.5804 267.557 48.1367 281.227 51.7268 292.225C55.3439 303.306 59.9162 311.387 64.3632 315.533C74.9234 325.378 92.3058 331.869 108.475 325.734L111.022 289.125L111.023 289.122C111.023 289.122 111.023 289.121 113.68 289.305C116.336 289.489 116.336 289.489 116.336 289.489L116.336 289.493L113.683 327.617C114.045 337.693 114.467 346.256 114.867 354.375C115.612 369.487 116.281 383.059 116.343 401.972C116.388 415.83 115.797 431.537 115.284 445.16C115.202 447.323 115.123 449.433 115.048 451.475C114.775 458.949 114.567 465.49 114.559 470.387C114.555 472.841 114.602 474.831 114.708 476.297C114.753 476.91 114.806 477.399 114.863 477.771C115.261 477.919 115.794 478.097 116.468 478.304C118.219 478.84 120.714 479.502 123.759 480.236C129.838 481.7 137.977 483.417 146.457 484.937C154.942 486.457 163.719 487.772 171.086 488.443C174.772 488.779 178.06 488.95 180.761 488.912C182.473 488.888 183.852 488.78 184.905 488.612C186.84 467.543 187.222 455.087 186.653 433.409C186.314 420.505 185.335 412.367 184.438 405.72C184.344 405.019 184.25 404.332 184.157 403.655C183.371 397.916 182.69 392.943 182.69 386.569C182.69 383.815 182.612 379.811 182.523 375.247C182.457 371.887 182.385 368.223 182.335 364.53C182.219 356.112 182.211 347.506 182.674 342.502C180.601 326.764 181.613 316.822 186.796 301.731C188.131 297.844 190.363 293.187 192.215 289.573C193.15 287.75 194.003 286.163 194.623 285.031C194.669 284.947 194.714 284.865 194.757 284.787C194.407 284.355 193.98 283.833 193.485 283.235C191.98 281.418 189.85 278.908 187.352 276.142C182.317 270.567 175.931 264.115 170.212 260.126C165.412 256.779 158.673 253.563 152.946 251.069C150.423 249.971 148.136 249.029 146.333 248.286C146.104 248.192 145.882 248.101 145.669 248.013C144.735 247.627 143.936 247.296 143.355 247.039C143.068 246.913 142.793 246.786 142.565 246.669C142.454 246.612 142.31 246.534 142.164 246.441C142.162 246.44 142.16 246.439 142.157 246.437C142.089 246.395 141.67 246.135 141.34 245.674C140.936 245.109 140.78 244.511 140.708 244.111C140.631 243.678 140.612 243.24 140.619 242.838C140.633 242.032 140.757 241.108 140.946 240.137C141.327 238.181 142.035 235.73 143.007 233.069C144.949 227.754 148.045 221.319 152.021 215.971C152.853 214.852 153.702 213.785 154.555 212.772ZM197.952 284.521L200.326 285.726L200.298 285.782L200.266 285.837L200.263 285.843L200.251 285.864L200.202 285.95C200.159 286.027 200.094 286.142 200.01 286.292C199.842 286.591 199.598 287.029 199.297 287.579C198.695 288.679 197.865 290.223 196.958 291.993C195.126 295.566 193.04 299.944 191.835 303.454C188.594 312.889 187.086 320.066 186.997 328.136C196.958 300.204 212.445 280.604 226.186 267.373C234.122 259.732 241.47 254.22 246.818 250.46C248.153 249.521 249.363 248.692 250.421 247.97C250.59 247.854 250.756 247.741 250.917 247.631C251.766 247.052 252.492 246.556 253.104 246.127C253.575 245.797 253.942 245.53 254.221 245.316C254.124 244.56 253.928 243.479 253.6 242.116C253.108 240.078 252.36 237.575 251.346 234.898C249.301 229.501 246.259 223.62 242.242 219.38C237.212 214.071 231.476 210.099 226.68 207.338C228.261 210.879 229.185 215.379 228.149 220.717C227.298 225.108 225.086 231.394 222.348 238.201C219.589 245.062 216.22 252.631 212.962 259.661C209.703 266.694 206.545 273.208 204.203 277.962C203.031 280.34 202.063 282.279 201.387 283.624C201.05 284.297 200.785 284.822 200.604 285.178C200.514 285.357 200.445 285.493 200.398 285.585L200.331 285.717L200.327 285.724L200.326 285.726C200.326 285.727 200.326 285.726 197.952 284.521ZM241.34 211.186C242.961 212.582 244.565 214.095 246.113 215.729C250.809 220.686 254.159 227.294 256.328 233.019C257.421 235.902 258.234 238.618 258.778 240.872C259.306 243.063 259.624 244.998 259.624 246.255C259.624 247.313 259.039 248.04 258.882 248.235C258.632 248.544 258.341 248.813 258.096 249.024C257.593 249.455 256.917 249.949 256.168 250.474C255.525 250.926 254.763 251.446 253.915 252.024C253.755 252.133 253.593 252.244 253.428 252.356C252.377 253.074 251.191 253.887 249.886 254.805C244.673 258.47 237.559 263.809 229.885 271.197C214.577 285.937 197.021 308.852 187.984 342.924C187.547 347.564 187.543 355.91 187.661 364.457C187.71 368.059 187.781 371.69 187.846 375.047C187.937 379.673 188.017 383.779 188.017 386.569C188.017 392.564 188.649 397.187 189.437 402.949C189.528 403.619 189.622 404.305 189.717 405.011C190.63 411.78 191.632 420.118 191.978 433.27C192.569 455.772 192.141 468.523 190.04 490.913C190.017 491.519 189.954 492.294 189.892 493.076L189.882 493.195C189.81 494.087 189.734 495.04 189.687 495.982C189.647 496.779 189.63 497.528 189.649 498.185C189.887 498.151 190.147 498.112 190.43 498.066C192.462 497.737 195.374 497.143 198.915 496.345C205.981 494.753 215.379 492.388 224.867 489.836C234.354 487.283 243.897 484.553 251.252 482.235C254.935 481.074 258.035 480.027 260.295 479.165C261.429 478.733 262.308 478.363 262.926 478.063C263.053 478.002 263.163 477.947 263.256 477.897C263.281 477.758 263.307 477.589 263.334 477.386C263.447 476.52 263.538 475.279 263.603 473.677C263.731 470.488 263.744 466.087 263.669 460.857C263.52 450.409 263.022 436.805 262.423 423.292C261.825 409.785 261.126 396.391 260.577 386.373C260.303 381.364 260.066 377.2 259.897 374.288C259.813 372.832 259.746 371.69 259.7 370.911L259.636 369.835L259.626 369.764C259.608 369.642 259.582 369.462 259.549 369.229C259.483 368.764 259.389 368.089 259.278 367.241C259.055 365.547 258.762 363.159 258.476 360.38C257.907 354.845 257.362 347.676 257.494 341.337C257.595 336.495 258.2 331.274 258.754 326.48C258.831 325.817 258.907 325.162 258.98 324.518C259.602 319.057 260.025 314.501 259.645 311.421C259.277 308.447 258.747 304.613 258.307 301.513C258.088 299.965 257.891 298.604 257.75 297.63C257.679 297.143 257.622 296.753 257.583 296.485L257.522 296.071C257.308 294.619 258.314 293.269 259.769 293.055C261.224 292.841 262.577 293.844 262.792 295.296L262.792 295.298L262.853 295.715C262.893 295.985 262.95 296.378 263.021 296.867C263.163 297.845 263.361 299.213 263.581 300.768C264.022 303.874 264.557 307.747 264.931 310.771C265.405 314.602 264.874 319.837 264.273 325.118C264.198 325.776 264.121 326.438 264.045 327.102C263.487 331.926 262.915 336.876 262.819 341.447C262.694 347.463 263.214 354.379 263.775 359.838C264.054 362.558 264.342 364.895 264.559 366.551C264.583 366.735 264.607 366.91 264.629 367.076C264.665 367.079 264.701 367.082 264.738 367.085C266.167 367.192 268.213 367.341 270.681 367.507C275.618 367.838 282.233 368.235 288.958 368.5C295.696 368.765 302.49 368.894 307.806 368.699C310.473 368.601 312.69 368.423 314.313 368.158C314.796 368.08 315.199 367.998 315.528 367.916C315.436 367.424 315.302 366.81 315.126 366.073C314.67 364.167 313.992 361.691 313.206 358.822C313.072 358.333 312.934 357.832 312.795 357.32C310.901 350.392 308.568 341.644 307.586 334.303C306.581 326.796 306.591 320.883 306.774 315.045C306.811 313.863 306.855 312.69 306.899 311.51C307.073 306.854 307.251 302.095 307.032 296.316C306.834 291.115 306.882 286.681 306.925 282.579C307.023 273.471 307.102 265.999 304.446 255.403C303.509 251.663 300.961 247.218 297.791 243.087C294.639 238.979 291.088 235.459 288.419 233.522C274.488 223.413 253.014 215.308 241.34 211.186ZM263.148 478.365C263.147 478.365 263.152 478.348 263.164 478.319C263.154 478.351 263.148 478.365 263.148 478.365ZM216.78 202.797C216.438 202.842 216.026 202.895 215.553 202.954C214.09 203.139 212.044 203.388 209.713 203.643C205.074 204.151 199.225 204.693 194.592 204.797C190.018 204.899 184.224 204.627 179.625 204.336C177.315 204.19 175.286 204.037 173.834 203.921C173.38 203.885 172.982 203.852 172.65 203.824C172.498 203.974 172.328 204.149 172.145 204.351C171.383 205.188 170.414 206.453 169.616 208.13C168.06 211.403 167.042 216.466 169.937 223.448C173.08 231.025 180.639 245.929 187.474 259.047C190.879 265.581 194.086 271.636 196.441 276.058C196.963 277.038 197.443 277.937 197.875 278.744C198.336 277.818 198.855 276.77 199.423 275.618C201.753 270.888 204.891 264.414 208.128 257.43C211.366 250.442 214.693 242.963 217.405 236.221C220.139 229.426 222.174 223.554 222.92 219.707C224.012 214.077 222.297 209.733 220.274 206.733C219.255 205.222 218.163 204.064 217.331 203.289C217.129 203.101 216.944 202.937 216.78 202.797ZM185.134 266.062C184.356 264.578 183.558 263.052 182.748 261.499C175.944 248.44 168.265 233.315 165.015 225.48C162.751 220.019 162.42 215.314 163.058 211.436C160.843 213.599 158.503 216.173 156.299 219.138C152.707 223.969 149.828 229.916 148.011 234.89C147.104 237.374 146.487 239.545 146.174 241.15C146.079 241.641 146.017 242.052 145.982 242.383C146.441 242.579 147.017 242.818 147.703 243.101C147.914 243.188 148.135 243.279 148.364 243.373C150.165 244.115 152.501 245.077 155.076 246.198C160.839 248.707 167.998 252.097 173.263 255.77C177.207 258.52 181.342 262.261 185.134 266.062ZM113.68 289.305L116.336 289.489C116.438 288.025 115.331 286.755 113.864 286.654C112.397 286.552 111.125 287.657 111.023 289.121L113.68 289.305ZM99.8308 296.214L97.1703 296.093C97.1032 297.559 98.2398 298.802 99.7092 298.869C101.178 298.936 102.424 297.801 102.491 296.335L99.8308 296.214Z" fill="black"/>
<path d="M182.481 204.266C182.481 202.674 209.935 202.583 209.646 203.735C209.402 204.706 207.997 211.356 205.387 215.141C202.289 219.633 197.93 222.047 197.93 222.047C197.93 222.047 214.443 247.031 212.313 251.283C211.452 253 196.866 276.263 196.866 276.263C196.866 276.263 181.964 250.124 181.418 248.625C179.289 242.779 194.736 222.047 194.736 222.047C194.736 222.047 189.78 218.854 186.744 215.141C184.237 212.076 182.482 206.249 182.481 204.266Z" fill="black"/>
<path fill-rule="evenodd" clip-rule="evenodd" d="M185.482 206.147C185.647 206.793 185.877 207.559 186.179 208.398C186.887 210.361 187.829 212.264 188.808 213.461C190.143 215.093 191.963 216.679 193.519 217.892C194.284 218.489 194.959 218.976 195.44 219.312C195.479 219.339 195.516 219.365 195.551 219.389H197.18C197.189 219.383 197.198 219.377 197.208 219.371C197.606 219.113 198.18 218.718 198.845 218.193C200.186 217.136 201.84 215.596 203.193 213.634C204.264 212.081 205.174 209.784 205.862 207.589C206.06 206.959 206.232 206.363 206.38 205.82C206.075 205.799 205.744 205.78 205.389 205.762C202.928 205.637 199.581 205.59 196.203 205.628C192.82 205.667 189.468 205.79 186.988 205.997C186.422 206.044 185.919 206.095 185.482 206.147ZM191.006 222.667C190.762 222.484 190.505 222.288 190.238 222.08C188.557 220.768 186.381 218.901 184.681 216.821C183.153 214.953 181.964 212.409 181.167 210.197C180.39 208.041 179.819 205.734 179.818 204.266C179.818 203.179 180.419 202.47 180.774 202.149C181.129 201.829 181.499 201.647 181.721 201.551C182.183 201.349 182.697 201.222 183.128 201.135C184.035 200.95 185.231 200.81 186.544 200.701C189.203 200.479 192.697 200.353 196.142 200.314C199.59 200.274 203.054 200.321 205.659 200.454C206.948 200.519 208.096 200.609 208.944 200.731C209.342 200.789 209.817 200.873 210.239 201.015C210.419 201.075 210.825 201.221 211.224 201.529C211.605 201.823 212.62 202.826 212.23 204.38C212.214 204.442 212.19 204.545 212.158 204.682C211.984 205.424 211.569 207.19 210.945 209.177C210.218 211.495 209.119 214.416 207.581 216.647C205.836 219.177 203.761 221.091 202.148 222.363C201.954 222.516 201.766 222.66 201.586 222.796C201.923 223.323 202.309 223.931 202.733 224.604C204.26 227.032 206.279 230.323 208.235 233.756C210.183 237.174 212.107 240.801 213.416 243.884C214.068 245.417 214.606 246.906 214.904 248.218C215.053 248.875 215.159 249.56 215.166 250.228C215.172 250.874 215.087 251.688 214.695 252.471C214.413 253.034 213.249 254.952 211.807 257.299C210.314 259.728 208.407 262.802 206.529 265.819C204.651 268.836 202.799 271.799 201.418 274.008C200.727 275.112 200.154 276.028 199.753 276.668L199.124 277.671C199.124 277.671 199.124 277.672 196.866 276.262C194.551 277.576 194.551 277.576 194.551 277.576L193.909 276.449C193.5 275.731 192.915 274.703 192.212 273.465C190.806 270.99 188.925 267.674 187.026 264.31C185.128 260.947 183.21 257.532 181.731 254.861C180.992 253.527 180.358 252.37 179.89 251.495C179.483 250.735 179.066 249.946 178.915 249.533C178.407 248.137 178.51 246.611 178.764 245.299C179.03 243.932 179.529 242.46 180.14 240.988C181.365 238.039 183.176 234.767 185.001 231.765C186.837 228.747 188.733 225.925 190.167 223.863C190.468 223.43 190.749 223.029 191.006 222.667ZM196.866 276.262L194.551 277.576L196.757 281.446L199.124 277.672L196.866 276.262ZM196.975 271.072C198.347 268.879 200.163 265.972 202.004 263.014C203.881 260 205.781 256.937 207.266 254.521C208.008 253.312 208.644 252.271 209.118 251.482C209.356 251.086 209.549 250.76 209.695 250.511C209.752 250.412 209.8 250.329 209.839 250.26C209.835 250.093 209.804 249.811 209.709 249.393C209.512 248.524 209.11 247.364 208.512 245.957C207.324 243.16 205.52 239.743 203.605 236.384C201.7 233.04 199.724 229.819 198.221 227.429C197.518 226.312 196.921 225.379 196.484 224.704H196.091C195.693 225.257 195.162 226.003 194.544 226.892C193.148 228.9 191.316 231.626 189.555 234.522C187.785 237.434 186.134 240.44 185.061 243.023C184.524 244.317 184.165 245.424 183.994 246.309C183.811 247.251 183.897 247.651 183.921 247.717C183.917 247.705 183.93 247.731 183.966 247.803C184.046 247.959 184.235 248.333 184.587 248.99C185.038 249.832 185.658 250.963 186.393 252.29C187.862 254.942 189.771 258.342 191.667 261.702C193.562 265.06 195.441 268.372 196.846 270.844C196.889 270.921 196.933 270.997 196.975 271.072Z" fill="black"/>
<path fill-rule="evenodd" clip-rule="evenodd" d="M67.2302 184.07C76.0553 184.07 83.2096 176.931 83.2096 168.125C83.2096 159.319 76.0553 152.18 67.2302 152.18C58.405 152.18 51.2508 159.319 51.2508 168.125C51.2508 176.931 58.405 184.07 67.2302 184.07ZM67.2302 189.385C78.9971 189.385 88.536 179.866 88.536 168.125C88.536 156.384 78.9971 146.865 67.2302 146.865C55.4633 146.865 45.9243 156.384 45.9243 168.125C45.9243 179.866 55.4633 189.385 67.2302 189.385Z" fill="black"/>
<path fill-rule="evenodd" clip-rule="evenodd" d="M292.007 424.304C300.832 424.304 307.986 417.165 307.986 408.359C307.986 399.553 300.832 392.415 292.007 392.415C283.182 392.415 276.028 399.553 276.028 408.359C276.028 417.165 283.182 424.304 292.007 424.304ZM292.007 429.619C303.774 429.619 313.313 420.101 313.313 408.359C313.313 396.618 303.774 387.1 292.007 387.1C280.24 387.1 270.701 396.618 270.701 408.359C270.701 420.101 280.24 429.619 292.007 429.619Z" fill="black"/>
<path fill-rule="evenodd" clip-rule="evenodd" d="M147.66 787.845C159.721 787.845 169.499 778.089 169.499 766.054C169.499 754.019 159.721 744.263 147.66 744.263C135.599 744.263 125.822 754.019 125.822 766.054C125.822 778.089 135.599 787.845 147.66 787.845ZM147.66 793.16C162.663 793.16 174.825 781.024 174.825 766.054C174.825 751.084 162.663 738.948 147.66 738.948C132.657 738.948 120.495 751.084 120.495 766.054C120.495 781.024 132.657 793.16 147.66 793.16Z" fill="black"/>
<path fill-rule="evenodd" clip-rule="evenodd" d="M224.361 787.845C236.422 787.845 246.2 778.089 246.2 766.054C246.2 754.019 236.422 744.263 224.361 744.263C212.3 744.263 202.523 754.019 202.523 766.054C202.523 778.089 212.3 787.845 224.361 787.845ZM224.361 793.16C239.364 793.16 251.526 781.024 251.526 766.054C251.526 751.084 239.364 738.948 224.361 738.948C209.358 738.948 197.196 751.084 197.196 766.054C197.196 781.024 209.358 793.16 224.361 793.16Z" fill="black"/>
<path fill-rule="evenodd" clip-rule="evenodd" d="M123.157 480.695L122.625 483.299L119.963 483.244L120.029 480.06L123.157 480.695ZM184.33 493.78C184.058 493.765 183.767 493.748 183.46 493.73C181.325 493.607 178.39 493.433 175.187 493.228C168.806 492.819 161.282 492.284 156.943 491.786C150.123 491.003 141.396 489.528 134.413 488.258C130.913 487.621 127.835 487.033 125.632 486.604C125.493 486.577 125.357 486.55 125.224 486.524C125.192 488.187 125.148 490.47 125.096 493.295C124.978 499.628 124.818 508.681 124.647 519.565C124.306 541.335 123.924 570.425 123.757 599.711C123.591 629.003 123.641 658.47 124.165 681.003C124.427 692.275 124.806 701.773 125.332 708.634C125.596 712.072 125.892 714.79 126.217 716.716C126.381 717.684 126.541 718.384 126.685 718.847C126.718 718.953 126.746 719.035 126.77 719.098C127.276 719.489 128.124 719.934 129.407 720.361C130.846 720.839 132.649 721.233 134.741 721.535C138.923 722.138 144.024 722.336 149.19 722.206C154.349 722.076 159.49 721.619 163.735 720.943C165.859 720.604 167.725 720.216 169.239 719.798C170.48 719.455 171.381 719.119 171.972 718.827C172.098 718.511 172.256 718.009 172.433 717.281C172.809 715.737 173.191 713.504 173.573 710.628C174.334 704.896 175.058 696.888 175.748 687.334C177.126 668.241 178.356 643.161 179.488 618.178C179.82 610.851 180.144 603.531 180.46 596.375C181.222 579.153 181.941 562.88 182.635 549.729C183.126 540.424 183.607 532.646 184.083 527.183C184.321 524.462 184.562 522.257 184.811 520.708C184.934 519.952 185.074 519.247 185.248 518.688C185.329 518.428 185.465 518.04 185.694 517.666L185.696 517.662C185.811 517.476 186.56 516.252 188.141 516.252C189.227 516.252 189.975 516.827 190.299 517.114C190.678 517.449 190.977 517.841 191.206 518.179C191.672 518.866 192.131 519.766 192.579 520.767C193.489 522.8 194.538 525.673 195.667 529.166C197.934 536.175 200.604 545.935 203.204 557.045C208.398 579.242 213.366 607.066 214.238 629.356C214.95 647.548 212.116 669.441 209.75 687.298C209.693 687.732 209.635 688.164 209.578 688.594C208.458 697.048 207.469 704.509 207.015 710.272C206.776 713.304 206.694 715.766 206.801 717.603C206.854 718.522 206.951 719.212 207.071 719.702C207.167 720.094 207.252 720.251 207.263 720.275C207.393 720.415 207.903 720.801 209.198 721.217C210.463 721.623 212.15 721.956 214.189 722.199C218.257 722.682 223.395 722.769 228.638 722.54C233.872 722.311 239.118 721.773 243.383 721.04C245.518 720.672 247.366 720.263 248.824 719.834C250.355 719.383 251.211 718.979 251.557 718.727C251.552 718.731 251.55 718.732 251.55 718.732C251.549 718.731 251.701 718.596 251.968 718.16C252.246 717.705 252.567 717.06 252.92 716.201C253.624 714.485 254.368 712.13 255.124 709.211C256.633 703.386 258.127 695.576 259.46 686.718C262.124 669.007 264.108 647.339 264.309 629.43C264.617 601.954 259.204 566.565 253.672 537.923C250.911 523.627 248.13 511.061 246.04 502.069C244.995 497.574 244.122 493.973 243.512 491.498C243.403 491.058 243.303 490.653 243.212 490.285C241.706 490.686 239.619 491.241 237.135 491.897C231.913 493.277 224.931 495.106 217.897 496.902C210.867 498.697 203.768 500.464 198.318 501.717C195.598 502.343 193.257 502.848 191.529 503.164C190.672 503.321 189.915 503.441 189.316 503.502C189.024 503.532 188.701 503.556 188.392 503.549C188.239 503.546 188.027 503.535 187.792 503.494C187.61 503.462 187.143 503.369 186.663 503.05C185.807 502.48 185.385 501.645 185.175 501.137C184.938 500.564 184.786 499.944 184.681 499.377C184.47 498.233 184.382 496.914 184.347 495.735C184.327 495.052 184.324 494.384 184.33 493.78ZM245.134 487.02C247.713 486.356 247.713 486.357 247.713 486.358L247.714 486.361L247.718 486.374L247.779 486.614C247.822 486.782 247.886 487.032 247.969 487.36C248.134 488.014 248.376 488.98 248.684 490.228C249.3 492.723 250.177 496.347 251.228 500.868C253.33 509.908 256.126 522.542 258.902 536.917C264.445 565.614 269.95 601.445 269.635 629.489C269.431 647.684 267.421 669.599 264.727 687.507C263.381 696.459 261.854 704.468 260.281 710.541C259.496 713.571 258.682 716.184 257.849 718.215C257.432 719.23 256.989 720.154 256.513 720.932C256.057 721.675 255.466 722.462 254.69 723.026C253.571 723.837 251.98 724.446 250.332 724.931C248.611 725.438 246.547 725.889 244.288 726.277C239.764 727.055 234.29 727.613 228.871 727.85C223.462 728.086 218.013 728.006 213.559 727.476C211.338 727.212 209.28 726.827 207.565 726.276C205.942 725.755 204.223 724.962 203.125 723.622C202.465 722.817 202.11 721.839 201.896 720.96C201.673 720.047 201.547 719.011 201.483 717.911C201.355 715.712 201.459 712.967 201.705 709.856C202.17 703.946 203.177 696.355 204.287 687.978C204.348 687.522 204.409 687.063 204.47 686.602C206.849 668.642 209.607 647.218 208.916 629.563C208.063 607.759 203.178 580.308 198.017 558.253C195.439 547.238 192.806 537.627 190.598 530.798C190.187 529.526 189.793 528.358 189.42 527.303C189.41 527.415 189.4 527.529 189.39 527.644C188.922 533.01 188.445 540.711 187.954 550.009C187.261 563.136 186.544 579.372 185.783 596.582C185.466 603.744 185.142 611.074 184.809 618.418C183.678 643.396 182.445 668.542 181.06 687.716C180.368 697.296 179.636 705.432 178.853 711.326C178.463 714.264 178.052 716.715 177.61 718.534C177.391 719.436 177.144 720.267 176.855 720.953C176.71 721.297 176.528 721.667 176.297 722.012C176.08 722.336 175.718 722.794 175.156 723.14C173.97 723.868 172.378 724.445 170.661 724.92C168.9 725.406 166.829 725.832 164.575 726.191C160.065 726.91 154.686 727.384 149.325 727.519C143.971 727.654 138.552 727.454 133.979 726.795C131.694 726.466 129.56 726.013 127.724 725.403C125.927 724.806 124.214 723.994 122.95 722.829C122.5 722.415 122.222 721.935 122.051 721.589C121.867 721.215 121.719 720.814 121.597 720.42C121.353 719.635 121.147 718.674 120.965 717.599C120.6 715.437 120.289 712.534 120.021 709.04C119.484 702.036 119.102 692.425 118.84 681.126C118.314 658.515 118.265 628.986 118.431 599.681C118.597 570.371 118.98 541.262 119.322 519.482C119.492 508.592 119.652 499.533 119.77 493.197C119.829 490.029 119.877 487.541 119.91 485.845C119.927 484.997 119.94 484.347 119.949 483.909L119.962 483.247C119.963 483.245 119.963 483.244 122.625 483.299L123.157 480.695L123.393 480.743C123.55 480.775 123.782 480.821 124.083 480.881C124.684 481.001 125.56 481.175 126.653 481.387C128.839 481.813 131.894 482.397 135.368 483.029C142.332 484.296 150.916 485.744 157.552 486.506C161.735 486.986 169.125 487.514 175.528 487.924C178.717 488.128 181.641 488.301 183.767 488.424C184.83 488.485 185.694 488.534 186.292 488.567C186.59 488.584 186.823 488.597 186.98 488.605L187.219 488.618C187.219 488.618 187.219 488.618 187.076 491.272L187.219 488.618L189.901 488.763L189.734 491.437L189.734 491.44L189.733 491.454L189.729 491.516C189.726 491.573 189.721 491.658 189.716 491.768C189.705 491.989 189.691 492.31 189.679 492.698C189.655 493.48 189.64 494.52 189.671 495.578C189.698 496.496 189.759 497.361 189.861 498.06C190.075 498.024 190.311 497.983 190.568 497.936C192.175 497.642 194.424 497.159 197.122 496.538C202.508 495.3 209.557 493.546 216.576 491.753C223.591 489.962 230.558 488.137 235.772 486.76C238.379 486.071 240.547 485.494 242.063 485.09C242.821 484.888 243.416 484.729 243.821 484.62L244.441 484.454C244.442 484.454 244.442 484.454 245.134 487.02ZM190.117 499.149C190.117 499.15 190.112 499.14 190.102 499.118C190.113 499.137 190.118 499.148 190.117 499.149ZM245.134 487.02L244.441 484.454L247.041 483.755L247.713 486.356L245.134 487.02Z" fill="black"/>
</svg>
