<svg width="363" height="831" viewBox="0 0 363 831" fill="none" xmlns="http://www.w3.org/2000/svg">
<path fill-rule="evenodd" clip-rule="evenodd" d="M207.338 183.818C242.449 183.818 271.117 154.664 271.117 118.445C271.117 82.2247 242.449 53.0708 207.338 53.0708C172.227 53.0708 143.559 82.2247 143.559 118.445C143.559 154.664 172.227 183.818 207.338 183.818ZM207.338 189.133C245.498 189.133 276.432 157.485 276.432 118.445C276.432 79.4043 245.498 47.7559 207.338 47.7559C169.178 47.7559 138.244 79.4043 138.244 118.445C138.244 157.485 169.178 189.133 207.338 189.133Z" fill="black"/>
<path d="M132.929 107.047C132.929 107.047 142.523 110.201 148.874 110.236C157.684 110.285 163.13 108.957 170.665 104.39L170.879 104.26C177.646 100.158 181.333 97.9235 185.015 89.5079C188.736 81.0041 186.761 86.3189 190.862 76.7521C194.962 67.1853 207.338 75.1574 210.527 76.2204C212.264 76.7993 219.293 72.1252 222.751 71.4369C228.51 70.2909 231.896 71.7574 233.381 72.4999C234.683 73.1507 234.172 73.9009 234.444 79.4093C234.617 82.898 236.161 91.9048 237.633 94.823C243.297 106.055 253.046 112.536 263.145 114.488C268.991 115.619 279.09 114.488 279.09 114.488C279.09 114.488 277.495 111.299 277.495 106.516C277.495 98.4955 281.19 97.4801 281.216 86.8506C281.256 69.8141 277.519 57.7224 264.739 46.457C255.704 38.4925 241.885 32.1063 225.409 36.358C215.821 38.8322 209.464 46.9878 209.464 46.9878C209.464 46.9878 195.114 30.5122 171.728 39.5475C158.3 44.7355 153.367 50.8365 147.279 62.4018C144.71 67.2819 143.854 70.344 142.496 75.6891C140.339 84.1764 141.433 90.571 138.775 97.4804C137.134 101.747 132.929 107.047 132.929 107.047Z" fill="black"/>
<path fill-rule="evenodd" clip-rule="evenodd" d="M198.885 145.017C195.952 143.734 194.102 143.007 191.542 143.679C190.217 144.027 189.443 144.578 188.986 145.135C188.527 145.693 188.262 146.407 188.212 147.296C188.109 149.153 188.979 151.546 190.564 153.617C191.203 154.451 192.293 155.314 193.828 156.14C195.344 156.956 197.178 157.673 199.174 158.271C203.175 159.47 207.625 160.131 211.052 160.211C217.57 160.362 223.235 159.289 227.76 156.177C230.14 154.541 231.96 152.636 232.669 150.827C233.004 149.969 233.075 149.175 232.89 148.414C232.704 147.645 232.212 146.73 231.121 145.712C230.164 144.82 229.257 144.498 228.263 144.444C227.165 144.385 225.876 144.648 224.177 145.152C223.607 145.321 223 145.515 222.356 145.721C219.327 146.691 215.489 147.921 211.01 147.936C205.591 147.954 201.945 146.358 199.039 145.085C198.987 145.062 198.936 145.04 198.885 145.017ZM200.664 141.155C203.516 142.403 206.477 143.699 210.995 143.684C214.756 143.671 217.86 142.684 220.867 141.728C221.57 141.505 222.268 141.283 222.969 141.075C224.738 140.551 226.621 140.098 228.491 140.198C230.465 140.305 232.323 141.019 234.021 142.603C235.585 144.061 236.6 145.672 237.022 147.41C237.446 149.154 237.228 150.844 236.628 152.376C235.465 155.349 232.827 157.854 230.169 159.681C224.62 163.497 217.937 164.623 210.953 164.462C207.142 164.373 202.314 163.651 197.953 162.344C195.768 161.689 193.651 160.873 191.814 159.885C189.997 158.908 188.334 157.698 187.188 156.202C185.205 153.612 183.79 150.241 183.967 147.059C184.058 145.428 184.575 143.805 185.7 142.435C186.827 141.064 188.439 140.097 190.462 139.566C194.571 138.487 197.67 139.844 200.528 141.095L200.664 141.155Z" fill="black"/>
<path fill-rule="evenodd" clip-rule="evenodd" d="M208.401 162.559V145.551H212.653V162.559H208.401Z" fill="black"/>
<path fill-rule="evenodd" clip-rule="evenodd" d="M223.211 161.244L219.102 144.74L223.229 143.713L227.337 160.217L223.211 161.244Z" fill="black"/>
<path fill-rule="evenodd" clip-rule="evenodd" d="M192.456 159.426L198.221 143.425L202.221 144.866L196.456 160.867L192.456 159.426Z" fill="black"/>
<path fill-rule="evenodd" clip-rule="evenodd" d="M282.279 127.48C284.944 127.48 288.125 124.755 288.125 120.039C288.125 115.323 284.944 112.598 282.279 112.598C279.613 112.598 276.432 115.323 276.432 120.039C276.432 124.755 279.613 127.48 282.279 127.48ZM282.279 131.732C287.856 131.732 292.377 126.497 292.377 120.039C292.377 113.581 287.856 108.346 282.279 108.346C276.701 108.346 272.18 113.581 272.18 120.039C272.18 126.497 276.701 131.732 282.279 131.732Z" fill="black"/>
<path fill-rule="evenodd" clip-rule="evenodd" d="M131.334 125.354C133.999 125.354 137.181 122.629 137.181 117.913C137.181 113.197 133.999 110.472 131.334 110.472C128.669 110.472 125.488 113.197 125.488 117.913C125.488 122.629 128.669 125.354 131.334 125.354ZM131.334 129.606C136.911 129.606 141.433 124.371 141.433 117.913C141.433 111.455 136.911 106.22 131.334 106.22C125.757 106.22 121.236 111.455 121.236 117.913C121.236 124.371 125.757 129.606 131.334 129.606Z" fill="black"/>
<path d="M191.393 120.039C191.393 122.974 189.013 125.354 186.078 125.354C183.143 125.354 180.763 122.974 180.763 120.039C180.763 117.104 183.143 114.724 186.078 114.724C189.013 114.724 191.393 117.104 191.393 120.039Z" fill="black"/>
<path d="M238.165 121.102C238.165 124.037 235.785 126.417 232.85 126.417C229.914 126.417 227.535 124.037 227.535 121.102C227.535 118.167 229.914 115.787 232.85 115.787C235.785 115.787 238.165 118.167 238.165 121.102Z" fill="black"/>
<path fill-rule="evenodd" clip-rule="evenodd" d="M187.141 182.224C188.609 182.224 189.799 183.413 189.799 184.881V204.015C189.799 205.483 188.609 206.672 187.141 206.672C185.673 206.672 184.484 205.483 184.484 204.015V184.881C184.484 183.413 185.673 182.224 187.141 182.224Z" fill="black"/>
<path fill-rule="evenodd" clip-rule="evenodd" d="M229.661 182.755C231.128 182.755 232.318 183.945 232.318 185.413V203.484C232.318 204.951 231.128 206.141 229.661 206.141C228.193 206.141 227.003 204.951 227.003 203.484V185.413C227.003 183.945 228.193 182.755 229.661 182.755Z" fill="black"/>
<path fill-rule="evenodd" clip-rule="evenodd" d="M230.045 201.294L230.657 201.51L230.662 201.512L230.675 201.517L248.724 207.887C249.267 208.078 249.952 208.315 250.762 208.595C260.25 211.875 286.944 221.101 303.615 233.225C306.798 235.54 310.696 239.461 314.061 243.857C317.409 248.229 320.447 253.351 321.638 258.114C324.46 269.396 324.374 277.815 324.279 287.256C324.238 291.26 324.196 295.448 324.373 300.116C324.6 306.114 324.413 311.11 324.238 315.786C324.195 316.944 324.152 318.083 324.117 319.213C323.938 324.91 323.935 330.5 324.883 337.601C325.808 344.532 328.035 352.94 329.94 359.923C330.077 360.425 330.212 360.919 330.345 361.406C331.126 364.264 331.831 366.842 332.308 368.84C332.585 370.002 332.808 371.056 332.918 371.898C332.972 372.311 333.014 372.772 332.995 373.215C332.986 373.437 332.959 373.73 332.878 374.047C332.802 374.342 332.633 374.841 332.222 375.311C331.52 376.114 330.552 376.532 329.85 376.774C329.065 377.046 328.151 377.248 327.184 377.405C325.242 377.722 322.775 377.91 320.03 378.012C314.521 378.215 307.582 378.079 300.818 377.812C294.042 377.545 287.388 377.144 282.433 376.811C280.376 376.673 278.609 376.546 277.246 376.445C277.273 376.91 277.303 377.423 277.336 377.983C277.504 380.9 277.741 385.069 278.015 390.084C278.563 400.113 279.261 413.527 279.86 427.059C280.458 440.586 280.958 454.254 281.108 464.783C281.183 470.042 281.171 474.557 281.037 477.892C280.971 479.553 280.872 480.977 280.728 482.077C280.657 482.622 280.567 483.15 280.445 483.613C280.354 483.962 280.145 484.699 279.621 485.311C279.257 485.736 278.815 486.038 278.513 486.227C278.17 486.442 277.78 486.649 277.373 486.847C276.557 487.243 275.519 487.675 274.324 488.132C271.925 489.049 268.717 490.132 265.004 491.305C257.567 493.654 247.967 496.406 238.458 498.969C228.948 501.533 219.495 503.918 212.35 505.532C208.785 506.337 205.753 506.96 203.562 507.314C202.481 507.49 201.523 507.613 200.78 507.649C200.428 507.665 199.989 507.67 199.563 507.606C199.357 507.575 199.012 507.507 198.639 507.333C198.29 507.17 197.579 506.752 197.209 505.844C196.82 504.889 196.691 503.771 196.641 502.83C196.587 501.83 196.612 500.745 196.663 499.718C196.691 499.146 196.729 498.575 196.77 498.029C195.634 498.15 194.41 498.21 193.138 498.228C190.189 498.27 186.705 498.083 182.926 497.738C175.364 497.048 166.441 495.705 157.895 494.17C149.342 492.634 141.117 490.896 134.938 489.404C131.854 488.659 129.247 487.968 127.352 487.387C126.412 487.099 125.595 486.822 124.964 486.563C124.655 486.437 124.326 486.289 124.03 486.118C123.881 486.033 123.692 485.915 123.501 485.761C123.336 485.629 123.013 485.348 122.757 484.9C122.385 484.25 122.213 483.486 122.111 482.916C121.996 482.27 121.914 481.513 121.853 480.684C121.733 479.022 121.687 476.878 121.691 474.381C121.699 469.377 121.91 462.746 122.182 455.283C122.257 453.23 122.336 451.113 122.418 448.947C122.93 435.314 123.515 419.731 123.47 405.991C123.409 387.188 122.751 373.813 122.011 358.789C121.659 351.633 121.288 344.103 120.954 335.434C112.46 338.548 102.66 340.347 93.3686 340.503C82.8209 340.679 72.4856 338.741 65.4786 333.736C62.5599 331.651 59.5551 328.036 56.6765 323.838C53.7571 319.581 50.8132 314.493 48.0604 309.241C42.5593 298.747 37.7204 287.407 35.28 280.357C32.8282 273.273 29.9554 261.57 28.0544 251.06C27.1027 245.799 26.3811 240.765 26.0825 236.706C25.9335 234.682 25.8848 232.837 25.9803 231.299C26.0679 229.888 26.2938 228.289 27.0087 227.097C27.6949 225.954 28.9392 224.981 30.0991 224.202C31.3599 223.356 32.934 222.476 34.6761 221.599C38.1683 219.841 42.5391 217.993 46.8964 216.346C51.2569 214.697 55.6659 213.224 59.2477 212.227C61.0335 211.729 62.659 211.337 63.9921 211.103C64.6568 210.986 65.294 210.901 65.8675 210.868C66.3824 210.839 67.0829 210.835 67.7533 211.027C68.5944 211.267 69.246 211.798 69.6483 212.166C70.1081 212.588 70.5635 213.104 71.0035 213.658C71.8874 214.771 72.8778 216.249 73.924 217.958C76.0248 221.391 78.4894 225.987 80.9666 231.009C85.0631 239.312 89.2824 248.959 92.0041 256.674C92.2945 256.344 92.602 255.994 92.9251 255.628C95.3708 252.857 98.7171 249.121 102.314 245.269C105.906 241.422 109.771 237.433 113.251 234.168C114.99 232.536 116.658 231.062 118.163 229.868C119.634 228.702 121.083 227.695 122.368 227.11C126.479 225.236 131.287 223.694 136.215 222.199C137.204 221.899 138.198 221.601 139.195 221.301C143.223 220.093 147.3 218.869 151.282 217.456C158.84 214.776 166.701 211.11 172.702 208.095C175.696 206.591 178.213 205.257 179.978 204.299C180.861 203.821 181.555 203.437 182.027 203.174C182.264 203.042 182.444 202.94 182.564 202.872L182.7 202.796L182.733 202.777L182.74 202.773L182.742 202.772L183.468 202.357L184.453 202.446C184.554 202.455 184.705 202.468 184.901 202.485C185.292 202.519 185.863 202.567 186.576 202.624C188.003 202.738 189.998 202.889 192.268 203.033C196.829 203.322 202.421 203.581 206.746 203.484C211.127 203.386 216.773 202.866 221.374 202.361C223.664 202.11 225.675 201.865 227.113 201.683C227.832 201.591 228.407 201.516 228.802 201.464C228.999 201.438 229.151 201.417 229.254 201.403L229.406 201.383L230.045 201.294ZM166.915 216.773C162.531 218.781 157.754 220.8 153.059 222.466C148.941 223.926 144.704 225.198 140.665 226.409C139.683 226.704 138.712 226.995 137.758 227.285C132.823 228.782 128.325 230.235 124.572 231.946C123.89 232.257 122.849 232.935 121.465 234.032C120.117 235.102 118.567 236.468 116.888 238.044C113.531 241.193 109.756 245.086 106.199 248.896C102.646 252.7 99.3349 256.397 96.9101 259.145C95.6983 260.518 94.7092 261.652 94.0238 262.443C93.9819 262.491 93.9411 262.538 93.9015 262.584C96.2429 270.56 99.1059 281.658 101.425 290.934C102.656 295.858 103.737 300.283 104.511 303.477C104.897 305.073 105.207 306.363 105.421 307.253C105.527 307.699 105.61 308.044 105.666 308.279L105.751 308.636L105.751 308.637C105.751 308.637 105.751 308.637 103.165 309.251C100.58 309.864 100.58 309.864 100.579 309.864L100.495 309.511C100.44 309.278 100.358 308.935 100.252 308.491C100.039 307.605 99.7306 306.32 99.345 304.728C98.5738 301.543 97.4958 297.132 96.2687 292.223C93.8104 282.39 90.7675 270.618 88.3955 262.712C86.0654 254.945 81.0893 243.27 76.2002 233.36C73.761 228.416 71.3756 223.976 69.3905 220.733C68.3936 219.104 67.5321 217.833 66.8423 216.965C66.5534 216.601 66.3234 216.345 66.1524 216.176C65.8604 216.193 65.4493 216.243 64.9105 216.338C63.8169 216.529 62.3763 216.872 60.6742 217.346C57.2802 218.292 53.0258 219.71 48.7762 221.317C44.5233 222.925 40.3371 224.699 37.0661 226.346C35.4266 227.171 34.0675 227.94 33.0612 228.615C32.5587 228.953 32.1792 229.243 31.9102 229.483C31.6875 229.681 31.5944 229.797 31.5707 229.827C31.5587 229.857 31.5105 229.977 31.4556 230.232C31.3838 230.567 31.3223 231.027 31.285 231.628C31.2103 232.832 31.243 234.413 31.3831 236.316C31.6625 240.114 32.3494 244.945 33.2845 250.114C35.157 260.466 37.971 271.882 40.3026 278.618C42.6454 285.386 47.3734 296.483 52.7678 306.774C55.4628 311.915 58.2989 316.806 61.0598 320.832C63.8615 324.918 66.4374 327.889 68.5678 329.411C74.2323 333.457 83.2213 335.356 93.2798 335.188C102.692 335.031 112.653 333.067 120.933 329.751L123.477 293.126L123.477 293.123C123.477 293.123 123.477 293.122 126.128 293.306C128.779 293.49 128.779 293.49 128.779 293.49L128.779 293.494L126.131 331.618C126.492 341.694 126.913 350.258 127.313 358.377C128.056 373.489 128.724 387.06 128.785 405.974C128.83 419.832 128.24 435.539 127.728 449.162C127.647 451.325 127.568 453.435 127.494 455.477C127.221 462.951 127.014 469.492 127.006 474.389C127.002 476.843 127.048 478.832 127.154 480.299C127.199 480.912 127.252 481.401 127.309 481.773C127.705 481.921 128.238 482.099 128.91 482.306C130.658 482.841 133.148 483.504 136.186 484.238C142.252 485.702 150.373 487.419 158.834 488.939C167.301 490.459 176.059 491.774 183.41 492.445C187.088 492.781 190.369 492.952 193.064 492.914C194.773 492.89 196.149 492.782 197.199 492.614C199.13 471.544 199.512 459.089 198.943 437.411C198.605 424.507 197.628 416.368 196.734 409.721C196.639 409.02 196.545 408.333 196.453 407.657C195.669 401.918 194.989 396.945 194.989 390.571C194.989 387.817 194.911 383.813 194.822 379.249C194.757 375.888 194.685 372.224 194.634 368.532C194.519 360.113 194.511 351.508 194.972 346.504C192.905 330.765 193.914 320.823 199.086 305.732C200.418 301.845 202.646 297.188 204.494 293.574C205.426 291.752 206.277 290.164 206.896 289.032C206.942 288.948 206.986 288.867 207.03 288.788C206.681 288.357 206.255 287.834 205.761 287.236C204.259 285.419 202.134 282.909 199.641 280.143C194.617 274.569 188.244 268.116 182.538 264.127C177.749 260.78 171.024 257.564 165.309 255.07C162.792 253.972 160.51 253.03 158.711 252.288C158.482 252.193 158.261 252.102 158.048 252.014C157.116 251.629 156.319 251.297 155.739 251.04C155.453 250.914 155.178 250.787 154.95 250.67C154.84 250.613 154.696 250.535 154.551 250.442L154.543 250.438C154.476 250.396 154.058 250.136 153.729 249.675C153.325 249.11 153.169 248.512 153.098 248.112C153.021 247.679 153.002 247.241 153.009 246.839C153.023 246.033 153.147 245.109 153.335 244.138C153.715 242.182 154.422 239.732 155.392 237.071C157.329 231.755 160.419 225.32 164.386 219.972C165.217 218.853 166.063 217.787 166.915 216.773ZM210.218 288.523L212.587 289.728L212.558 289.784L212.527 289.838L212.524 289.844L212.512 289.865L212.463 289.951C212.42 290.028 212.355 290.143 212.271 290.293C212.104 290.592 211.861 291.031 211.56 291.58C210.959 292.681 210.131 294.224 209.226 295.995C207.398 299.567 205.317 303.945 204.114 307.455C200.88 316.89 199.375 324.067 199.286 332.137C209.226 304.206 224.679 284.605 238.391 271.374C246.31 263.733 253.642 258.221 258.978 254.461C260.31 253.522 261.518 252.693 262.573 251.971C262.743 251.855 262.908 251.742 263.068 251.632C263.915 251.053 264.64 250.557 265.251 250.128C265.72 249.798 266.087 249.531 266.365 249.317C266.268 248.561 266.073 247.48 265.745 246.117C265.255 244.079 264.508 241.576 263.496 238.899C261.456 233.502 258.421 227.621 254.412 223.381C249.393 218.072 243.669 214.1 238.884 211.339C240.462 214.88 241.383 219.38 240.35 224.718C239.5 229.109 237.294 235.395 234.562 242.202C231.808 249.063 228.446 256.632 225.196 263.662C221.944 270.695 218.792 277.209 216.455 281.964C215.286 284.341 214.32 286.28 213.646 287.626C213.309 288.298 213.045 288.823 212.864 289.18C212.774 289.358 212.705 289.494 212.659 289.587L212.592 289.718L212.588 289.725L212.587 289.728C212.587 289.728 212.587 289.728 210.218 288.523ZM253.513 215.187C255.129 216.583 256.73 218.096 258.274 219.73C262.961 224.687 266.304 231.295 268.468 237.02C269.558 239.903 270.37 242.619 270.913 244.874C271.44 247.064 271.757 248.999 271.757 250.256C271.757 251.315 271.172 252.041 271.016 252.236C270.767 252.545 270.477 252.814 270.232 253.025C269.73 253.456 269.056 253.95 268.308 254.475C267.666 254.927 266.906 255.447 266.059 256.026C265.901 256.134 265.739 256.245 265.574 256.357C264.525 257.075 263.341 257.888 262.039 258.806C256.838 262.471 249.739 267.81 242.082 275.198C226.807 289.938 209.289 312.853 200.271 346.925C199.835 351.565 199.832 359.912 199.949 368.459C199.998 372.06 200.069 375.691 200.134 379.048C200.224 383.675 200.304 387.781 200.304 390.571C200.304 396.566 200.935 401.189 201.721 406.95C201.812 407.621 201.906 408.307 202.001 409.012C202.912 415.782 203.912 424.12 204.257 437.271C204.846 459.774 204.419 472.524 202.323 494.915C202.3 495.521 202.238 496.296 202.175 497.078L202.165 497.197C202.094 498.089 202.018 499.042 201.971 499.984C201.931 500.781 201.914 501.53 201.933 502.187C202.17 502.153 202.43 502.114 202.712 502.068C204.74 501.739 207.646 501.145 211.179 500.347C218.229 498.755 227.607 496.39 237.074 493.838C246.541 491.285 256.063 488.555 263.403 486.237C267.078 485.076 270.171 484.029 272.426 483.167C273.558 482.735 274.435 482.365 275.052 482.065C275.178 482.004 275.288 481.948 275.381 481.899C275.406 481.76 275.432 481.591 275.458 481.388C275.571 480.522 275.662 479.281 275.727 477.679C275.855 474.49 275.868 470.089 275.793 464.859C275.644 454.411 275.148 440.807 274.55 427.294C273.953 413.786 273.256 400.393 272.708 390.374C272.434 385.365 272.197 381.201 272.029 378.29C271.945 376.834 271.879 375.691 271.833 374.913L271.769 373.836L271.758 373.766C271.741 373.643 271.714 373.463 271.682 373.231C271.616 372.766 271.522 372.091 271.411 371.243C271.189 369.548 270.896 367.16 270.611 364.382C270.044 358.846 269.499 351.678 269.631 345.338C269.732 340.496 270.335 335.275 270.889 330.481C270.965 329.818 271.041 329.164 271.114 328.52C271.735 323.059 272.157 318.502 271.777 315.423C271.41 312.448 270.881 308.614 270.443 305.514C270.224 303.966 270.028 302.605 269.886 301.631C269.849 301.372 269.815 301.14 269.786 300.939C269.76 300.763 269.738 300.611 269.72 300.486L269.659 300.073C269.445 298.621 270.449 297.27 271.901 297.056C273.353 296.842 274.703 297.846 274.917 299.298L274.918 299.3L274.979 299.717C275.018 299.987 275.075 300.379 275.146 300.868C275.288 301.847 275.485 303.214 275.705 304.769C276.145 307.875 276.679 311.748 277.052 314.772C277.525 318.603 276.995 323.838 276.395 329.12C276.32 329.778 276.244 330.439 276.168 331.103C275.611 335.927 275.04 340.877 274.945 345.449C274.82 351.465 275.339 358.38 275.899 363.84C276.177 366.559 276.464 368.897 276.681 370.553C276.705 370.736 276.728 370.912 276.751 371.078C276.787 371.081 276.823 371.083 276.86 371.086C278.285 371.194 280.327 371.343 282.79 371.508C287.716 371.84 294.317 372.237 301.027 372.501C307.751 372.766 314.53 372.896 319.834 372.7C322.495 372.602 324.708 372.424 326.327 372.16C326.809 372.081 327.211 371.999 327.539 371.917C327.448 371.425 327.314 370.812 327.138 370.074C326.683 368.168 326.007 365.692 325.222 362.823C325.088 362.334 324.952 361.833 324.812 361.322C322.923 354.394 320.595 345.646 319.615 338.304C318.612 330.798 318.622 324.884 318.804 319.047C318.841 317.865 318.885 316.692 318.929 315.512C319.103 310.855 319.28 306.096 319.062 300.317C318.865 295.116 318.912 290.682 318.956 286.581C319.053 277.472 319.132 270.001 316.482 259.404C315.547 255.664 313.004 251.22 309.841 247.088C306.696 242.98 303.152 239.46 300.489 237.523C286.588 227.414 265.16 219.309 253.513 215.187ZM275.272 482.367C275.272 482.367 275.277 482.351 275.289 482.321C275.279 482.353 275.273 482.367 275.272 482.367ZM229.005 206.798C228.664 206.843 228.253 206.896 227.781 206.955C226.321 207.14 224.279 207.389 221.954 207.644C217.324 208.152 211.488 208.694 206.865 208.798C202.301 208.9 196.52 208.628 191.931 208.337C189.626 208.191 187.601 208.038 186.152 207.922C185.699 207.886 185.302 207.853 184.97 207.825C184.819 207.975 184.65 208.15 184.467 208.352C183.706 209.189 182.739 210.454 181.943 212.131C180.39 215.404 179.375 220.467 182.264 227.449C185.399 235.027 192.942 249.93 199.763 263.048C203.161 269.583 206.36 275.637 208.71 280.059C209.231 281.039 209.71 281.939 210.141 282.746C210.601 281.819 211.119 280.771 211.685 279.619C214.01 274.89 217.142 268.415 220.372 261.431C223.603 254.443 226.923 246.965 229.629 240.222C232.356 233.427 234.387 227.555 235.132 223.708C236.222 218.078 234.51 213.734 232.491 210.734C231.475 209.223 230.385 208.065 229.555 207.29C229.353 207.102 229.168 206.938 229.005 206.798ZM197.428 270.063C196.651 268.579 195.855 267.053 195.047 265.5C188.257 252.442 180.595 237.317 177.353 229.481C175.093 224.02 174.763 219.315 175.399 215.437C173.189 217.6 170.854 220.174 168.655 223.139C165.071 227.971 162.198 233.917 160.385 238.891C159.48 241.375 158.864 243.546 158.552 245.152C158.457 245.642 158.396 246.053 158.361 246.384C158.819 246.58 159.393 246.819 160.078 247.102C160.288 247.189 160.508 247.28 160.737 247.374C162.535 248.116 164.866 249.078 167.435 250.199C173.185 252.708 180.328 256.098 185.583 259.771C189.518 262.521 193.644 266.262 197.428 270.063ZM126.128 293.306L128.779 293.49C128.881 292.026 127.776 290.757 126.312 290.655C124.848 290.553 123.578 291.658 123.477 293.122L126.128 293.306ZM65.929 215.978C65.929 215.977 65.9347 215.981 65.9462 215.99C65.9348 215.983 65.9291 215.978 65.929 215.978ZM103.165 309.251L100.579 309.864C100.918 311.292 102.351 312.175 103.779 311.837C105.207 311.498 106.09 310.065 105.751 308.637L103.165 309.251Z" fill="black"/>
<path d="M194.781 208.266C194.781 206.674 222.176 206.583 221.887 207.735C221.644 208.707 220.242 215.357 217.637 219.142C214.546 223.634 210.196 226.048 210.196 226.048C210.196 226.048 226.674 251.031 224.548 255.283C223.689 257.001 209.135 280.264 209.135 280.264C209.135 280.264 194.265 254.124 193.72 252.626C191.595 246.779 207.009 226.048 207.009 226.048C207.009 226.048 202.064 222.854 199.035 219.142C196.534 216.076 194.782 210.249 194.781 208.266Z" fill="black"/>
<path fill-rule="evenodd" clip-rule="evenodd" d="M197.775 210.148C197.94 210.794 198.169 211.56 198.471 212.399C199.177 214.362 200.117 216.265 201.094 217.462C202.426 219.094 204.242 220.68 205.795 221.893C206.558 222.49 207.232 222.977 207.712 223.313C207.75 223.34 207.787 223.366 207.823 223.39H209.448C209.457 223.384 209.466 223.378 209.476 223.372C209.874 223.114 210.446 222.719 211.11 222.195C212.448 221.137 214.098 219.598 215.448 217.635C216.517 216.082 217.424 213.785 218.112 211.59C218.309 210.96 218.481 210.364 218.629 209.821C218.324 209.8 217.993 209.781 217.639 209.763C215.183 209.638 211.844 209.591 208.473 209.629C205.098 209.668 201.753 209.791 199.279 209.998C198.713 210.045 198.211 210.096 197.775 210.148ZM203.287 226.668C203.044 226.485 202.787 226.289 202.521 226.081C200.844 224.769 198.673 222.902 196.976 220.822C195.451 218.954 194.265 216.41 193.47 214.198C192.695 212.042 192.124 209.735 192.124 208.267C192.123 207.18 192.723 206.471 193.078 206.15C193.432 205.83 193.801 205.648 194.023 205.552C194.484 205.35 194.997 205.223 195.427 205.136C196.331 204.951 197.525 204.811 198.836 204.702C201.488 204.48 204.974 204.354 208.412 204.315C211.853 204.275 215.309 204.322 217.909 204.455C219.195 204.52 220.341 204.61 221.187 204.732C221.584 204.79 222.058 204.874 222.479 205.016C222.659 205.076 223.064 205.222 223.462 205.53C223.842 205.824 224.855 206.827 224.465 208.381C224.45 208.443 224.426 208.546 224.393 208.683C224.22 209.425 223.806 211.191 223.184 213.178C222.458 215.496 221.362 218.417 219.826 220.648C218.085 223.178 216.015 225.092 214.405 226.364C214.212 226.517 214.025 226.661 213.844 226.797C214.181 227.324 214.566 227.932 214.989 228.605C216.512 231.033 218.527 234.324 220.48 237.758C222.423 241.175 224.343 244.802 225.649 247.885C226.299 249.418 226.836 250.907 227.134 252.219C227.282 252.876 227.388 253.561 227.395 254.23C227.401 254.876 227.316 255.689 226.925 256.472C226.644 257.035 225.482 258.953 224.043 261.3C222.554 263.729 220.651 266.803 218.777 269.82C216.903 272.837 215.055 275.8 213.677 278.009C212.987 279.113 212.415 280.029 212.015 280.669L211.388 281.672C211.388 281.672 211.388 281.673 209.135 280.264C206.825 281.578 206.825 281.578 206.825 281.577L206.184 280.45C205.776 279.732 205.193 278.704 204.491 277.467C203.088 274.991 201.211 271.675 199.316 268.311C197.422 264.948 195.508 261.533 194.032 258.862C193.295 257.528 192.663 256.371 192.195 255.497C191.789 254.736 191.373 253.947 191.222 253.534C190.715 252.138 190.818 250.612 191.072 249.3C191.337 247.933 191.835 246.461 192.445 244.989C193.667 242.04 195.475 238.768 197.296 235.766C199.127 232.748 201.02 229.926 202.45 227.864C202.751 227.431 203.031 227.03 203.287 226.668ZM209.135 280.264L206.825 281.577L209.026 285.447L211.388 281.673L209.135 280.264ZM209.244 275.073C210.613 272.88 212.425 269.973 214.262 267.015C216.134 264.001 218.031 260.938 219.512 258.522C220.253 257.314 220.887 256.272 221.36 255.483C221.598 255.088 221.791 254.762 221.936 254.512C221.993 254.413 222.041 254.33 222.08 254.261C222.076 254.094 222.045 253.812 221.95 253.394C221.753 252.525 221.352 251.365 220.756 249.958C219.57 247.161 217.77 243.744 215.859 240.385C213.958 237.041 211.986 233.82 210.487 231.431C209.786 230.313 209.189 229.38 208.754 228.705H208.362C207.964 229.258 207.435 230.004 206.817 230.893C205.424 232.901 203.597 235.627 201.84 238.523C200.073 241.435 198.426 244.441 197.355 247.024C196.819 248.318 196.462 249.425 196.29 250.311C196.108 251.252 196.194 251.652 196.218 251.718C196.213 251.706 196.227 251.732 196.263 251.804C196.342 251.961 196.531 252.334 196.882 252.991C197.332 253.833 197.951 254.964 198.684 256.291C200.15 258.943 202.055 262.344 203.947 265.703C205.838 269.061 207.713 272.373 209.115 274.845C209.158 274.922 209.201 274.998 209.244 275.073Z" fill="black"/>
<path fill-rule="evenodd" clip-rule="evenodd" d="M37.2598 196.574C46.0658 196.574 53.2046 189.435 53.2046 180.629C53.2046 171.823 46.0658 164.685 37.2598 164.685C28.4537 164.685 21.3149 171.823 21.3149 180.629C21.3149 189.435 28.4537 196.574 37.2598 196.574ZM37.2598 201.889C49.0012 201.889 58.5195 192.371 58.5195 180.629C58.5195 168.888 49.0012 159.37 37.2598 159.37C25.5183 159.37 16 168.888 16 180.629C16 192.371 25.5183 201.889 37.2598 201.889Z" fill="black"/>
<path fill-rule="evenodd" clip-rule="evenodd" d="M304.07 428.306C312.876 428.306 320.015 421.167 320.015 412.361C320.015 403.555 312.876 396.416 304.07 396.416C295.264 396.416 288.125 403.555 288.125 412.361C288.125 421.167 295.264 428.306 304.07 428.306ZM304.07 433.621C315.811 433.621 325.33 424.102 325.33 412.361C325.33 400.619 315.811 391.101 304.07 391.101C292.328 391.101 282.81 400.619 282.81 412.361C282.81 424.102 292.328 433.621 304.07 433.621Z" fill="black"/>
<path fill-rule="evenodd" clip-rule="evenodd" d="M160.035 791.848C172.07 791.848 181.826 782.091 181.826 770.056C181.826 758.021 172.07 748.265 160.035 748.265C148 748.265 138.244 758.021 138.244 770.056C138.244 782.091 148 791.848 160.035 791.848ZM160.035 797.163C175.005 797.163 187.141 785.027 187.141 770.056C187.141 755.086 175.005 742.95 160.035 742.95C145.065 742.95 132.929 755.086 132.929 770.056C132.929 785.027 145.065 797.163 160.035 797.163Z" fill="black"/>
<path fill-rule="evenodd" clip-rule="evenodd" d="M236.57 791.848C248.605 791.848 258.361 782.091 258.361 770.056C258.361 758.021 248.605 748.265 236.57 748.265C224.535 748.265 214.779 758.021 214.779 770.056C214.779 782.091 224.535 791.848 236.57 791.848ZM236.57 797.163C251.54 797.163 263.676 785.027 263.676 770.056C263.676 755.086 251.54 742.95 236.57 742.95C221.6 742.95 209.464 755.086 209.464 770.056C209.464 785.027 221.6 797.163 236.57 797.163Z" fill="black"/>
<path fill-rule="evenodd" clip-rule="evenodd" d="M135.585 484.697L135.054 487.301L132.397 487.246L132.463 484.062L135.585 484.697ZM196.626 497.782C196.354 497.767 196.064 497.75 195.757 497.732C193.627 497.609 190.698 497.435 187.502 497.23C181.135 496.821 173.628 496.286 169.298 495.788C162.493 495.005 153.784 493.53 146.816 492.26C143.324 491.623 140.253 491.035 138.055 490.606C137.916 490.579 137.78 490.552 137.648 490.526C137.615 492.189 137.571 494.472 137.519 497.297C137.402 503.63 137.242 512.683 137.072 523.568C136.732 545.337 136.35 574.427 136.184 603.714C136.018 633.006 136.068 662.473 136.59 685.005C136.852 696.278 137.23 705.776 137.755 712.637C138.018 716.075 138.314 718.793 138.639 720.718C138.802 721.687 138.961 722.386 139.105 722.85C139.138 722.955 139.166 723.038 139.19 723.1C139.695 723.492 140.541 723.937 141.821 724.363C143.258 724.841 145.056 725.236 147.144 725.538C151.317 726.141 156.407 726.339 161.562 726.209C166.709 726.078 171.839 725.622 176.075 724.946C178.195 724.607 180.056 724.219 181.567 723.8C182.806 723.457 183.704 723.122 184.294 722.83C184.42 722.514 184.578 722.012 184.754 721.284C185.129 719.739 185.51 717.507 185.892 714.631C186.651 708.899 187.373 700.891 188.062 691.337C189.437 672.243 190.665 647.163 191.794 622.181C192.126 614.853 192.449 607.533 192.764 600.377C193.524 583.155 194.242 566.882 194.934 553.731C195.424 544.426 195.904 536.648 196.379 531.185C196.616 528.464 196.857 526.259 197.106 524.711C197.228 523.954 197.368 523.249 197.541 522.69C197.622 522.43 197.758 522.042 197.987 521.668L197.989 521.664C198.103 521.478 198.851 520.254 200.428 520.254C201.512 520.254 202.259 520.829 202.582 521.116C202.959 521.452 203.259 521.843 203.487 522.181C203.951 522.868 204.409 523.768 204.857 524.769C205.764 526.802 206.811 529.675 207.938 533.168C210.2 540.177 212.864 549.937 215.458 561.047C220.641 583.244 225.599 611.068 226.469 633.359C227.179 651.551 224.351 673.444 221.991 691.301C221.933 691.735 221.876 692.167 221.819 692.596C220.701 701.051 219.714 708.512 219.261 714.275C219.023 717.307 218.941 719.769 219.047 721.606C219.101 722.525 219.197 723.214 219.317 723.705C219.413 724.097 219.498 724.254 219.509 724.278C219.639 724.417 220.147 724.804 221.439 725.22C222.702 725.626 224.385 725.959 226.42 726.202C230.48 726.685 235.606 726.772 240.838 726.543C246.06 726.314 251.295 725.776 255.551 725.042C257.681 724.675 259.525 724.266 260.98 723.837C262.507 723.386 263.362 722.981 263.707 722.73C263.703 722.733 263.7 722.735 263.7 722.735C263.699 722.733 263.85 722.599 264.117 722.163C264.395 721.708 264.715 721.063 265.067 720.204C265.77 718.488 266.512 716.133 267.266 713.213C268.772 707.388 270.263 699.579 271.593 690.721C274.251 673.009 276.231 651.342 276.432 633.432C276.739 605.956 271.337 570.567 265.817 541.925C263.062 527.63 260.287 515.063 258.202 506.071C257.159 501.576 256.289 497.975 255.68 495.5C255.571 495.06 255.471 494.655 255.38 494.287C253.877 494.688 251.795 495.243 249.316 495.899C244.105 497.279 237.138 499.108 230.12 500.904C223.105 502.699 216.021 504.466 210.583 505.72C207.869 506.345 205.533 506.85 203.809 507.166C202.954 507.323 202.198 507.443 201.601 507.504C201.31 507.534 200.987 507.558 200.678 507.551C200.526 507.548 200.314 507.537 200.08 507.496C199.898 507.464 199.433 507.371 198.954 507.052C198.1 506.482 197.678 505.647 197.468 505.139C197.232 504.566 197.08 503.946 196.976 503.379C196.765 502.235 196.677 500.916 196.643 499.737C196.622 499.054 196.62 498.386 196.626 497.782ZM257.298 491.022C259.871 490.358 259.872 490.359 259.872 490.36L259.873 490.363L259.876 490.376L259.937 490.616C259.98 490.784 260.044 491.034 260.126 491.362C260.292 492.016 260.533 492.982 260.84 494.23C261.455 496.725 262.33 500.349 263.379 504.87C265.476 513.911 268.266 526.544 271.036 540.919C276.567 569.616 282.06 605.448 281.746 633.492C281.543 651.687 279.537 673.601 276.849 691.51C275.505 700.462 273.982 708.471 272.412 714.544C271.629 717.574 270.817 720.187 269.985 722.218C269.57 723.233 269.127 724.156 268.652 724.934C268.197 725.678 267.608 726.465 266.833 727.028C265.717 727.84 264.13 728.449 262.485 728.934C260.767 729.441 258.708 729.891 256.453 730.28C251.94 731.058 246.478 731.616 241.07 731.852C235.672 732.089 230.236 732.009 225.792 731.479C223.575 731.215 221.521 730.83 219.811 730.279C218.191 729.757 216.476 728.965 215.379 727.625C214.721 726.82 214.367 725.842 214.153 724.963C213.931 724.05 213.805 723.014 213.741 721.914C213.614 719.715 213.718 716.97 213.962 713.858C214.427 707.949 215.431 700.357 216.539 691.981C216.6 691.524 216.661 691.065 216.722 690.604C219.095 672.645 221.847 651.221 221.158 633.566C220.307 611.762 215.432 584.311 210.283 562.256C207.71 551.24 205.084 541.63 202.88 534.8C202.47 533.528 202.077 532.36 201.704 531.305C201.694 531.417 201.684 531.531 201.674 531.646C201.207 537.012 200.732 544.713 200.242 554.011C199.55 567.138 198.834 583.374 198.075 600.585C197.759 607.746 197.436 615.076 197.104 622.421C195.975 647.399 194.744 672.545 193.363 691.719C192.673 701.299 191.941 709.435 191.16 715.329C190.771 718.267 190.361 720.718 189.92 722.536C189.701 723.439 189.455 724.269 189.166 724.956C189.022 725.3 188.841 725.669 188.61 726.015C188.394 726.339 188.032 726.797 187.471 727.142C186.288 727.87 184.699 728.448 182.986 728.923C181.229 729.409 179.163 729.835 176.913 730.194C172.413 730.913 167.046 731.387 161.696 731.522C156.354 731.657 150.947 731.457 146.384 730.798C144.103 730.468 141.974 730.016 140.142 729.406C138.349 728.809 136.639 727.996 135.378 726.832C134.929 726.418 134.652 725.937 134.481 725.592C134.297 725.218 134.15 724.817 134.028 724.423C133.785 723.637 133.579 722.677 133.398 721.602C133.033 719.44 132.723 716.536 132.456 713.042C131.92 706.039 131.539 696.428 131.277 685.129C130.753 662.517 130.703 632.989 130.869 603.683C131.035 574.373 131.417 545.264 131.758 523.484C131.928 512.594 132.088 503.535 132.205 497.199C132.264 494.031 132.312 491.543 132.345 489.847C132.362 488.999 132.375 488.349 132.384 487.911L132.397 487.249C132.397 487.247 132.397 487.246 135.054 487.301L135.585 484.697L135.82 484.745C135.977 484.777 136.209 484.823 136.509 484.883C137.109 485.003 137.983 485.177 139.073 485.389C141.255 485.815 144.303 486.399 147.769 487.031C154.718 488.298 163.283 489.746 169.905 490.508C174.08 490.988 181.454 491.516 187.843 491.926C191.024 492.13 193.942 492.303 196.064 492.426C197.125 492.487 197.987 492.536 198.583 492.569C198.881 492.586 199.113 492.599 199.27 492.607L199.508 492.62C199.508 492.62 199.509 492.62 199.365 495.274L199.508 492.62L202.185 492.765L202.018 495.439L202.017 495.442L202.017 495.456L202.013 495.518C202.01 495.575 202.005 495.66 202 495.77C201.989 495.991 201.975 496.312 201.963 496.7C201.939 497.482 201.924 498.522 201.955 499.581C201.982 500.498 202.042 501.363 202.145 502.062C202.358 502.026 202.593 501.985 202.85 501.938C204.454 501.644 206.697 501.161 209.39 500.54C214.764 499.302 221.798 497.548 228.802 495.755C235.802 493.964 242.753 492.139 247.956 490.762C250.557 490.073 252.721 489.496 254.234 489.092C254.99 488.89 255.584 488.731 255.988 488.622L256.607 488.456C256.607 488.456 256.607 488.456 257.298 491.022ZM202.4 503.151C202.4 503.152 202.395 503.142 202.385 503.12C202.396 503.139 202.401 503.151 202.4 503.151ZM257.298 491.022L256.607 488.456L259.201 487.757L259.871 490.358L257.298 491.022Z" fill="black"/>
</svg>
