<svg width="64" height="64" viewBox="0 0 64 64" fill="none" xmlns="http://www.w3.org/2000/svg">
<circle cx="32" cy="32" r="30" stroke="white" stroke-width="4"/>
<path d="M49.5 30C49.5 37.732 41.8888 44 32.5 44C23.1112 44 15.5 37.732 15.5 30C15.5 22.268 23.1112 17 32.5 17C41.8888 17 49.5 22.268 49.5 30Z" fill="white"/>
<path d="M45.5 57C43.5 64 39.1274 60.5 32.5 60.5C25.8726 60.5 19.5 62.5 19.5 56C19.5 47.1634 25.8726 39 32.5 39C39.1274 39 45.5 48.1634 45.5 57Z" fill="white"/>
<path d="M24 47.5C23.5 49.5 21.5 49.5 17.5 49C13.5 48.5 11 44.5 11 44.5" stroke="white" stroke-width="3" stroke-linecap="round"/>
<path d="M46.7277 15.9319C47.3006 15.8156 47.8393 16.2236 47.8782 16.8068C47.9469 17.837 48.0178 19.397 47.9223 20.5458C47.8244 21.7249 47.4875 23.2382 47.2127 24.3322C47.0397 25.0212 46.2185 25.2838 45.6632 24.8406L39.4392 19.8727C38.8679 19.4168 38.9648 18.5271 39.6288 18.2217C40.5943 17.7776 41.8791 17.2177 42.905 16.8807C44.0622 16.5004 45.6761 16.1454 46.7277 15.9319Z" fill="white"/>
<path d="M17.8716 15.6433C17.2988 15.527 16.76 15.935 16.7212 16.5183C16.6525 17.5485 16.5816 19.1084 16.677 20.2573C16.775 21.4363 17.1119 22.9497 17.3866 24.0436C17.5597 24.7326 18.3809 24.9952 18.9361 24.552L25.1602 19.5842C25.7315 19.1282 25.6346 18.2385 24.9705 17.9331C24.0051 17.4891 22.7202 16.9292 21.6943 16.5921C20.5372 16.2119 18.9232 15.8568 17.8716 15.6433Z" fill="white"/>
</svg>
